  0
SECTION
  2
HEADER
  9
$ACADVER
  1
AC1009
  9
$EXTMIN
 10
0.0
 20
0.0
 30
0.0
  9
$EXTMAX
 10
1000.0
 20
1000.0
 30
0.0
  9
$FILLMODE
 70
 0
  9
$SPLFRAME
 70
 1
  0
ENDSEC
  0
SECTION
  2
TABLES
  0
TABLE
  2
LAYER
 70
1
  0
LAYER
  2
0
 70
     0
 62
     7
  6
CONTINUOUS
  0
ENDTAB
  0
ENDSEC
  0
SECTION
  2
ENTITIES
  0
LINE
  8
0
 62
     0
 10
0.0950846
 20
135.371
 30
0.0
 11
306.795
 21
135.371
 31
0.0
  0
LINE
  8
0
 62
     0
 10
306.795
 20
135.371
 30
0.0
 11
306.795
 21
0.122645
 31
0.0
  0
LINE
  8
0
 62
     0
 10
306.795
 20
0.122645
 30
0.0
 11
0.0950846
 21
0.122645
 31
0.0
  0
LINE
  8
0
 62
     0
 10
0.0950846
 20
0.122645
 30
0.0
 11
0.0950846
 21
135.371
 31
0.0
  0
LINE
  8
0
 62
     0
 10
155.969
 20
36.6476
 30
0.0
 11
155.969
 21
35.6471
 31
0.0
  0
LINE
  8
0
 62
     0
 10
155.969
 20
35.6471
 30
0.0
 11
155.17
 21
35.6471
 31
0.0
  0
LINE
  8
0
 62
     0
 10
155.17
 20
35.6471
 30
0.0
 11
155.17
 21
32.5479
 31
0.0
  0
LINE
  8
0
 62
     0
 10
155.17
 20
32.5479
 30
0.0
 11
155.969
 21
32.5479
 31
0.0
  0
LINE
  8
0
 62
     0
 10
155.969
 20
32.5479
 30
0.0
 11
155.969
 21
31.9471
 31
0.0
  0
LINE
  8
0
 62
     0
 10
155.969
 20
31.9471
 30
0.0
 11
109.32
 21
31.9471
 31
0.0
  0
LINE
  8
0
 62
     0
 10
109.32
 20
31.9471
 30
0.0
 11
109.32
 21
35.1772
 31
0.0
  0
LINE
  8
0
 62
     0
 10
109.32
 20
35.1772
 30
0.0
 11
107.594
 21
35.1772
 31
0.0
  0
LINE
  8
0
 62
     0
 10
107.594
 20
35.1772
 30
0.0
 11
107.594
 21
36.0976
 31
0.0
  0
LINE
  8
0
 62
     0
 10
107.594
 20
36.0976
 30
0.0
 11
104.294
 21
36.0976
 31
0.0
  0
LINE
  8
0
 62
     0
 10
104.294
 20
36.0976
 30
0.0
 11
104.294
 21
35.1772
 31
0.0
  0
LINE
  8
0
 62
     0
 10
104.294
 20
35.1772
 30
0.0
 11
102.57
 21
35.1772
 31
0.0
  0
LINE
  8
0
 62
     0
 10
102.57
 20
35.1772
 30
0.0
 11
102.57
 21
31.9471
 31
0.0
  0
LINE
  8
0
 62
     0
 10
102.57
 20
31.9471
 30
0.0
 11
101.745
 21
31.9471
 31
0.0
  0
LINE
  8
0
 62
     0
 10
101.745
 20
31.9471
 30
0.0
 11
101.745
 21
29.1469
 31
0.0
  0
LINE
  8
0
 62
     0
 10
101.745
 20
29.1469
 30
0.0
 11
102.57
 21
29.1469
 31
0.0
  0
LINE
  8
0
 62
     0
 10
102.57
 20
29.1469
 30
0.0
 11
102.57
 21
22.8782
 31
0.0
  0
LINE
  8
0
 62
     0
 10
102.57
 20
22.8782
 30
0.0
 11
104.294
 21
22.8782
 31
0.0
  0
LINE
  8
0
 62
     0
 10
104.294
 20
22.8782
 30
0.0
 11
104.294
 21
21.897
 31
0.0
  0
LINE
  8
0
 62
     0
 10
104.294
 20
21.897
 30
0.0
 11
107.594
 21
21.897
 31
0.0
  0
LINE
  8
0
 62
     0
 10
107.594
 20
21.897
 30
0.0
 11
107.594
 21
22.8782
 31
0.0
  0
LINE
  8
0
 62
     0
 10
107.594
 20
22.8782
 30
0.0
 11
109.32
 21
22.8782
 31
0.0
  0
LINE
  8
0
 62
     0
 10
109.32
 20
22.8782
 30
0.0
 11
109.32
 21
27.3485
 31
0.0
  0
LINE
  8
0
 62
     0
 10
109.32
 20
27.3485
 30
0.0
 11
155.969
 21
27.3485
 31
0.0
  0
LINE
  8
0
 62
     0
 10
155.969
 20
27.3485
 30
0.0
 11
155.969
 21
26.7477
 31
0.0
  0
LINE
  8
0
 62
     0
 10
155.969
 20
26.7477
 30
0.0
 11
155.17
 21
26.7477
 31
0.0
  0
LINE
  8
0
 62
     0
 10
155.17
 20
26.7477
 30
0.0
 11
155.17
 21
23.6472
 31
0.0
  0
LINE
  8
0
 62
     0
 10
155.17
 20
23.6472
 30
0.0
 11
155.969
 21
23.6472
 31
0.0
  0
LINE
  8
0
 62
     0
 10
155.969
 20
23.6472
 30
0.0
 11
155.969
 21
22.6467
 31
0.0
  0
LINE
  8
0
 62
     0
 10
155.969
 20
22.6467
 30
0.0
 11
169.97
 21
22.6467
 31
0.0
  0
LINE
  8
0
 62
     0
 10
169.97
 20
22.6467
 30
0.0
 11
169.97
 21
23.6472
 31
0.0
  0
LINE
  8
0
 62
     0
 10
169.97
 20
23.6472
 30
0.0
 11
170.769
 21
23.6472
 31
0.0
  0
LINE
  8
0
 62
     0
 10
170.769
 20
23.6472
 30
0.0
 11
170.769
 21
26.7477
 31
0.0
  0
LINE
  8
0
 62
     0
 10
170.769
 20
26.7477
 30
0.0
 11
169.97
 21
26.7477
 31
0.0
  0
LINE
  8
0
 62
     0
 10
169.97
 20
26.7477
 30
0.0
 11
169.97
 21
27.3485
 31
0.0
  0
LINE
  8
0
 62
     0
 10
169.97
 20
27.3485
 30
0.0
 11
197.569
 21
27.3485
 31
0.0
  0
LINE
  8
0
 62
     0
 10
197.569
 20
27.3485
 30
0.0
 11
197.569
 21
22.8782
 31
0.0
  0
LINE
  8
0
 62
     0
 10
197.569
 20
22.8782
 30
0.0
 11
199.295
 21
22.8782
 31
0.0
  0
LINE
  8
0
 62
     0
 10
199.295
 20
22.8782
 30
0.0
 11
199.295
 21
21.897
 31
0.0
  0
LINE
  8
0
 62
     0
 10
199.295
 20
21.897
 30
0.0
 11
202.595
 21
21.897
 31
0.0
  0
LINE
  8
0
 62
     0
 10
202.595
 20
21.897
 30
0.0
 11
202.595
 21
22.8782
 31
0.0
  0
LINE
  8
0
 62
     0
 10
202.595
 20
22.8782
 30
0.0
 11
204.319
 21
22.8782
 31
0.0
  0
LINE
  8
0
 62
     0
 10
204.319
 20
22.8782
 30
0.0
 11
204.319
 21
29.1469
 31
0.0
  0
LINE
  8
0
 62
     0
 10
204.319
 20
29.1469
 30
0.0
 11
205.145
 21
29.1469
 31
0.0
  0
LINE
  8
0
 62
     0
 10
205.145
 20
29.1469
 30
0.0
 11
205.145
 21
31.9471
 31
0.0
  0
LINE
  8
0
 62
     0
 10
205.145
 20
31.9471
 30
0.0
 11
204.319
 21
31.9471
 31
0.0
  0
LINE
  8
0
 62
     0
 10
204.319
 20
31.9471
 30
0.0
 11
204.319
 21
35.1772
 31
0.0
  0
LINE
  8
0
 62
     0
 10
204.319
 20
35.1772
 30
0.0
 11
202.595
 21
35.1772
 31
0.0
  0
LINE
  8
0
 62
     0
 10
202.595
 20
35.1772
 30
0.0
 11
202.595
 21
36.0976
 31
0.0
  0
LINE
  8
0
 62
     0
 10
202.595
 20
36.0976
 30
0.0
 11
199.295
 21
36.0976
 31
0.0
  0
LINE
  8
0
 62
     0
 10
199.295
 20
36.0976
 30
0.0
 11
199.295
 21
35.1772
 31
0.0
  0
LINE
  8
0
 62
     0
 10
199.295
 20
35.1772
 30
0.0
 11
197.569
 21
35.1772
 31
0.0
  0
LINE
  8
0
 62
     0
 10
197.569
 20
35.1772
 30
0.0
 11
197.569
 21
31.9471
 31
0.0
  0
LINE
  8
0
 62
     0
 10
197.569
 20
31.9471
 30
0.0
 11
169.97
 21
31.9471
 31
0.0
  0
LINE
  8
0
 62
     0
 10
169.97
 20
31.9471
 30
0.0
 11
169.97
 21
32.5479
 31
0.0
  0
LINE
  8
0
 62
     0
 10
169.97
 20
32.5479
 30
0.0
 11
170.769
 21
32.5479
 31
0.0
  0
LINE
  8
0
 62
     0
 10
170.769
 20
32.5479
 30
0.0
 11
170.769
 21
35.6471
 31
0.0
  0
LINE
  8
0
 62
     0
 10
170.769
 20
35.6471
 30
0.0
 11
169.97
 21
35.6471
 31
0.0
  0
LINE
  8
0
 62
     0
 10
169.97
 20
35.6471
 30
0.0
 11
169.97
 21
36.6476
 31
0.0
  0
LINE
  8
0
 62
     0
 10
169.97
 20
36.6476
 30
0.0
 11
155.969
 21
36.6476
 31
0.0
  0
LINE
  8
0
 62
     0
 10
251.219
 20
55.6976
 30
0.0
 11
251.219
 21
54.6971
 31
0.0
  0
LINE
  8
0
 62
     0
 10
251.219
 20
54.6971
 30
0.0
 11
250.42
 21
54.6971
 31
0.0
  0
LINE
  8
0
 62
     0
 10
250.42
 20
54.6971
 30
0.0
 11
250.42
 21
51.598
 31
0.0
  0
LINE
  8
0
 62
     0
 10
250.42
 20
51.598
 30
0.0
 11
251.219
 21
51.598
 31
0.0
  0
LINE
  8
0
 62
     0
 10
251.219
 20
51.598
 30
0.0
 11
251.219
 21
45.7976
 31
0.0
  0
LINE
  8
0
 62
     0
 10
251.219
 20
45.7976
 30
0.0
 11
250.42
 21
45.7976
 31
0.0
  0
LINE
  8
0
 62
     0
 10
250.42
 20
45.7976
 30
0.0
 11
250.42
 21
42.697
 31
0.0
  0
LINE
  8
0
 62
     0
 10
250.42
 20
42.697
 30
0.0
 11
251.219
 21
42.697
 31
0.0
  0
LINE
  8
0
 62
     0
 10
251.219
 20
42.697
 30
0.0
 11
251.219
 21
41.6966
 31
0.0
  0
LINE
  8
0
 62
     0
 10
251.219
 20
41.6966
 30
0.0
 11
265.22
 21
41.6966
 31
0.0
  0
LINE
  8
0
 62
     0
 10
265.22
 20
41.6966
 30
0.0
 11
265.22
 21
42.697
 31
0.0
  0
LINE
  8
0
 62
     0
 10
265.22
 20
42.697
 30
0.0
 11
266.019
 21
42.697
 31
0.0
  0
LINE
  8
0
 62
     0
 10
266.019
 20
42.697
 30
0.0
 11
266.019
 21
45.7976
 31
0.0
  0
LINE
  8
0
 62
     0
 10
266.019
 20
45.7976
 30
0.0
 11
265.22
 21
45.7976
 31
0.0
  0
LINE
  8
0
 62
     0
 10
265.22
 20
45.7976
 30
0.0
 11
265.22
 21
51.598
 31
0.0
  0
LINE
  8
0
 62
     0
 10
265.22
 20
51.598
 30
0.0
 11
266.019
 21
51.598
 31
0.0
  0
LINE
  8
0
 62
     0
 10
266.019
 20
51.598
 30
0.0
 11
266.019
 21
54.6971
 31
0.0
  0
LINE
  8
0
 62
     0
 10
266.019
 20
54.6971
 30
0.0
 11
265.22
 21
54.6971
 31
0.0
  0
LINE
  8
0
 62
     0
 10
265.22
 20
54.6971
 30
0.0
 11
265.22
 21
55.6976
 31
0.0
  0
LINE
  8
0
 62
     0
 10
265.22
 20
55.6976
 30
0.0
 11
251.219
 21
55.6976
 31
0.0
  0
LINE
  8
0
 62
     0
 10
227.407
 20
55.6976
 30
0.0
 11
227.407
 21
54.6971
 31
0.0
  0
LINE
  8
0
 62
     0
 10
227.407
 20
54.6971
 30
0.0
 11
226.606
 21
54.6971
 31
0.0
  0
LINE
  8
0
 62
     0
 10
226.606
 20
54.6971
 30
0.0
 11
226.606
 21
51.598
 31
0.0
  0
LINE
  8
0
 62
     0
 10
226.606
 20
51.598
 30
0.0
 11
227.407
 21
51.598
 31
0.0
  0
LINE
  8
0
 62
     0
 10
227.407
 20
51.598
 30
0.0
 11
227.407
 21
45.7976
 31
0.0
  0
LINE
  8
0
 62
     0
 10
227.407
 20
45.7976
 30
0.0
 11
226.606
 21
45.7976
 31
0.0
  0
LINE
  8
0
 62
     0
 10
226.606
 20
45.7976
 30
0.0
 11
226.606
 21
42.697
 31
0.0
  0
LINE
  8
0
 62
     0
 10
226.606
 20
42.697
 30
0.0
 11
227.407
 21
42.697
 31
0.0
  0
LINE
  8
0
 62
     0
 10
227.407
 20
42.697
 30
0.0
 11
227.407
 21
41.6966
 31
0.0
  0
LINE
  8
0
 62
     0
 10
227.407
 20
41.6966
 30
0.0
 11
241.406
 21
41.6966
 31
0.0
  0
LINE
  8
0
 62
     0
 10
241.406
 20
41.6966
 30
0.0
 11
241.406
 21
42.697
 31
0.0
  0
LINE
  8
0
 62
     0
 10
241.406
 20
42.697
 30
0.0
 11
242.207
 21
42.697
 31
0.0
  0
LINE
  8
0
 62
     0
 10
242.207
 20
42.697
 30
0.0
 11
242.207
 21
45.7976
 31
0.0
  0
LINE
  8
0
 62
     0
 10
242.207
 20
45.7976
 30
0.0
 11
241.406
 21
45.7976
 31
0.0
  0
LINE
  8
0
 62
     0
 10
241.406
 20
45.7976
 30
0.0
 11
241.406
 21
51.598
 31
0.0
  0
LINE
  8
0
 62
     0
 10
241.406
 20
51.598
 30
0.0
 11
242.207
 21
51.598
 31
0.0
  0
LINE
  8
0
 62
     0
 10
242.207
 20
51.598
 30
0.0
 11
242.207
 21
54.6971
 31
0.0
  0
LINE
  8
0
 62
     0
 10
242.207
 20
54.6971
 30
0.0
 11
241.406
 21
54.6971
 31
0.0
  0
LINE
  8
0
 62
     0
 10
241.406
 20
54.6971
 30
0.0
 11
241.406
 21
55.6976
 31
0.0
  0
LINE
  8
0
 62
     0
 10
241.406
 20
55.6976
 30
0.0
 11
227.407
 21
55.6976
 31
0.0
  0
LINE
  8
0
 62
     0
 10
208.357
 20
55.6976
 30
0.0
 11
208.357
 21
54.6971
 31
0.0
  0
LINE
  8
0
 62
     0
 10
208.357
 20
54.6971
 30
0.0
 11
207.556
 21
54.6971
 31
0.0
  0
LINE
  8
0
 62
     0
 10
207.556
 20
54.6971
 30
0.0
 11
207.556
 21
51.598
 31
0.0
  0
LINE
  8
0
 62
     0
 10
207.556
 20
51.598
 30
0.0
 11
208.357
 21
51.598
 31
0.0
  0
LINE
  8
0
 62
     0
 10
208.357
 20
51.598
 30
0.0
 11
208.357
 21
45.7976
 31
0.0
  0
LINE
  8
0
 62
     0
 10
208.357
 20
45.7976
 30
0.0
 11
207.556
 21
45.7976
 31
0.0
  0
LINE
  8
0
 62
     0
 10
207.556
 20
45.7976
 30
0.0
 11
207.556
 21
42.697
 31
0.0
  0
LINE
  8
0
 62
     0
 10
207.556
 20
42.697
 30
0.0
 11
208.357
 21
42.697
 31
0.0
  0
LINE
  8
0
 62
     0
 10
208.357
 20
42.697
 30
0.0
 11
208.357
 21
41.6966
 31
0.0
  0
LINE
  8
0
 62
     0
 10
208.357
 20
41.6966
 30
0.0
 11
222.356
 21
41.6966
 31
0.0
  0
LINE
  8
0
 62
     0
 10
222.356
 20
41.6966
 30
0.0
 11
222.356
 21
42.697
 31
0.0
  0
LINE
  8
0
 62
     0
 10
222.356
 20
42.697
 30
0.0
 11
223.157
 21
42.697
 31
0.0
  0
LINE
  8
0
 62
     0
 10
223.157
 20
42.697
 30
0.0
 11
223.157
 21
45.7976
 31
0.0
  0
LINE
  8
0
 62
     0
 10
223.157
 20
45.7976
 30
0.0
 11
222.356
 21
45.7976
 31
0.0
  0
LINE
  8
0
 62
     0
 10
222.356
 20
45.7976
 30
0.0
 11
222.356
 21
51.598
 31
0.0
  0
LINE
  8
0
 62
     0
 10
222.356
 20
51.598
 30
0.0
 11
223.157
 21
51.598
 31
0.0
  0
LINE
  8
0
 62
     0
 10
223.157
 20
51.598
 30
0.0
 11
223.157
 21
54.6971
 31
0.0
  0
LINE
  8
0
 62
     0
 10
223.157
 20
54.6971
 30
0.0
 11
222.356
 21
54.6971
 31
0.0
  0
LINE
  8
0
 62
     0
 10
222.356
 20
54.6971
 30
0.0
 11
222.356
 21
55.6976
 31
0.0
  0
LINE
  8
0
 62
     0
 10
222.356
 20
55.6976
 30
0.0
 11
208.357
 21
55.6976
 31
0.0
  0
LINE
  8
0
 62
     0
 10
189.307
 20
55.6976
 30
0.0
 11
189.307
 21
54.6971
 31
0.0
  0
LINE
  8
0
 62
     0
 10
189.307
 20
54.6971
 30
0.0
 11
188.506
 21
54.6971
 31
0.0
  0
LINE
  8
0
 62
     0
 10
188.506
 20
54.6971
 30
0.0
 11
188.506
 21
51.598
 31
0.0
  0
LINE
  8
0
 62
     0
 10
188.506
 20
51.598
 30
0.0
 11
189.307
 21
51.598
 31
0.0
  0
LINE
  8
0
 62
     0
 10
189.307
 20
51.598
 30
0.0
 11
189.307
 21
45.7976
 31
0.0
  0
LINE
  8
0
 62
     0
 10
189.307
 20
45.7976
 30
0.0
 11
188.506
 21
45.7976
 31
0.0
  0
LINE
  8
0
 62
     0
 10
188.506
 20
45.7976
 30
0.0
 11
188.506
 21
42.697
 31
0.0
  0
LINE
  8
0
 62
     0
 10
188.506
 20
42.697
 30
0.0
 11
189.307
 21
42.697
 31
0.0
  0
LINE
  8
0
 62
     0
 10
189.307
 20
42.697
 30
0.0
 11
189.307
 21
41.6966
 31
0.0
  0
LINE
  8
0
 62
     0
 10
189.307
 20
41.6966
 30
0.0
 11
203.306
 21
41.6966
 31
0.0
  0
LINE
  8
0
 62
     0
 10
203.306
 20
41.6966
 30
0.0
 11
203.306
 21
42.697
 31
0.0
  0
LINE
  8
0
 62
     0
 10
203.306
 20
42.697
 30
0.0
 11
204.107
 21
42.697
 31
0.0
  0
LINE
  8
0
 62
     0
 10
204.107
 20
42.697
 30
0.0
 11
204.107
 21
45.7976
 31
0.0
  0
LINE
  8
0
 62
     0
 10
204.107
 20
45.7976
 30
0.0
 11
203.306
 21
45.7976
 31
0.0
  0
LINE
  8
0
 62
     0
 10
203.306
 20
45.7976
 30
0.0
 11
203.306
 21
51.598
 31
0.0
  0
LINE
  8
0
 62
     0
 10
203.306
 20
51.598
 30
0.0
 11
204.107
 21
51.598
 31
0.0
  0
LINE
  8
0
 62
     0
 10
204.107
 20
51.598
 30
0.0
 11
204.107
 21
54.6971
 31
0.0
  0
LINE
  8
0
 62
     0
 10
204.107
 20
54.6971
 30
0.0
 11
203.306
 21
54.6971
 31
0.0
  0
LINE
  8
0
 62
     0
 10
203.306
 20
54.6971
 30
0.0
 11
203.306
 21
55.6976
 31
0.0
  0
LINE
  8
0
 62
     0
 10
203.306
 20
55.6976
 30
0.0
 11
189.307
 21
55.6976
 31
0.0
  0
LINE
  8
0
 62
     0
 10
170.257
 20
55.6976
 30
0.0
 11
170.257
 21
54.6971
 31
0.0
  0
LINE
  8
0
 62
     0
 10
170.257
 20
54.6971
 30
0.0
 11
169.456
 21
54.6971
 31
0.0
  0
LINE
  8
0
 62
     0
 10
169.456
 20
54.6971
 30
0.0
 11
169.456
 21
51.598
 31
0.0
  0
LINE
  8
0
 62
     0
 10
169.456
 20
51.598
 30
0.0
 11
170.257
 21
51.598
 31
0.0
  0
LINE
  8
0
 62
     0
 10
170.257
 20
51.598
 30
0.0
 11
170.257
 21
45.7976
 31
0.0
  0
LINE
  8
0
 62
     0
 10
170.257
 20
45.7976
 30
0.0
 11
169.456
 21
45.7976
 31
0.0
  0
LINE
  8
0
 62
     0
 10
169.456
 20
45.7976
 30
0.0
 11
169.456
 21
42.697
 31
0.0
  0
LINE
  8
0
 62
     0
 10
169.456
 20
42.697
 30
0.0
 11
170.257
 21
42.697
 31
0.0
  0
LINE
  8
0
 62
     0
 10
170.257
 20
42.697
 30
0.0
 11
170.257
 21
41.6966
 31
0.0
  0
LINE
  8
0
 62
     0
 10
170.257
 20
41.6966
 30
0.0
 11
184.256
 21
41.6966
 31
0.0
  0
LINE
  8
0
 62
     0
 10
184.256
 20
41.6966
 30
0.0
 11
184.256
 21
42.697
 31
0.0
  0
LINE
  8
0
 62
     0
 10
184.256
 20
42.697
 30
0.0
 11
185.057
 21
42.697
 31
0.0
  0
LINE
  8
0
 62
     0
 10
185.057
 20
42.697
 30
0.0
 11
185.057
 21
45.7976
 31
0.0
  0
LINE
  8
0
 62
     0
 10
185.057
 20
45.7976
 30
0.0
 11
184.256
 21
45.7976
 31
0.0
  0
LINE
  8
0
 62
     0
 10
184.256
 20
45.7976
 30
0.0
 11
184.256
 21
51.598
 31
0.0
  0
LINE
  8
0
 62
     0
 10
184.256
 20
51.598
 30
0.0
 11
185.057
 21
51.598
 31
0.0
  0
LINE
  8
0
 62
     0
 10
185.057
 20
51.598
 30
0.0
 11
185.057
 21
54.6971
 31
0.0
  0
LINE
  8
0
 62
     0
 10
185.057
 20
54.6971
 30
0.0
 11
184.256
 21
54.6971
 31
0.0
  0
LINE
  8
0
 62
     0
 10
184.256
 20
54.6971
 30
0.0
 11
184.256
 21
55.6976
 31
0.0
  0
LINE
  8
0
 62
     0
 10
184.256
 20
55.6976
 30
0.0
 11
170.257
 21
55.6976
 31
0.0
  0
LINE
  8
0
 62
     0
 10
151.207
 20
55.6976
 30
0.0
 11
151.207
 21
54.6971
 31
0.0
  0
LINE
  8
0
 62
     0
 10
151.207
 20
54.6971
 30
0.0
 11
150.406
 21
54.6971
 31
0.0
  0
LINE
  8
0
 62
     0
 10
150.406
 20
54.6971
 30
0.0
 11
150.406
 21
51.598
 31
0.0
  0
LINE
  8
0
 62
     0
 10
150.406
 20
51.598
 30
0.0
 11
151.207
 21
51.598
 31
0.0
  0
LINE
  8
0
 62
     0
 10
151.207
 20
51.598
 30
0.0
 11
151.207
 21
45.7976
 31
0.0
  0
LINE
  8
0
 62
     0
 10
151.207
 20
45.7976
 30
0.0
 11
150.406
 21
45.7976
 31
0.0
  0
LINE
  8
0
 62
     0
 10
150.406
 20
45.7976
 30
0.0
 11
150.406
 21
42.697
 31
0.0
  0
LINE
  8
0
 62
     0
 10
150.406
 20
42.697
 30
0.0
 11
151.207
 21
42.697
 31
0.0
  0
LINE
  8
0
 62
     0
 10
151.207
 20
42.697
 30
0.0
 11
151.207
 21
41.6966
 31
0.0
  0
LINE
  8
0
 62
     0
 10
151.207
 20
41.6966
 30
0.0
 11
165.206
 21
41.6966
 31
0.0
  0
LINE
  8
0
 62
     0
 10
165.206
 20
41.6966
 30
0.0
 11
165.206
 21
42.697
 31
0.0
  0
LINE
  8
0
 62
     0
 10
165.206
 20
42.697
 30
0.0
 11
166.007
 21
42.697
 31
0.0
  0
LINE
  8
0
 62
     0
 10
166.007
 20
42.697
 30
0.0
 11
166.007
 21
45.7976
 31
0.0
  0
LINE
  8
0
 62
     0
 10
166.007
 20
45.7976
 30
0.0
 11
165.206
 21
45.7976
 31
0.0
  0
LINE
  8
0
 62
     0
 10
165.206
 20
45.7976
 30
0.0
 11
165.206
 21
51.598
 31
0.0
  0
LINE
  8
0
 62
     0
 10
165.206
 20
51.598
 30
0.0
 11
166.007
 21
51.598
 31
0.0
  0
LINE
  8
0
 62
     0
 10
166.007
 20
51.598
 30
0.0
 11
166.007
 21
54.6971
 31
0.0
  0
LINE
  8
0
 62
     0
 10
166.007
 20
54.6971
 30
0.0
 11
165.206
 21
54.6971
 31
0.0
  0
LINE
  8
0
 62
     0
 10
165.206
 20
54.6971
 30
0.0
 11
165.206
 21
55.6976
 31
0.0
  0
LINE
  8
0
 62
     0
 10
165.206
 20
55.6976
 30
0.0
 11
151.207
 21
55.6976
 31
0.0
  0
LINE
  8
0
 62
     0
 10
132.157
 20
55.6976
 30
0.0
 11
132.157
 21
54.6971
 31
0.0
  0
LINE
  8
0
 62
     0
 10
132.157
 20
54.6971
 30
0.0
 11
131.356
 21
54.6971
 31
0.0
  0
LINE
  8
0
 62
     0
 10
131.356
 20
54.6971
 30
0.0
 11
131.356
 21
51.598
 31
0.0
  0
LINE
  8
0
 62
     0
 10
131.356
 20
51.598
 30
0.0
 11
132.157
 21
51.598
 31
0.0
  0
LINE
  8
0
 62
     0
 10
132.157
 20
51.598
 30
0.0
 11
132.157
 21
45.7976
 31
0.0
  0
LINE
  8
0
 62
     0
 10
132.157
 20
45.7976
 30
0.0
 11
131.356
 21
45.7976
 31
0.0
  0
LINE
  8
0
 62
     0
 10
131.356
 20
45.7976
 30
0.0
 11
131.356
 21
42.697
 31
0.0
  0
LINE
  8
0
 62
     0
 10
131.356
 20
42.697
 30
0.0
 11
132.157
 21
42.697
 31
0.0
  0
LINE
  8
0
 62
     0
 10
132.157
 20
42.697
 30
0.0
 11
132.157
 21
41.6966
 31
0.0
  0
LINE
  8
0
 62
     0
 10
132.157
 20
41.6966
 30
0.0
 11
146.156
 21
41.6966
 31
0.0
  0
LINE
  8
0
 62
     0
 10
146.156
 20
41.6966
 30
0.0
 11
146.156
 21
42.697
 31
0.0
  0
LINE
  8
0
 62
     0
 10
146.156
 20
42.697
 30
0.0
 11
146.957
 21
42.697
 31
0.0
  0
LINE
  8
0
 62
     0
 10
146.957
 20
42.697
 30
0.0
 11
146.957
 21
45.7976
 31
0.0
  0
LINE
  8
0
 62
     0
 10
146.957
 20
45.7976
 30
0.0
 11
146.156
 21
45.7976
 31
0.0
  0
LINE
  8
0
 62
     0
 10
146.156
 20
45.7976
 30
0.0
 11
146.156
 21
51.598
 31
0.0
  0
LINE
  8
0
 62
     0
 10
146.156
 20
51.598
 30
0.0
 11
146.957
 21
51.598
 31
0.0
  0
LINE
  8
0
 62
     0
 10
146.957
 20
51.598
 30
0.0
 11
146.957
 21
54.6971
 31
0.0
  0
LINE
  8
0
 62
     0
 10
146.957
 20
54.6971
 30
0.0
 11
146.156
 21
54.6971
 31
0.0
  0
LINE
  8
0
 62
     0
 10
146.156
 20
54.6971
 30
0.0
 11
146.156
 21
55.6976
 31
0.0
  0
LINE
  8
0
 62
     0
 10
146.156
 20
55.6976
 30
0.0
 11
132.157
 21
55.6976
 31
0.0
  0
LINE
  8
0
 62
     0
 10
113.107
 20
55.6976
 30
0.0
 11
113.107
 21
54.6971
 31
0.0
  0
LINE
  8
0
 62
     0
 10
113.107
 20
54.6971
 30
0.0
 11
112.306
 21
54.6971
 31
0.0
  0
LINE
  8
0
 62
     0
 10
112.306
 20
54.6971
 30
0.0
 11
112.306
 21
51.598
 31
0.0
  0
LINE
  8
0
 62
     0
 10
112.306
 20
51.598
 30
0.0
 11
113.107
 21
51.598
 31
0.0
  0
LINE
  8
0
 62
     0
 10
113.107
 20
51.598
 30
0.0
 11
113.107
 21
45.7976
 31
0.0
  0
LINE
  8
0
 62
     0
 10
113.107
 20
45.7976
 30
0.0
 11
112.306
 21
45.7976
 31
0.0
  0
LINE
  8
0
 62
     0
 10
112.306
 20
45.7976
 30
0.0
 11
112.306
 21
42.697
 31
0.0
  0
LINE
  8
0
 62
     0
 10
112.306
 20
42.697
 30
0.0
 11
113.107
 21
42.697
 31
0.0
  0
LINE
  8
0
 62
     0
 10
113.107
 20
42.697
 30
0.0
 11
113.107
 21
41.6966
 31
0.0
  0
LINE
  8
0
 62
     0
 10
113.107
 20
41.6966
 30
0.0
 11
127.106
 21
41.6966
 31
0.0
  0
LINE
  8
0
 62
     0
 10
127.106
 20
41.6966
 30
0.0
 11
127.106
 21
42.697
 31
0.0
  0
LINE
  8
0
 62
     0
 10
127.106
 20
42.697
 30
0.0
 11
127.907
 21
42.697
 31
0.0
  0
LINE
  8
0
 62
     0
 10
127.907
 20
42.697
 30
0.0
 11
127.907
 21
45.7976
 31
0.0
  0
LINE
  8
0
 62
     0
 10
127.907
 20
45.7976
 30
0.0
 11
127.106
 21
45.7976
 31
0.0
  0
LINE
  8
0
 62
     0
 10
127.106
 20
45.7976
 30
0.0
 11
127.106
 21
51.598
 31
0.0
  0
LINE
  8
0
 62
     0
 10
127.106
 20
51.598
 30
0.0
 11
127.907
 21
51.598
 31
0.0
  0
LINE
  8
0
 62
     0
 10
127.907
 20
51.598
 30
0.0
 11
127.907
 21
54.6971
 31
0.0
  0
LINE
  8
0
 62
     0
 10
127.907
 20
54.6971
 30
0.0
 11
127.106
 21
54.6971
 31
0.0
  0
LINE
  8
0
 62
     0
 10
127.106
 20
54.6971
 30
0.0
 11
127.106
 21
55.6976
 31
0.0
  0
LINE
  8
0
 62
     0
 10
127.106
 20
55.6976
 30
0.0
 11
113.107
 21
55.6976
 31
0.0
  0
LINE
  8
0
 62
     0
 10
94.0566
 20
55.6976
 30
0.0
 11
94.0566
 21
54.6971
 31
0.0
  0
LINE
  8
0
 62
     0
 10
94.0566
 20
54.6971
 30
0.0
 11
93.2561
 21
54.6971
 31
0.0
  0
LINE
  8
0
 62
     0
 10
93.2561
 20
54.6971
 30
0.0
 11
93.2561
 21
51.598
 31
0.0
  0
LINE
  8
0
 62
     0
 10
93.2561
 20
51.598
 30
0.0
 11
94.0566
 21
51.598
 31
0.0
  0
LINE
  8
0
 62
     0
 10
94.0566
 20
51.598
 30
0.0
 11
94.0566
 21
45.7976
 31
0.0
  0
LINE
  8
0
 62
     0
 10
94.0566
 20
45.7976
 30
0.0
 11
93.2561
 21
45.7976
 31
0.0
  0
LINE
  8
0
 62
     0
 10
93.2561
 20
45.7976
 30
0.0
 11
93.2561
 21
42.697
 31
0.0
  0
LINE
  8
0
 62
     0
 10
93.2561
 20
42.697
 30
0.0
 11
94.0566
 21
42.697
 31
0.0
  0
LINE
  8
0
 62
     0
 10
94.0566
 20
42.697
 30
0.0
 11
94.0566
 21
41.6966
 31
0.0
  0
LINE
  8
0
 62
     0
 10
94.0566
 20
41.6966
 30
0.0
 11
108.056
 21
41.6966
 31
0.0
  0
LINE
  8
0
 62
     0
 10
108.056
 20
41.6966
 30
0.0
 11
108.056
 21
42.697
 31
0.0
  0
LINE
  8
0
 62
     0
 10
108.056
 20
42.697
 30
0.0
 11
108.857
 21
42.697
 31
0.0
  0
LINE
  8
0
 62
     0
 10
108.857
 20
42.697
 30
0.0
 11
108.857
 21
45.7976
 31
0.0
  0
LINE
  8
0
 62
     0
 10
108.857
 20
45.7976
 30
0.0
 11
108.056
 21
45.7976
 31
0.0
  0
LINE
  8
0
 62
     0
 10
108.056
 20
45.7976
 30
0.0
 11
108.056
 21
51.598
 31
0.0
  0
LINE
  8
0
 62
     0
 10
108.056
 20
51.598
 30
0.0
 11
108.857
 21
51.598
 31
0.0
  0
LINE
  8
0
 62
     0
 10
108.857
 20
51.598
 30
0.0
 11
108.857
 21
54.6971
 31
0.0
  0
LINE
  8
0
 62
     0
 10
108.857
 20
54.6971
 30
0.0
 11
108.056
 21
54.6971
 31
0.0
  0
LINE
  8
0
 62
     0
 10
108.056
 20
54.6971
 30
0.0
 11
108.056
 21
55.6976
 31
0.0
  0
LINE
  8
0
 62
     0
 10
108.056
 20
55.6976
 30
0.0
 11
94.0566
 21
55.6976
 31
0.0
  0
LINE
  8
0
 62
     0
 10
75.0066
 20
55.6976
 30
0.0
 11
75.0066
 21
54.6971
 31
0.0
  0
LINE
  8
0
 62
     0
 10
75.0066
 20
54.6971
 30
0.0
 11
74.2061
 21
54.6971
 31
0.0
  0
LINE
  8
0
 62
     0
 10
74.2061
 20
54.6971
 30
0.0
 11
74.2061
 21
51.598
 31
0.0
  0
LINE
  8
0
 62
     0
 10
74.2061
 20
51.598
 30
0.0
 11
75.0066
 21
51.598
 31
0.0
  0
LINE
  8
0
 62
     0
 10
75.0066
 20
51.598
 30
0.0
 11
75.0066
 21
45.7976
 31
0.0
  0
LINE
  8
0
 62
     0
 10
75.0066
 20
45.7976
 30
0.0
 11
74.2061
 21
45.7976
 31
0.0
  0
LINE
  8
0
 62
     0
 10
74.2061
 20
45.7976
 30
0.0
 11
74.2061
 21
42.697
 31
0.0
  0
LINE
  8
0
 62
     0
 10
74.2061
 20
42.697
 30
0.0
 11
75.0066
 21
42.697
 31
0.0
  0
LINE
  8
0
 62
     0
 10
75.0066
 20
42.697
 30
0.0
 11
75.0066
 21
41.6966
 31
0.0
  0
LINE
  8
0
 62
     0
 10
75.0066
 20
41.6966
 30
0.0
 11
89.0062
 21
41.6966
 31
0.0
  0
LINE
  8
0
 62
     0
 10
89.0062
 20
41.6966
 30
0.0
 11
89.0062
 21
42.697
 31
0.0
  0
LINE
  8
0
 62
     0
 10
89.0062
 20
42.697
 30
0.0
 11
89.8066
 21
42.697
 31
0.0
  0
LINE
  8
0
 62
     0
 10
89.8066
 20
42.697
 30
0.0
 11
89.8066
 21
45.7976
 31
0.0
  0
LINE
  8
0
 62
     0
 10
89.8066
 20
45.7976
 30
0.0
 11
89.0062
 21
45.7976
 31
0.0
  0
LINE
  8
0
 62
     0
 10
89.0062
 20
45.7976
 30
0.0
 11
89.0062
 21
51.598
 31
0.0
  0
LINE
  8
0
 62
     0
 10
89.0062
 20
51.598
 30
0.0
 11
89.8066
 21
51.598
 31
0.0
  0
LINE
  8
0
 62
     0
 10
89.8066
 20
51.598
 30
0.0
 11
89.8066
 21
54.6971
 31
0.0
  0
LINE
  8
0
 62
     0
 10
89.8066
 20
54.6971
 30
0.0
 11
89.0062
 21
54.6971
 31
0.0
  0
LINE
  8
0
 62
     0
 10
89.0062
 20
54.6971
 30
0.0
 11
89.0062
 21
55.6976
 31
0.0
  0
LINE
  8
0
 62
     0
 10
89.0062
 20
55.6976
 30
0.0
 11
75.0066
 21
55.6976
 31
0.0
  0
LINE
  8
0
 62
     0
 10
55.9566
 20
55.6976
 30
0.0
 11
55.9566
 21
54.6971
 31
0.0
  0
LINE
  8
0
 62
     0
 10
55.9566
 20
54.6971
 30
0.0
 11
55.1561
 21
54.6971
 31
0.0
  0
LINE
  8
0
 62
     0
 10
55.1561
 20
54.6971
 30
0.0
 11
55.1561
 21
51.598
 31
0.0
  0
LINE
  8
0
 62
     0
 10
55.1561
 20
51.598
 30
0.0
 11
55.9566
 21
51.598
 31
0.0
  0
LINE
  8
0
 62
     0
 10
55.9566
 20
51.598
 30
0.0
 11
55.9566
 21
45.7976
 31
0.0
  0
LINE
  8
0
 62
     0
 10
55.9566
 20
45.7976
 30
0.0
 11
55.1561
 21
45.7976
 31
0.0
  0
LINE
  8
0
 62
     0
 10
55.1561
 20
45.7976
 30
0.0
 11
55.1561
 21
42.697
 31
0.0
  0
LINE
  8
0
 62
     0
 10
55.1561
 20
42.697
 30
0.0
 11
55.9566
 21
42.697
 31
0.0
  0
LINE
  8
0
 62
     0
 10
55.9566
 20
42.697
 30
0.0
 11
55.9566
 21
41.6966
 31
0.0
  0
LINE
  8
0
 62
     0
 10
55.9566
 20
41.6966
 30
0.0
 11
69.9562
 21
41.6966
 31
0.0
  0
LINE
  8
0
 62
     0
 10
69.9562
 20
41.6966
 30
0.0
 11
69.9562
 21
42.697
 31
0.0
  0
LINE
  8
0
 62
     0
 10
69.9562
 20
42.697
 30
0.0
 11
70.7566
 21
42.697
 31
0.0
  0
LINE
  8
0
 62
     0
 10
70.7566
 20
42.697
 30
0.0
 11
70.7566
 21
45.7976
 31
0.0
  0
LINE
  8
0
 62
     0
 10
70.7566
 20
45.7976
 30
0.0
 11
69.9562
 21
45.7976
 31
0.0
  0
LINE
  8
0
 62
     0
 10
69.9562
 20
45.7976
 30
0.0
 11
69.9562
 21
51.598
 31
0.0
  0
LINE
  8
0
 62
     0
 10
69.9562
 20
51.598
 30
0.0
 11
70.7566
 21
51.598
 31
0.0
  0
LINE
  8
0
 62
     0
 10
70.7566
 20
51.598
 30
0.0
 11
70.7566
 21
54.6971
 31
0.0
  0
LINE
  8
0
 62
     0
 10
70.7566
 20
54.6971
 30
0.0
 11
69.9562
 21
54.6971
 31
0.0
  0
LINE
  8
0
 62
     0
 10
69.9562
 20
54.6971
 30
0.0
 11
69.9562
 21
55.6976
 31
0.0
  0
LINE
  8
0
 62
     0
 10
69.9562
 20
55.6976
 30
0.0
 11
55.9566
 21
55.6976
 31
0.0
  0
LINE
  8
0
 62
     0
 10
32.1441
 20
55.6976
 30
0.0
 11
32.1441
 21
54.6971
 31
0.0
  0
LINE
  8
0
 62
     0
 10
32.1441
 20
54.6971
 30
0.0
 11
31.3449
 21
54.6971
 31
0.0
  0
LINE
  8
0
 62
     0
 10
31.3449
 20
54.6971
 30
0.0
 11
31.3449
 21
51.598
 31
0.0
  0
LINE
  8
0
 62
     0
 10
31.3449
 20
51.598
 30
0.0
 11
32.1441
 21
51.598
 31
0.0
  0
LINE
  8
0
 62
     0
 10
32.1441
 20
51.598
 30
0.0
 11
32.1441
 21
45.7976
 31
0.0
  0
LINE
  8
0
 62
     0
 10
32.1441
 20
45.7976
 30
0.0
 11
31.3449
 21
45.7976
 31
0.0
  0
LINE
  8
0
 62
     0
 10
31.3449
 20
45.7976
 30
0.0
 11
31.3449
 21
42.697
 31
0.0
  0
LINE
  8
0
 62
     0
 10
31.3449
 20
42.697
 30
0.0
 11
32.1441
 21
42.697
 31
0.0
  0
LINE
  8
0
 62
     0
 10
32.1441
 20
42.697
 30
0.0
 11
32.1441
 21
41.6966
 31
0.0
  0
LINE
  8
0
 62
     0
 10
32.1441
 20
41.6966
 30
0.0
 11
46.1451
 21
41.6966
 31
0.0
  0
LINE
  8
0
 62
     0
 10
46.1451
 20
41.6966
 30
0.0
 11
46.1451
 21
42.697
 31
0.0
  0
LINE
  8
0
 62
     0
 10
46.1451
 20
42.697
 30
0.0
 11
46.9427
 21
42.697
 31
0.0
  0
LINE
  8
0
 62
     0
 10
46.9427
 20
42.697
 30
0.0
 11
46.9427
 21
45.7976
 31
0.0
  0
LINE
  8
0
 62
     0
 10
46.9427
 20
45.7976
 30
0.0
 11
46.1451
 21
45.7976
 31
0.0
  0
LINE
  8
0
 62
     0
 10
46.1451
 20
45.7976
 30
0.0
 11
46.1451
 21
51.598
 31
0.0
  0
LINE
  8
0
 62
     0
 10
46.1451
 20
51.598
 30
0.0
 11
46.9427
 21
51.598
 31
0.0
  0
LINE
  8
0
 62
     0
 10
46.9427
 20
51.598
 30
0.0
 11
46.9427
 21
54.6971
 31
0.0
  0
LINE
  8
0
 62
     0
 10
46.9427
 20
54.6971
 30
0.0
 11
46.1451
 21
54.6971
 31
0.0
  0
LINE
  8
0
 62
     0
 10
46.1451
 20
54.6971
 30
0.0
 11
46.1451
 21
55.6976
 31
0.0
  0
LINE
  8
0
 62
     0
 10
46.1451
 20
55.6976
 30
0.0
 11
32.1441
 21
55.6976
 31
0.0
  0
LINE
  8
0
 62
     0
 10
265.507
 20
74.7476
 30
0.0
 11
265.507
 21
73.7471
 31
0.0
  0
LINE
  8
0
 62
     0
 10
265.507
 20
73.7471
 30
0.0
 11
264.706
 21
73.7471
 31
0.0
  0
LINE
  8
0
 62
     0
 10
264.706
 20
73.7471
 30
0.0
 11
264.706
 21
70.6466
 31
0.0
  0
LINE
  8
0
 62
     0
 10
264.706
 20
70.6466
 30
0.0
 11
265.507
 21
70.6466
 31
0.0
  0
LINE
  8
0
 62
     0
 10
265.507
 20
70.6466
 30
0.0
 11
265.507
 21
64.8476
 31
0.0
  0
LINE
  8
0
 62
     0
 10
265.507
 20
64.8476
 30
0.0
 11
264.706
 21
64.8476
 31
0.0
  0
LINE
  8
0
 62
     0
 10
264.706
 20
64.8476
 30
0.0
 11
264.706
 21
61.747
 31
0.0
  0
LINE
  8
0
 62
     0
 10
264.706
 20
61.747
 30
0.0
 11
265.507
 21
61.747
 31
0.0
  0
LINE
  8
0
 62
     0
 10
265.507
 20
61.747
 30
0.0
 11
265.507
 21
60.7466
 31
0.0
  0
LINE
  8
0
 62
     0
 10
265.507
 20
60.7466
 30
0.0
 11
279.506
 21
60.7466
 31
0.0
  0
LINE
  8
0
 62
     0
 10
279.506
 20
60.7466
 30
0.0
 11
279.506
 21
61.747
 31
0.0
  0
LINE
  8
0
 62
     0
 10
279.506
 20
61.747
 30
0.0
 11
280.307
 21
61.747
 31
0.0
  0
LINE
  8
0
 62
     0
 10
280.307
 20
61.747
 30
0.0
 11
280.307
 21
64.8476
 31
0.0
  0
LINE
  8
0
 62
     0
 10
280.307
 20
64.8476
 30
0.0
 11
279.506
 21
64.8476
 31
0.0
  0
LINE
  8
0
 62
     0
 10
279.506
 20
64.8476
 30
0.0
 11
279.506
 21
70.6466
 31
0.0
  0
LINE
  8
0
 62
     0
 10
279.506
 20
70.6466
 30
0.0
 11
280.307
 21
70.6466
 31
0.0
  0
LINE
  8
0
 62
     0
 10
280.307
 20
70.6466
 30
0.0
 11
280.307
 21
73.7471
 31
0.0
  0
LINE
  8
0
 62
     0
 10
280.307
 20
73.7471
 30
0.0
 11
279.506
 21
73.7471
 31
0.0
  0
LINE
  8
0
 62
     0
 10
279.506
 20
73.7471
 30
0.0
 11
279.506
 21
74.7476
 31
0.0
  0
LINE
  8
0
 62
     0
 10
279.506
 20
74.7476
 30
0.0
 11
265.507
 21
74.7476
 31
0.0
  0
LINE
  8
0
 62
     0
 10
241.694
 20
74.7476
 30
0.0
 11
241.694
 21
73.7471
 31
0.0
  0
LINE
  8
0
 62
     0
 10
241.694
 20
73.7471
 30
0.0
 11
240.895
 21
73.7471
 31
0.0
  0
LINE
  8
0
 62
     0
 10
240.895
 20
73.7471
 30
0.0
 11
240.895
 21
70.6466
 31
0.0
  0
LINE
  8
0
 62
     0
 10
240.895
 20
70.6466
 30
0.0
 11
241.694
 21
70.6466
 31
0.0
  0
LINE
  8
0
 62
     0
 10
241.694
 20
70.6466
 30
0.0
 11
241.694
 21
64.8476
 31
0.0
  0
LINE
  8
0
 62
     0
 10
241.694
 20
64.8476
 30
0.0
 11
240.895
 21
64.8476
 31
0.0
  0
LINE
  8
0
 62
     0
 10
240.895
 20
64.8476
 30
0.0
 11
240.895
 21
61.747
 31
0.0
  0
LINE
  8
0
 62
     0
 10
240.895
 20
61.747
 30
0.0
 11
241.694
 21
61.747
 31
0.0
  0
LINE
  8
0
 62
     0
 10
241.694
 20
61.747
 30
0.0
 11
241.694
 21
60.7466
 31
0.0
  0
LINE
  8
0
 62
     0
 10
241.694
 20
60.7466
 30
0.0
 11
255.695
 21
60.7466
 31
0.0
  0
LINE
  8
0
 62
     0
 10
255.695
 20
60.7466
 30
0.0
 11
255.695
 21
61.747
 31
0.0
  0
LINE
  8
0
 62
     0
 10
255.695
 20
61.747
 30
0.0
 11
256.493
 21
61.747
 31
0.0
  0
LINE
  8
0
 62
     0
 10
256.493
 20
61.747
 30
0.0
 11
256.493
 21
64.8476
 31
0.0
  0
LINE
  8
0
 62
     0
 10
256.493
 20
64.8476
 30
0.0
 11
255.695
 21
64.8476
 31
0.0
  0
LINE
  8
0
 62
     0
 10
255.695
 20
64.8476
 30
0.0
 11
255.695
 21
70.6466
 31
0.0
  0
LINE
  8
0
 62
     0
 10
255.695
 20
70.6466
 30
0.0
 11
256.493
 21
70.6466
 31
0.0
  0
LINE
  8
0
 62
     0
 10
256.493
 20
70.6466
 30
0.0
 11
256.493
 21
73.7471
 31
0.0
  0
LINE
  8
0
 62
     0
 10
256.493
 20
73.7471
 30
0.0
 11
255.695
 21
73.7471
 31
0.0
  0
LINE
  8
0
 62
     0
 10
255.695
 20
73.7471
 30
0.0
 11
255.695
 21
74.7476
 31
0.0
  0
LINE
  8
0
 62
     0
 10
255.695
 20
74.7476
 30
0.0
 11
241.694
 21
74.7476
 31
0.0
  0
LINE
  8
0
 62
     0
 10
217.882
 20
74.7476
 30
0.0
 11
217.882
 21
73.7471
 31
0.0
  0
LINE
  8
0
 62
     0
 10
217.882
 20
73.7471
 30
0.0
 11
217.081
 21
73.7471
 31
0.0
  0
LINE
  8
0
 62
     0
 10
217.081
 20
73.7471
 30
0.0
 11
217.081
 21
70.6466
 31
0.0
  0
LINE
  8
0
 62
     0
 10
217.081
 20
70.6466
 30
0.0
 11
217.882
 21
70.6466
 31
0.0
  0
LINE
  8
0
 62
     0
 10
217.882
 20
70.6466
 30
0.0
 11
217.882
 21
64.8476
 31
0.0
  0
LINE
  8
0
 62
     0
 10
217.882
 20
64.8476
 30
0.0
 11
217.081
 21
64.8476
 31
0.0
  0
LINE
  8
0
 62
     0
 10
217.081
 20
64.8476
 30
0.0
 11
217.081
 21
61.747
 31
0.0
  0
LINE
  8
0
 62
     0
 10
217.081
 20
61.747
 30
0.0
 11
217.882
 21
61.747
 31
0.0
  0
LINE
  8
0
 62
     0
 10
217.882
 20
61.747
 30
0.0
 11
217.882
 21
60.7466
 31
0.0
  0
LINE
  8
0
 62
     0
 10
217.882
 20
60.7466
 30
0.0
 11
231.881
 21
60.7466
 31
0.0
  0
LINE
  8
0
 62
     0
 10
231.881
 20
60.7466
 30
0.0
 11
231.881
 21
61.747
 31
0.0
  0
LINE
  8
0
 62
     0
 10
231.881
 20
61.747
 30
0.0
 11
232.682
 21
61.747
 31
0.0
  0
LINE
  8
0
 62
     0
 10
232.682
 20
61.747
 30
0.0
 11
232.682
 21
64.8476
 31
0.0
  0
LINE
  8
0
 62
     0
 10
232.682
 20
64.8476
 30
0.0
 11
231.881
 21
64.8476
 31
0.0
  0
LINE
  8
0
 62
     0
 10
231.881
 20
64.8476
 30
0.0
 11
231.881
 21
70.6466
 31
0.0
  0
LINE
  8
0
 62
     0
 10
231.881
 20
70.6466
 30
0.0
 11
232.682
 21
70.6466
 31
0.0
  0
LINE
  8
0
 62
     0
 10
232.682
 20
70.6466
 30
0.0
 11
232.682
 21
73.7471
 31
0.0
  0
LINE
  8
0
 62
     0
 10
232.682
 20
73.7471
 30
0.0
 11
231.881
 21
73.7471
 31
0.0
  0
LINE
  8
0
 62
     0
 10
231.881
 20
73.7471
 30
0.0
 11
231.881
 21
74.7476
 31
0.0
  0
LINE
  8
0
 62
     0
 10
231.881
 20
74.7476
 30
0.0
 11
217.882
 21
74.7476
 31
0.0
  0
LINE
  8
0
 62
     0
 10
198.832
 20
74.7476
 30
0.0
 11
198.832
 21
73.7471
 31
0.0
  0
LINE
  8
0
 62
     0
 10
198.832
 20
73.7471
 30
0.0
 11
198.031
 21
73.7471
 31
0.0
  0
LINE
  8
0
 62
     0
 10
198.031
 20
73.7471
 30
0.0
 11
198.031
 21
70.6466
 31
0.0
  0
LINE
  8
0
 62
     0
 10
198.031
 20
70.6466
 30
0.0
 11
198.832
 21
70.6466
 31
0.0
  0
LINE
  8
0
 62
     0
 10
198.832
 20
70.6466
 30
0.0
 11
198.832
 21
64.8476
 31
0.0
  0
LINE
  8
0
 62
     0
 10
198.832
 20
64.8476
 30
0.0
 11
198.031
 21
64.8476
 31
0.0
  0
LINE
  8
0
 62
     0
 10
198.031
 20
64.8476
 30
0.0
 11
198.031
 21
61.747
 31
0.0
  0
LINE
  8
0
 62
     0
 10
198.031
 20
61.747
 30
0.0
 11
198.832
 21
61.747
 31
0.0
  0
LINE
  8
0
 62
     0
 10
198.832
 20
61.747
 30
0.0
 11
198.832
 21
60.7466
 31
0.0
  0
LINE
  8
0
 62
     0
 10
198.832
 20
60.7466
 30
0.0
 11
212.831
 21
60.7466
 31
0.0
  0
LINE
  8
0
 62
     0
 10
212.831
 20
60.7466
 30
0.0
 11
212.831
 21
61.747
 31
0.0
  0
LINE
  8
0
 62
     0
 10
212.831
 20
61.747
 30
0.0
 11
213.632
 21
61.747
 31
0.0
  0
LINE
  8
0
 62
     0
 10
213.632
 20
61.747
 30
0.0
 11
213.632
 21
64.8476
 31
0.0
  0
LINE
  8
0
 62
     0
 10
213.632
 20
64.8476
 30
0.0
 11
212.831
 21
64.8476
 31
0.0
  0
LINE
  8
0
 62
     0
 10
212.831
 20
64.8476
 30
0.0
 11
212.831
 21
70.6466
 31
0.0
  0
LINE
  8
0
 62
     0
 10
212.831
 20
70.6466
 30
0.0
 11
213.632
 21
70.6466
 31
0.0
  0
LINE
  8
0
 62
     0
 10
213.632
 20
70.6466
 30
0.0
 11
213.632
 21
73.7471
 31
0.0
  0
LINE
  8
0
 62
     0
 10
213.632
 20
73.7471
 30
0.0
 11
212.831
 21
73.7471
 31
0.0
  0
LINE
  8
0
 62
     0
 10
212.831
 20
73.7471
 30
0.0
 11
212.831
 21
74.7476
 31
0.0
  0
LINE
  8
0
 62
     0
 10
212.831
 20
74.7476
 30
0.0
 11
198.832
 21
74.7476
 31
0.0
  0
LINE
  8
0
 62
     0
 10
179.782
 20
74.7476
 30
0.0
 11
179.782
 21
73.7471
 31
0.0
  0
LINE
  8
0
 62
     0
 10
179.782
 20
73.7471
 30
0.0
 11
178.981
 21
73.7471
 31
0.0
  0
LINE
  8
0
 62
     0
 10
178.981
 20
73.7471
 30
0.0
 11
178.981
 21
70.6466
 31
0.0
  0
LINE
  8
0
 62
     0
 10
178.981
 20
70.6466
 30
0.0
 11
179.782
 21
70.6466
 31
0.0
  0
LINE
  8
0
 62
     0
 10
179.782
 20
70.6466
 30
0.0
 11
179.782
 21
64.8476
 31
0.0
  0
LINE
  8
0
 62
     0
 10
179.782
 20
64.8476
 30
0.0
 11
178.981
 21
64.8476
 31
0.0
  0
LINE
  8
0
 62
     0
 10
178.981
 20
64.8476
 30
0.0
 11
178.981
 21
61.747
 31
0.0
  0
LINE
  8
0
 62
     0
 10
178.981
 20
61.747
 30
0.0
 11
179.782
 21
61.747
 31
0.0
  0
LINE
  8
0
 62
     0
 10
179.782
 20
61.747
 30
0.0
 11
179.782
 21
60.7466
 31
0.0
  0
LINE
  8
0
 62
     0
 10
179.782
 20
60.7466
 30
0.0
 11
193.781
 21
60.7466
 31
0.0
  0
LINE
  8
0
 62
     0
 10
193.781
 20
60.7466
 30
0.0
 11
193.781
 21
61.747
 31
0.0
  0
LINE
  8
0
 62
     0
 10
193.781
 20
61.747
 30
0.0
 11
194.582
 21
61.747
 31
0.0
  0
LINE
  8
0
 62
     0
 10
194.582
 20
61.747
 30
0.0
 11
194.582
 21
64.8476
 31
0.0
  0
LINE
  8
0
 62
     0
 10
194.582
 20
64.8476
 30
0.0
 11
193.781
 21
64.8476
 31
0.0
  0
LINE
  8
0
 62
     0
 10
193.781
 20
64.8476
 30
0.0
 11
193.781
 21
70.6466
 31
0.0
  0
LINE
  8
0
 62
     0
 10
193.781
 20
70.6466
 30
0.0
 11
194.582
 21
70.6466
 31
0.0
  0
LINE
  8
0
 62
     0
 10
194.582
 20
70.6466
 30
0.0
 11
194.582
 21
73.7471
 31
0.0
  0
LINE
  8
0
 62
     0
 10
194.582
 20
73.7471
 30
0.0
 11
193.781
 21
73.7471
 31
0.0
  0
LINE
  8
0
 62
     0
 10
193.781
 20
73.7471
 30
0.0
 11
193.781
 21
74.7476
 31
0.0
  0
LINE
  8
0
 62
     0
 10
193.781
 20
74.7476
 30
0.0
 11
179.782
 21
74.7476
 31
0.0
  0
LINE
  8
0
 62
     0
 10
160.732
 20
74.7476
 30
0.0
 11
160.732
 21
73.7471
 31
0.0
  0
LINE
  8
0
 62
     0
 10
160.732
 20
73.7471
 30
0.0
 11
159.931
 21
73.7471
 31
0.0
  0
LINE
  8
0
 62
     0
 10
159.931
 20
73.7471
 30
0.0
 11
159.931
 21
70.6466
 31
0.0
  0
LINE
  8
0
 62
     0
 10
159.931
 20
70.6466
 30
0.0
 11
160.732
 21
70.6466
 31
0.0
  0
LINE
  8
0
 62
     0
 10
160.732
 20
70.6466
 30
0.0
 11
160.732
 21
64.8476
 31
0.0
  0
LINE
  8
0
 62
     0
 10
160.732
 20
64.8476
 30
0.0
 11
159.931
 21
64.8476
 31
0.0
  0
LINE
  8
0
 62
     0
 10
159.931
 20
64.8476
 30
0.0
 11
159.931
 21
61.747
 31
0.0
  0
LINE
  8
0
 62
     0
 10
159.931
 20
61.747
 30
0.0
 11
160.732
 21
61.747
 31
0.0
  0
LINE
  8
0
 62
     0
 10
160.732
 20
61.747
 30
0.0
 11
160.732
 21
60.7466
 31
0.0
  0
LINE
  8
0
 62
     0
 10
160.732
 20
60.7466
 30
0.0
 11
174.731
 21
60.7466
 31
0.0
  0
LINE
  8
0
 62
     0
 10
174.731
 20
60.7466
 30
0.0
 11
174.731
 21
61.747
 31
0.0
  0
LINE
  8
0
 62
     0
 10
174.731
 20
61.747
 30
0.0
 11
175.532
 21
61.747
 31
0.0
  0
LINE
  8
0
 62
     0
 10
175.532
 20
61.747
 30
0.0
 11
175.532
 21
64.8476
 31
0.0
  0
LINE
  8
0
 62
     0
 10
175.532
 20
64.8476
 30
0.0
 11
174.731
 21
64.8476
 31
0.0
  0
LINE
  8
0
 62
     0
 10
174.731
 20
64.8476
 30
0.0
 11
174.731
 21
70.6466
 31
0.0
  0
LINE
  8
0
 62
     0
 10
174.731
 20
70.6466
 30
0.0
 11
175.532
 21
70.6466
 31
0.0
  0
LINE
  8
0
 62
     0
 10
175.532
 20
70.6466
 30
0.0
 11
175.532
 21
73.7471
 31
0.0
  0
LINE
  8
0
 62
     0
 10
175.532
 20
73.7471
 30
0.0
 11
174.731
 21
73.7471
 31
0.0
  0
LINE
  8
0
 62
     0
 10
174.731
 20
73.7471
 30
0.0
 11
174.731
 21
74.7476
 31
0.0
  0
LINE
  8
0
 62
     0
 10
174.731
 20
74.7476
 30
0.0
 11
160.732
 21
74.7476
 31
0.0
  0
LINE
  8
0
 62
     0
 10
141.682
 20
74.7476
 30
0.0
 11
141.682
 21
73.7471
 31
0.0
  0
LINE
  8
0
 62
     0
 10
141.682
 20
73.7471
 30
0.0
 11
140.881
 21
73.7471
 31
0.0
  0
LINE
  8
0
 62
     0
 10
140.881
 20
73.7471
 30
0.0
 11
140.881
 21
70.6466
 31
0.0
  0
LINE
  8
0
 62
     0
 10
140.881
 20
70.6466
 30
0.0
 11
141.682
 21
70.6466
 31
0.0
  0
LINE
  8
0
 62
     0
 10
141.682
 20
70.6466
 30
0.0
 11
141.682
 21
64.8476
 31
0.0
  0
LINE
  8
0
 62
     0
 10
141.682
 20
64.8476
 30
0.0
 11
140.881
 21
64.8476
 31
0.0
  0
LINE
  8
0
 62
     0
 10
140.881
 20
64.8476
 30
0.0
 11
140.881
 21
61.747
 31
0.0
  0
LINE
  8
0
 62
     0
 10
140.881
 20
61.747
 30
0.0
 11
141.682
 21
61.747
 31
0.0
  0
LINE
  8
0
 62
     0
 10
141.682
 20
61.747
 30
0.0
 11
141.682
 21
60.7466
 31
0.0
  0
LINE
  8
0
 62
     0
 10
141.682
 20
60.7466
 30
0.0
 11
155.681
 21
60.7466
 31
0.0
  0
LINE
  8
0
 62
     0
 10
155.681
 20
60.7466
 30
0.0
 11
155.681
 21
61.747
 31
0.0
  0
LINE
  8
0
 62
     0
 10
155.681
 20
61.747
 30
0.0
 11
156.482
 21
61.747
 31
0.0
  0
LINE
  8
0
 62
     0
 10
156.482
 20
61.747
 30
0.0
 11
156.482
 21
64.8476
 31
0.0
  0
LINE
  8
0
 62
     0
 10
156.482
 20
64.8476
 30
0.0
 11
155.681
 21
64.8476
 31
0.0
  0
LINE
  8
0
 62
     0
 10
155.681
 20
64.8476
 30
0.0
 11
155.681
 21
70.6466
 31
0.0
  0
LINE
  8
0
 62
     0
 10
155.681
 20
70.6466
 30
0.0
 11
156.482
 21
70.6466
 31
0.0
  0
LINE
  8
0
 62
     0
 10
156.482
 20
70.6466
 30
0.0
 11
156.482
 21
73.7471
 31
0.0
  0
LINE
  8
0
 62
     0
 10
156.482
 20
73.7471
 30
0.0
 11
155.681
 21
73.7471
 31
0.0
  0
LINE
  8
0
 62
     0
 10
155.681
 20
73.7471
 30
0.0
 11
155.681
 21
74.7476
 31
0.0
  0
LINE
  8
0
 62
     0
 10
155.681
 20
74.7476
 30
0.0
 11
141.682
 21
74.7476
 31
0.0
  0
LINE
  8
0
 62
     0
 10
122.632
 20
74.7476
 30
0.0
 11
122.632
 21
73.7471
 31
0.0
  0
LINE
  8
0
 62
     0
 10
122.632
 20
73.7471
 30
0.0
 11
121.831
 21
73.7471
 31
0.0
  0
LINE
  8
0
 62
     0
 10
121.831
 20
73.7471
 30
0.0
 11
121.831
 21
70.6466
 31
0.0
  0
LINE
  8
0
 62
     0
 10
121.831
 20
70.6466
 30
0.0
 11
122.632
 21
70.6466
 31
0.0
  0
LINE
  8
0
 62
     0
 10
122.632
 20
70.6466
 30
0.0
 11
122.632
 21
64.8476
 31
0.0
  0
LINE
  8
0
 62
     0
 10
122.632
 20
64.8476
 30
0.0
 11
121.831
 21
64.8476
 31
0.0
  0
LINE
  8
0
 62
     0
 10
121.831
 20
64.8476
 30
0.0
 11
121.831
 21
61.747
 31
0.0
  0
LINE
  8
0
 62
     0
 10
121.831
 20
61.747
 30
0.0
 11
122.632
 21
61.747
 31
0.0
  0
LINE
  8
0
 62
     0
 10
122.632
 20
61.747
 30
0.0
 11
122.632
 21
60.7466
 31
0.0
  0
LINE
  8
0
 62
     0
 10
122.632
 20
60.7466
 30
0.0
 11
136.631
 21
60.7466
 31
0.0
  0
LINE
  8
0
 62
     0
 10
136.631
 20
60.7466
 30
0.0
 11
136.631
 21
61.747
 31
0.0
  0
LINE
  8
0
 62
     0
 10
136.631
 20
61.747
 30
0.0
 11
137.432
 21
61.747
 31
0.0
  0
LINE
  8
0
 62
     0
 10
137.432
 20
61.747
 30
0.0
 11
137.432
 21
64.8476
 31
0.0
  0
LINE
  8
0
 62
     0
 10
137.432
 20
64.8476
 30
0.0
 11
136.631
 21
64.8476
 31
0.0
  0
LINE
  8
0
 62
     0
 10
136.631
 20
64.8476
 30
0.0
 11
136.631
 21
70.6466
 31
0.0
  0
LINE
  8
0
 62
     0
 10
136.631
 20
70.6466
 30
0.0
 11
137.432
 21
70.6466
 31
0.0
  0
LINE
  8
0
 62
     0
 10
137.432
 20
70.6466
 30
0.0
 11
137.432
 21
73.7471
 31
0.0
  0
LINE
  8
0
 62
     0
 10
137.432
 20
73.7471
 30
0.0
 11
136.631
 21
73.7471
 31
0.0
  0
LINE
  8
0
 62
     0
 10
136.631
 20
73.7471
 30
0.0
 11
136.631
 21
74.7476
 31
0.0
  0
LINE
  8
0
 62
     0
 10
136.631
 20
74.7476
 30
0.0
 11
122.632
 21
74.7476
 31
0.0
  0
LINE
  8
0
 62
     0
 10
103.582
 20
74.7476
 30
0.0
 11
103.582
 21
73.7471
 31
0.0
  0
LINE
  8
0
 62
     0
 10
103.582
 20
73.7471
 30
0.0
 11
102.781
 21
73.7471
 31
0.0
  0
LINE
  8
0
 62
     0
 10
102.781
 20
73.7471
 30
0.0
 11
102.781
 21
70.6466
 31
0.0
  0
LINE
  8
0
 62
     0
 10
102.781
 20
70.6466
 30
0.0
 11
103.582
 21
70.6466
 31
0.0
  0
LINE
  8
0
 62
     0
 10
103.582
 20
70.6466
 30
0.0
 11
103.582
 21
64.8476
 31
0.0
  0
LINE
  8
0
 62
     0
 10
103.582
 20
64.8476
 30
0.0
 11
102.781
 21
64.8476
 31
0.0
  0
LINE
  8
0
 62
     0
 10
102.781
 20
64.8476
 30
0.0
 11
102.781
 21
61.747
 31
0.0
  0
LINE
  8
0
 62
     0
 10
102.781
 20
61.747
 30
0.0
 11
103.582
 21
61.747
 31
0.0
  0
LINE
  8
0
 62
     0
 10
103.582
 20
61.747
 30
0.0
 11
103.582
 21
60.7466
 31
0.0
  0
LINE
  8
0
 62
     0
 10
103.582
 20
60.7466
 30
0.0
 11
117.581
 21
60.7466
 31
0.0
  0
LINE
  8
0
 62
     0
 10
117.581
 20
60.7466
 30
0.0
 11
117.581
 21
61.747
 31
0.0
  0
LINE
  8
0
 62
     0
 10
117.581
 20
61.747
 30
0.0
 11
118.382
 21
61.747
 31
0.0
  0
LINE
  8
0
 62
     0
 10
118.382
 20
61.747
 30
0.0
 11
118.382
 21
64.8476
 31
0.0
  0
LINE
  8
0
 62
     0
 10
118.382
 20
64.8476
 30
0.0
 11
117.581
 21
64.8476
 31
0.0
  0
LINE
  8
0
 62
     0
 10
117.581
 20
64.8476
 30
0.0
 11
117.581
 21
70.6466
 31
0.0
  0
LINE
  8
0
 62
     0
 10
117.581
 20
70.6466
 30
0.0
 11
118.382
 21
70.6466
 31
0.0
  0
LINE
  8
0
 62
     0
 10
118.382
 20
70.6466
 30
0.0
 11
118.382
 21
73.7471
 31
0.0
  0
LINE
  8
0
 62
     0
 10
118.382
 20
73.7471
 30
0.0
 11
117.581
 21
73.7471
 31
0.0
  0
LINE
  8
0
 62
     0
 10
117.581
 20
73.7471
 30
0.0
 11
117.581
 21
74.7476
 31
0.0
  0
LINE
  8
0
 62
     0
 10
117.581
 20
74.7476
 30
0.0
 11
103.582
 21
74.7476
 31
0.0
  0
LINE
  8
0
 62
     0
 10
84.5316
 20
74.7476
 30
0.0
 11
84.5316
 21
73.7471
 31
0.0
  0
LINE
  8
0
 62
     0
 10
84.5316
 20
73.7471
 30
0.0
 11
83.7311
 21
73.7471
 31
0.0
  0
LINE
  8
0
 62
     0
 10
83.7311
 20
73.7471
 30
0.0
 11
83.7311
 21
70.6466
 31
0.0
  0
LINE
  8
0
 62
     0
 10
83.7311
 20
70.6466
 30
0.0
 11
84.5316
 21
70.6466
 31
0.0
  0
LINE
  8
0
 62
     0
 10
84.5316
 20
70.6466
 30
0.0
 11
84.5316
 21
64.8476
 31
0.0
  0
LINE
  8
0
 62
     0
 10
84.5316
 20
64.8476
 30
0.0
 11
83.7311
 21
64.8476
 31
0.0
  0
LINE
  8
0
 62
     0
 10
83.7311
 20
64.8476
 30
0.0
 11
83.7311
 21
61.747
 31
0.0
  0
LINE
  8
0
 62
     0
 10
83.7311
 20
61.747
 30
0.0
 11
84.5316
 21
61.747
 31
0.0
  0
LINE
  8
0
 62
     0
 10
84.5316
 20
61.747
 30
0.0
 11
84.5316
 21
60.7466
 31
0.0
  0
LINE
  8
0
 62
     0
 10
84.5316
 20
60.7466
 30
0.0
 11
98.5312
 21
60.7466
 31
0.0
  0
LINE
  8
0
 62
     0
 10
98.5312
 20
60.7466
 30
0.0
 11
98.5312
 21
61.747
 31
0.0
  0
LINE
  8
0
 62
     0
 10
98.5312
 20
61.747
 30
0.0
 11
99.3316
 21
61.747
 31
0.0
  0
LINE
  8
0
 62
     0
 10
99.3316
 20
61.747
 30
0.0
 11
99.3316
 21
64.8476
 31
0.0
  0
LINE
  8
0
 62
     0
 10
99.3316
 20
64.8476
 30
0.0
 11
98.5312
 21
64.8476
 31
0.0
  0
LINE
  8
0
 62
     0
 10
98.5312
 20
64.8476
 30
0.0
 11
98.5312
 21
70.6466
 31
0.0
  0
LINE
  8
0
 62
     0
 10
98.5312
 20
70.6466
 30
0.0
 11
99.3316
 21
70.6466
 31
0.0
  0
LINE
  8
0
 62
     0
 10
99.3316
 20
70.6466
 30
0.0
 11
99.3316
 21
73.7471
 31
0.0
  0
LINE
  8
0
 62
     0
 10
99.3316
 20
73.7471
 30
0.0
 11
98.5312
 21
73.7471
 31
0.0
  0
LINE
  8
0
 62
     0
 10
98.5312
 20
73.7471
 30
0.0
 11
98.5312
 21
74.7476
 31
0.0
  0
LINE
  8
0
 62
     0
 10
98.5312
 20
74.7476
 30
0.0
 11
84.5316
 21
74.7476
 31
0.0
  0
LINE
  8
0
 62
     0
 10
65.4816
 20
74.7476
 30
0.0
 11
65.4816
 21
73.7471
 31
0.0
  0
LINE
  8
0
 62
     0
 10
65.4816
 20
73.7471
 30
0.0
 11
64.6811
 21
73.7471
 31
0.0
  0
LINE
  8
0
 62
     0
 10
64.6811
 20
73.7471
 30
0.0
 11
64.6811
 21
70.6466
 31
0.0
  0
LINE
  8
0
 62
     0
 10
64.6811
 20
70.6466
 30
0.0
 11
65.4816
 21
70.6466
 31
0.0
  0
LINE
  8
0
 62
     0
 10
65.4816
 20
70.6466
 30
0.0
 11
65.4816
 21
64.8476
 31
0.0
  0
LINE
  8
0
 62
     0
 10
65.4816
 20
64.8476
 30
0.0
 11
64.6811
 21
64.8476
 31
0.0
  0
LINE
  8
0
 62
     0
 10
64.6811
 20
64.8476
 30
0.0
 11
64.6811
 21
61.747
 31
0.0
  0
LINE
  8
0
 62
     0
 10
64.6811
 20
61.747
 30
0.0
 11
65.4816
 21
61.747
 31
0.0
  0
LINE
  8
0
 62
     0
 10
65.4816
 20
61.747
 30
0.0
 11
65.4816
 21
60.7466
 31
0.0
  0
LINE
  8
0
 62
     0
 10
65.4816
 20
60.7466
 30
0.0
 11
79.4812
 21
60.7466
 31
0.0
  0
LINE
  8
0
 62
     0
 10
79.4812
 20
60.7466
 30
0.0
 11
79.4812
 21
61.747
 31
0.0
  0
LINE
  8
0
 62
     0
 10
79.4812
 20
61.747
 30
0.0
 11
80.2816
 21
61.747
 31
0.0
  0
LINE
  8
0
 62
     0
 10
80.2816
 20
61.747
 30
0.0
 11
80.2816
 21
64.8476
 31
0.0
  0
LINE
  8
0
 62
     0
 10
80.2816
 20
64.8476
 30
0.0
 11
79.4812
 21
64.8476
 31
0.0
  0
LINE
  8
0
 62
     0
 10
79.4812
 20
64.8476
 30
0.0
 11
79.4812
 21
70.6466
 31
0.0
  0
LINE
  8
0
 62
     0
 10
79.4812
 20
70.6466
 30
0.0
 11
80.2816
 21
70.6466
 31
0.0
  0
LINE
  8
0
 62
     0
 10
80.2816
 20
70.6466
 30
0.0
 11
80.2816
 21
73.7471
 31
0.0
  0
LINE
  8
0
 62
     0
 10
80.2816
 20
73.7471
 30
0.0
 11
79.4812
 21
73.7471
 31
0.0
  0
LINE
  8
0
 62
     0
 10
79.4812
 20
73.7471
 30
0.0
 11
79.4812
 21
74.7476
 31
0.0
  0
LINE
  8
0
 62
     0
 10
79.4812
 20
74.7476
 30
0.0
 11
65.4816
 21
74.7476
 31
0.0
  0
LINE
  8
0
 62
     0
 10
46.4316
 20
74.7476
 30
0.0
 11
46.4316
 21
73.7471
 31
0.0
  0
LINE
  8
0
 62
     0
 10
46.4316
 20
73.7471
 30
0.0
 11
45.6311
 21
73.7471
 31
0.0
  0
LINE
  8
0
 62
     0
 10
45.6311
 20
73.7471
 30
0.0
 11
45.6311
 21
70.6466
 31
0.0
  0
LINE
  8
0
 62
     0
 10
45.6311
 20
70.6466
 30
0.0
 11
46.4316
 21
70.6466
 31
0.0
  0
LINE
  8
0
 62
     0
 10
46.4316
 20
70.6466
 30
0.0
 11
46.4316
 21
64.8476
 31
0.0
  0
LINE
  8
0
 62
     0
 10
46.4316
 20
64.8476
 30
0.0
 11
45.6311
 21
64.8476
 31
0.0
  0
LINE
  8
0
 62
     0
 10
45.6311
 20
64.8476
 30
0.0
 11
45.6311
 21
61.747
 31
0.0
  0
LINE
  8
0
 62
     0
 10
45.6311
 20
61.747
 30
0.0
 11
46.4316
 21
61.747
 31
0.0
  0
LINE
  8
0
 62
     0
 10
46.4316
 20
61.747
 30
0.0
 11
46.4316
 21
60.7466
 31
0.0
  0
LINE
  8
0
 62
     0
 10
46.4316
 20
60.7466
 30
0.0
 11
60.4312
 21
60.7466
 31
0.0
  0
LINE
  8
0
 62
     0
 10
60.4312
 20
60.7466
 30
0.0
 11
60.4312
 21
61.747
 31
0.0
  0
LINE
  8
0
 62
     0
 10
60.4312
 20
61.747
 30
0.0
 11
61.2316
 21
61.747
 31
0.0
  0
LINE
  8
0
 62
     0
 10
61.2316
 20
61.747
 30
0.0
 11
61.2316
 21
64.8476
 31
0.0
  0
LINE
  8
0
 62
     0
 10
61.2316
 20
64.8476
 30
0.0
 11
60.4312
 21
64.8476
 31
0.0
  0
LINE
  8
0
 62
     0
 10
60.4312
 20
64.8476
 30
0.0
 11
60.4312
 21
70.6466
 31
0.0
  0
LINE
  8
0
 62
     0
 10
60.4312
 20
70.6466
 30
0.0
 11
61.2316
 21
70.6466
 31
0.0
  0
LINE
  8
0
 62
     0
 10
61.2316
 20
70.6466
 30
0.0
 11
61.2316
 21
73.7471
 31
0.0
  0
LINE
  8
0
 62
     0
 10
61.2316
 20
73.7471
 30
0.0
 11
60.4312
 21
73.7471
 31
0.0
  0
LINE
  8
0
 62
     0
 10
60.4312
 20
73.7471
 30
0.0
 11
60.4312
 21
74.7476
 31
0.0
  0
LINE
  8
0
 62
     0
 10
60.4312
 20
74.7476
 30
0.0
 11
46.4316
 21
74.7476
 31
0.0
  0
LINE
  8
0
 62
     0
 10
27.3816
 20
74.7476
 30
0.0
 11
27.3816
 21
73.7471
 31
0.0
  0
LINE
  8
0
 62
     0
 10
27.3816
 20
73.7471
 30
0.0
 11
26.581
 21
73.7471
 31
0.0
  0
LINE
  8
0
 62
     0
 10
26.581
 20
73.7471
 30
0.0
 11
26.581
 21
70.6466
 31
0.0
  0
LINE
  8
0
 62
     0
 10
26.581
 20
70.6466
 30
0.0
 11
27.3816
 21
70.6466
 31
0.0
  0
LINE
  8
0
 62
     0
 10
27.3816
 20
70.6466
 30
0.0
 11
27.3816
 21
64.8476
 31
0.0
  0
LINE
  8
0
 62
     0
 10
27.3816
 20
64.8476
 30
0.0
 11
26.581
 21
64.8476
 31
0.0
  0
LINE
  8
0
 62
     0
 10
26.581
 20
64.8476
 30
0.0
 11
26.581
 21
61.747
 31
0.0
  0
LINE
  8
0
 62
     0
 10
26.581
 20
61.747
 30
0.0
 11
27.3816
 21
61.747
 31
0.0
  0
LINE
  8
0
 62
     0
 10
27.3816
 20
61.747
 30
0.0
 11
27.3816
 21
60.7466
 31
0.0
  0
LINE
  8
0
 62
     0
 10
27.3816
 20
60.7466
 30
0.0
 11
41.3812
 21
60.7466
 31
0.0
  0
LINE
  8
0
 62
     0
 10
41.3812
 20
60.7466
 30
0.0
 11
41.3812
 21
61.747
 31
0.0
  0
LINE
  8
0
 62
     0
 10
41.3812
 20
61.747
 30
0.0
 11
42.1816
 21
61.747
 31
0.0
  0
LINE
  8
0
 62
     0
 10
42.1816
 20
61.747
 30
0.0
 11
42.1816
 21
64.8476
 31
0.0
  0
LINE
  8
0
 62
     0
 10
42.1816
 20
64.8476
 30
0.0
 11
41.3812
 21
64.8476
 31
0.0
  0
LINE
  8
0
 62
     0
 10
41.3812
 20
64.8476
 30
0.0
 11
41.3812
 21
70.6466
 31
0.0
  0
LINE
  8
0
 62
     0
 10
41.3812
 20
70.6466
 30
0.0
 11
42.1816
 21
70.6466
 31
0.0
  0
LINE
  8
0
 62
     0
 10
42.1816
 20
70.6466
 30
0.0
 11
42.1816
 21
73.7471
 31
0.0
  0
LINE
  8
0
 62
     0
 10
42.1816
 20
73.7471
 30
0.0
 11
41.3812
 21
73.7471
 31
0.0
  0
LINE
  8
0
 62
     0
 10
41.3812
 20
73.7471
 30
0.0
 11
41.3812
 21
74.7476
 31
0.0
  0
LINE
  8
0
 62
     0
 10
41.3812
 20
74.7476
 30
0.0
 11
27.3816
 21
74.7476
 31
0.0
  0
LINE
  8
0
 62
     0
 10
270.269
 20
93.7976
 30
0.0
 11
270.269
 21
92.7971
 31
0.0
  0
LINE
  8
0
 62
     0
 10
270.269
 20
92.7971
 30
0.0
 11
269.47
 21
92.7971
 31
0.0
  0
LINE
  8
0
 62
     0
 10
269.47
 20
92.7971
 30
0.0
 11
269.47
 21
89.6966
 31
0.0
  0
LINE
  8
0
 62
     0
 10
269.47
 20
89.6966
 30
0.0
 11
270.269
 21
89.6966
 31
0.0
  0
LINE
  8
0
 62
     0
 10
270.269
 20
89.6966
 30
0.0
 11
270.269
 21
83.8976
 31
0.0
  0
LINE
  8
0
 62
     0
 10
270.269
 20
83.8976
 30
0.0
 11
269.47
 21
83.8976
 31
0.0
  0
LINE
  8
0
 62
     0
 10
269.47
 20
83.8976
 30
0.0
 11
269.47
 21
80.797
 31
0.0
  0
LINE
  8
0
 62
     0
 10
269.47
 20
80.797
 30
0.0
 11
270.269
 21
80.797
 31
0.0
  0
LINE
  8
0
 62
     0
 10
270.269
 20
80.797
 30
0.0
 11
270.269
 21
79.7966
 31
0.0
  0
LINE
  8
0
 62
     0
 10
270.269
 20
79.7966
 30
0.0
 11
284.27
 21
79.7966
 31
0.0
  0
LINE
  8
0
 62
     0
 10
284.27
 20
79.7966
 30
0.0
 11
284.27
 21
80.797
 31
0.0
  0
LINE
  8
0
 62
     0
 10
284.27
 20
80.797
 30
0.0
 11
285.069
 21
80.797
 31
0.0
  0
LINE
  8
0
 62
     0
 10
285.069
 20
80.797
 30
0.0
 11
285.069
 21
83.8976
 31
0.0
  0
LINE
  8
0
 62
     0
 10
285.069
 20
83.8976
 30
0.0
 11
284.27
 21
83.8976
 31
0.0
  0
LINE
  8
0
 62
     0
 10
284.27
 20
83.8976
 30
0.0
 11
284.27
 21
89.6966
 31
0.0
  0
LINE
  8
0
 62
     0
 10
284.27
 20
89.6966
 30
0.0
 11
285.069
 21
89.6966
 31
0.0
  0
LINE
  8
0
 62
     0
 10
285.069
 20
89.6966
 30
0.0
 11
285.069
 21
92.7971
 31
0.0
  0
LINE
  8
0
 62
     0
 10
285.069
 20
92.7971
 30
0.0
 11
284.27
 21
92.7971
 31
0.0
  0
LINE
  8
0
 62
     0
 10
284.27
 20
92.7971
 30
0.0
 11
284.27
 21
93.7976
 31
0.0
  0
LINE
  8
0
 62
     0
 10
284.27
 20
93.7976
 30
0.0
 11
270.269
 21
93.7976
 31
0.0
  0
LINE
  8
0
 62
     0
 10
251.219
 20
93.7976
 30
0.0
 11
251.219
 21
92.7971
 31
0.0
  0
LINE
  8
0
 62
     0
 10
251.219
 20
92.7971
 30
0.0
 11
250.42
 21
92.7971
 31
0.0
  0
LINE
  8
0
 62
     0
 10
250.42
 20
92.7971
 30
0.0
 11
250.42
 21
89.6966
 31
0.0
  0
LINE
  8
0
 62
     0
 10
250.42
 20
89.6966
 30
0.0
 11
251.219
 21
89.6966
 31
0.0
  0
LINE
  8
0
 62
     0
 10
251.219
 20
89.6966
 30
0.0
 11
251.219
 21
83.8976
 31
0.0
  0
LINE
  8
0
 62
     0
 10
251.219
 20
83.8976
 30
0.0
 11
250.42
 21
83.8976
 31
0.0
  0
LINE
  8
0
 62
     0
 10
250.42
 20
83.8976
 30
0.0
 11
250.42
 21
80.797
 31
0.0
  0
LINE
  8
0
 62
     0
 10
250.42
 20
80.797
 30
0.0
 11
251.219
 21
80.797
 31
0.0
  0
LINE
  8
0
 62
     0
 10
251.219
 20
80.797
 30
0.0
 11
251.219
 21
79.7966
 31
0.0
  0
LINE
  8
0
 62
     0
 10
251.219
 20
79.7966
 30
0.0
 11
265.22
 21
79.7966
 31
0.0
  0
LINE
  8
0
 62
     0
 10
265.22
 20
79.7966
 30
0.0
 11
265.22
 21
80.797
 31
0.0
  0
LINE
  8
0
 62
     0
 10
265.22
 20
80.797
 30
0.0
 11
266.019
 21
80.797
 31
0.0
  0
LINE
  8
0
 62
     0
 10
266.019
 20
80.797
 30
0.0
 11
266.019
 21
83.8976
 31
0.0
  0
LINE
  8
0
 62
     0
 10
266.019
 20
83.8976
 30
0.0
 11
265.22
 21
83.8976
 31
0.0
  0
LINE
  8
0
 62
     0
 10
265.22
 20
83.8976
 30
0.0
 11
265.22
 21
89.6966
 31
0.0
  0
LINE
  8
0
 62
     0
 10
265.22
 20
89.6966
 30
0.0
 11
266.019
 21
89.6966
 31
0.0
  0
LINE
  8
0
 62
     0
 10
266.019
 20
89.6966
 30
0.0
 11
266.019
 21
92.7971
 31
0.0
  0
LINE
  8
0
 62
     0
 10
266.019
 20
92.7971
 30
0.0
 11
265.22
 21
92.7971
 31
0.0
  0
LINE
  8
0
 62
     0
 10
265.22
 20
92.7971
 30
0.0
 11
265.22
 21
93.7976
 31
0.0
  0
LINE
  8
0
 62
     0
 10
265.22
 20
93.7976
 30
0.0
 11
251.219
 21
93.7976
 31
0.0
  0
LINE
  8
0
 62
     0
 10
232.169
 20
93.7976
 30
0.0
 11
232.169
 21
92.7971
 31
0.0
  0
LINE
  8
0
 62
     0
 10
232.169
 20
92.7971
 30
0.0
 11
231.37
 21
92.7971
 31
0.0
  0
LINE
  8
0
 62
     0
 10
231.37
 20
92.7971
 30
0.0
 11
231.37
 21
89.6966
 31
0.0
  0
LINE
  8
0
 62
     0
 10
231.37
 20
89.6966
 30
0.0
 11
232.169
 21
89.6966
 31
0.0
  0
LINE
  8
0
 62
     0
 10
232.169
 20
89.6966
 30
0.0
 11
232.169
 21
83.8976
 31
0.0
  0
LINE
  8
0
 62
     0
 10
232.169
 20
83.8976
 30
0.0
 11
231.37
 21
83.8976
 31
0.0
  0
LINE
  8
0
 62
     0
 10
231.37
 20
83.8976
 30
0.0
 11
231.37
 21
80.797
 31
0.0
  0
LINE
  8
0
 62
     0
 10
231.37
 20
80.797
 30
0.0
 11
232.169
 21
80.797
 31
0.0
  0
LINE
  8
0
 62
     0
 10
232.169
 20
80.797
 30
0.0
 11
232.169
 21
79.7966
 31
0.0
  0
LINE
  8
0
 62
     0
 10
232.169
 20
79.7966
 30
0.0
 11
246.17
 21
79.7966
 31
0.0
  0
LINE
  8
0
 62
     0
 10
246.17
 20
79.7966
 30
0.0
 11
246.17
 21
80.797
 31
0.0
  0
LINE
  8
0
 62
     0
 10
246.17
 20
80.797
 30
0.0
 11
246.969
 21
80.797
 31
0.0
  0
LINE
  8
0
 62
     0
 10
246.969
 20
80.797
 30
0.0
 11
246.969
 21
83.8976
 31
0.0
  0
LINE
  8
0
 62
     0
 10
246.969
 20
83.8976
 30
0.0
 11
246.17
 21
83.8976
 31
0.0
  0
LINE
  8
0
 62
     0
 10
246.17
 20
83.8976
 30
0.0
 11
246.17
 21
89.6966
 31
0.0
  0
LINE
  8
0
 62
     0
 10
246.17
 20
89.6966
 30
0.0
 11
246.969
 21
89.6966
 31
0.0
  0
LINE
  8
0
 62
     0
 10
246.969
 20
89.6966
 30
0.0
 11
246.969
 21
92.7971
 31
0.0
  0
LINE
  8
0
 62
     0
 10
246.969
 20
92.7971
 30
0.0
 11
246.17
 21
92.7971
 31
0.0
  0
LINE
  8
0
 62
     0
 10
246.17
 20
92.7971
 30
0.0
 11
246.17
 21
93.7976
 31
0.0
  0
LINE
  8
0
 62
     0
 10
246.17
 20
93.7976
 30
0.0
 11
232.169
 21
93.7976
 31
0.0
  0
LINE
  8
0
 62
     0
 10
213.119
 20
93.7976
 30
0.0
 11
213.119
 21
92.7971
 31
0.0
  0
LINE
  8
0
 62
     0
 10
213.119
 20
92.7971
 30
0.0
 11
212.32
 21
92.7971
 31
0.0
  0
LINE
  8
0
 62
     0
 10
212.32
 20
92.7971
 30
0.0
 11
212.32
 21
89.6966
 31
0.0
  0
LINE
  8
0
 62
     0
 10
212.32
 20
89.6966
 30
0.0
 11
213.119
 21
89.6966
 31
0.0
  0
LINE
  8
0
 62
     0
 10
213.119
 20
89.6966
 30
0.0
 11
213.119
 21
83.8976
 31
0.0
  0
LINE
  8
0
 62
     0
 10
213.119
 20
83.8976
 30
0.0
 11
212.32
 21
83.8976
 31
0.0
  0
LINE
  8
0
 62
     0
 10
212.32
 20
83.8976
 30
0.0
 11
212.32
 21
80.797
 31
0.0
  0
LINE
  8
0
 62
     0
 10
212.32
 20
80.797
 30
0.0
 11
213.119
 21
80.797
 31
0.0
  0
LINE
  8
0
 62
     0
 10
213.119
 20
80.797
 30
0.0
 11
213.119
 21
79.7966
 31
0.0
  0
LINE
  8
0
 62
     0
 10
213.119
 20
79.7966
 30
0.0
 11
227.12
 21
79.7966
 31
0.0
  0
LINE
  8
0
 62
     0
 10
227.12
 20
79.7966
 30
0.0
 11
227.12
 21
80.797
 31
0.0
  0
LINE
  8
0
 62
     0
 10
227.12
 20
80.797
 30
0.0
 11
227.919
 21
80.797
 31
0.0
  0
LINE
  8
0
 62
     0
 10
227.919
 20
80.797
 30
0.0
 11
227.919
 21
83.8976
 31
0.0
  0
LINE
  8
0
 62
     0
 10
227.919
 20
83.8976
 30
0.0
 11
227.12
 21
83.8976
 31
0.0
  0
LINE
  8
0
 62
     0
 10
227.12
 20
83.8976
 30
0.0
 11
227.12
 21
89.6966
 31
0.0
  0
LINE
  8
0
 62
     0
 10
227.12
 20
89.6966
 30
0.0
 11
227.919
 21
89.6966
 31
0.0
  0
LINE
  8
0
 62
     0
 10
227.919
 20
89.6966
 30
0.0
 11
227.919
 21
92.7971
 31
0.0
  0
LINE
  8
0
 62
     0
 10
227.919
 20
92.7971
 30
0.0
 11
227.12
 21
92.7971
 31
0.0
  0
LINE
  8
0
 62
     0
 10
227.12
 20
92.7971
 30
0.0
 11
227.12
 21
93.7976
 31
0.0
  0
LINE
  8
0
 62
     0
 10
227.12
 20
93.7976
 30
0.0
 11
213.119
 21
93.7976
 31
0.0
  0
LINE
  8
0
 62
     0
 10
194.069
 20
93.7976
 30
0.0
 11
194.069
 21
92.7971
 31
0.0
  0
LINE
  8
0
 62
     0
 10
194.069
 20
92.7971
 30
0.0
 11
193.27
 21
92.7971
 31
0.0
  0
LINE
  8
0
 62
     0
 10
193.27
 20
92.7971
 30
0.0
 11
193.27
 21
89.6966
 31
0.0
  0
LINE
  8
0
 62
     0
 10
193.27
 20
89.6966
 30
0.0
 11
194.069
 21
89.6966
 31
0.0
  0
LINE
  8
0
 62
     0
 10
194.069
 20
89.6966
 30
0.0
 11
194.069
 21
83.8976
 31
0.0
  0
LINE
  8
0
 62
     0
 10
194.069
 20
83.8976
 30
0.0
 11
193.27
 21
83.8976
 31
0.0
  0
LINE
  8
0
 62
     0
 10
193.27
 20
83.8976
 30
0.0
 11
193.27
 21
80.797
 31
0.0
  0
LINE
  8
0
 62
     0
 10
193.27
 20
80.797
 30
0.0
 11
194.069
 21
80.797
 31
0.0
  0
LINE
  8
0
 62
     0
 10
194.069
 20
80.797
 30
0.0
 11
194.069
 21
79.7966
 31
0.0
  0
LINE
  8
0
 62
     0
 10
194.069
 20
79.7966
 30
0.0
 11
208.07
 21
79.7966
 31
0.0
  0
LINE
  8
0
 62
     0
 10
208.07
 20
79.7966
 30
0.0
 11
208.07
 21
80.797
 31
0.0
  0
LINE
  8
0
 62
     0
 10
208.07
 20
80.797
 30
0.0
 11
208.869
 21
80.797
 31
0.0
  0
LINE
  8
0
 62
     0
 10
208.869
 20
80.797
 30
0.0
 11
208.869
 21
83.8976
 31
0.0
  0
LINE
  8
0
 62
     0
 10
208.869
 20
83.8976
 30
0.0
 11
208.07
 21
83.8976
 31
0.0
  0
LINE
  8
0
 62
     0
 10
208.07
 20
83.8976
 30
0.0
 11
208.07
 21
89.6966
 31
0.0
  0
LINE
  8
0
 62
     0
 10
208.07
 20
89.6966
 30
0.0
 11
208.869
 21
89.6966
 31
0.0
  0
LINE
  8
0
 62
     0
 10
208.869
 20
89.6966
 30
0.0
 11
208.869
 21
92.7971
 31
0.0
  0
LINE
  8
0
 62
     0
 10
208.869
 20
92.7971
 30
0.0
 11
208.07
 21
92.7971
 31
0.0
  0
LINE
  8
0
 62
     0
 10
208.07
 20
92.7971
 30
0.0
 11
208.07
 21
93.7976
 31
0.0
  0
LINE
  8
0
 62
     0
 10
208.07
 20
93.7976
 30
0.0
 11
194.069
 21
93.7976
 31
0.0
  0
LINE
  8
0
 62
     0
 10
175.019
 20
93.7976
 30
0.0
 11
175.019
 21
92.7971
 31
0.0
  0
LINE
  8
0
 62
     0
 10
175.019
 20
92.7971
 30
0.0
 11
174.22
 21
92.7971
 31
0.0
  0
LINE
  8
0
 62
     0
 10
174.22
 20
92.7971
 30
0.0
 11
174.22
 21
89.6966
 31
0.0
  0
LINE
  8
0
 62
     0
 10
174.22
 20
89.6966
 30
0.0
 11
175.019
 21
89.6966
 31
0.0
  0
LINE
  8
0
 62
     0
 10
175.019
 20
89.6966
 30
0.0
 11
175.019
 21
83.8976
 31
0.0
  0
LINE
  8
0
 62
     0
 10
175.019
 20
83.8976
 30
0.0
 11
174.22
 21
83.8976
 31
0.0
  0
LINE
  8
0
 62
     0
 10
174.22
 20
83.8976
 30
0.0
 11
174.22
 21
80.797
 31
0.0
  0
LINE
  8
0
 62
     0
 10
174.22
 20
80.797
 30
0.0
 11
175.019
 21
80.797
 31
0.0
  0
LINE
  8
0
 62
     0
 10
175.019
 20
80.797
 30
0.0
 11
175.019
 21
79.7966
 31
0.0
  0
LINE
  8
0
 62
     0
 10
175.019
 20
79.7966
 30
0.0
 11
189.02
 21
79.7966
 31
0.0
  0
LINE
  8
0
 62
     0
 10
189.02
 20
79.7966
 30
0.0
 11
189.02
 21
80.797
 31
0.0
  0
LINE
  8
0
 62
     0
 10
189.02
 20
80.797
 30
0.0
 11
189.819
 21
80.797
 31
0.0
  0
LINE
  8
0
 62
     0
 10
189.819
 20
80.797
 30
0.0
 11
189.819
 21
83.8976
 31
0.0
  0
LINE
  8
0
 62
     0
 10
189.819
 20
83.8976
 30
0.0
 11
189.02
 21
83.8976
 31
0.0
  0
LINE
  8
0
 62
     0
 10
189.02
 20
83.8976
 30
0.0
 11
189.02
 21
89.6966
 31
0.0
  0
LINE
  8
0
 62
     0
 10
189.02
 20
89.6966
 30
0.0
 11
189.819
 21
89.6966
 31
0.0
  0
LINE
  8
0
 62
     0
 10
189.819
 20
89.6966
 30
0.0
 11
189.819
 21
92.7971
 31
0.0
  0
LINE
  8
0
 62
     0
 10
189.819
 20
92.7971
 30
0.0
 11
189.02
 21
92.7971
 31
0.0
  0
LINE
  8
0
 62
     0
 10
189.02
 20
92.7971
 30
0.0
 11
189.02
 21
93.7976
 31
0.0
  0
LINE
  8
0
 62
     0
 10
189.02
 20
93.7976
 30
0.0
 11
175.019
 21
93.7976
 31
0.0
  0
LINE
  8
0
 62
     0
 10
155.969
 20
93.7976
 30
0.0
 11
155.969
 21
92.7971
 31
0.0
  0
LINE
  8
0
 62
     0
 10
155.969
 20
92.7971
 30
0.0
 11
155.17
 21
92.7971
 31
0.0
  0
LINE
  8
0
 62
     0
 10
155.17
 20
92.7971
 30
0.0
 11
155.17
 21
89.6966
 31
0.0
  0
LINE
  8
0
 62
     0
 10
155.17
 20
89.6966
 30
0.0
 11
155.969
 21
89.6966
 31
0.0
  0
LINE
  8
0
 62
     0
 10
155.969
 20
89.6966
 30
0.0
 11
155.969
 21
83.8976
 31
0.0
  0
LINE
  8
0
 62
     0
 10
155.969
 20
83.8976
 30
0.0
 11
155.17
 21
83.8976
 31
0.0
  0
LINE
  8
0
 62
     0
 10
155.17
 20
83.8976
 30
0.0
 11
155.17
 21
80.797
 31
0.0
  0
LINE
  8
0
 62
     0
 10
155.17
 20
80.797
 30
0.0
 11
155.969
 21
80.797
 31
0.0
  0
LINE
  8
0
 62
     0
 10
155.969
 20
80.797
 30
0.0
 11
155.969
 21
79.7966
 31
0.0
  0
LINE
  8
0
 62
     0
 10
155.969
 20
79.7966
 30
0.0
 11
169.97
 21
79.7966
 31
0.0
  0
LINE
  8
0
 62
     0
 10
169.97
 20
79.7966
 30
0.0
 11
169.97
 21
80.797
 31
0.0
  0
LINE
  8
0
 62
     0
 10
169.97
 20
80.797
 30
0.0
 11
170.769
 21
80.797
 31
0.0
  0
LINE
  8
0
 62
     0
 10
170.769
 20
80.797
 30
0.0
 11
170.769
 21
83.8976
 31
0.0
  0
LINE
  8
0
 62
     0
 10
170.769
 20
83.8976
 30
0.0
 11
169.97
 21
83.8976
 31
0.0
  0
LINE
  8
0
 62
     0
 10
169.97
 20
83.8976
 30
0.0
 11
169.97
 21
89.6966
 31
0.0
  0
LINE
  8
0
 62
     0
 10
169.97
 20
89.6966
 30
0.0
 11
170.769
 21
89.6966
 31
0.0
  0
LINE
  8
0
 62
     0
 10
170.769
 20
89.6966
 30
0.0
 11
170.769
 21
92.7971
 31
0.0
  0
LINE
  8
0
 62
     0
 10
170.769
 20
92.7971
 30
0.0
 11
169.97
 21
92.7971
 31
0.0
  0
LINE
  8
0
 62
     0
 10
169.97
 20
92.7971
 30
0.0
 11
169.97
 21
93.7976
 31
0.0
  0
LINE
  8
0
 62
     0
 10
169.97
 20
93.7976
 30
0.0
 11
155.969
 21
93.7976
 31
0.0
  0
LINE
  8
0
 62
     0
 10
136.919
 20
93.7976
 30
0.0
 11
136.919
 21
92.7971
 31
0.0
  0
LINE
  8
0
 62
     0
 10
136.919
 20
92.7971
 30
0.0
 11
136.12
 21
92.7971
 31
0.0
  0
LINE
  8
0
 62
     0
 10
136.12
 20
92.7971
 30
0.0
 11
136.12
 21
89.6966
 31
0.0
  0
LINE
  8
0
 62
     0
 10
136.12
 20
89.6966
 30
0.0
 11
136.919
 21
89.6966
 31
0.0
  0
LINE
  8
0
 62
     0
 10
136.919
 20
89.6966
 30
0.0
 11
136.919
 21
83.8976
 31
0.0
  0
LINE
  8
0
 62
     0
 10
136.919
 20
83.8976
 30
0.0
 11
136.12
 21
83.8976
 31
0.0
  0
LINE
  8
0
 62
     0
 10
136.12
 20
83.8976
 30
0.0
 11
136.12
 21
80.797
 31
0.0
  0
LINE
  8
0
 62
     0
 10
136.12
 20
80.797
 30
0.0
 11
136.919
 21
80.797
 31
0.0
  0
LINE
  8
0
 62
     0
 10
136.919
 20
80.797
 30
0.0
 11
136.919
 21
79.7966
 31
0.0
  0
LINE
  8
0
 62
     0
 10
136.919
 20
79.7966
 30
0.0
 11
150.92
 21
79.7966
 31
0.0
  0
LINE
  8
0
 62
     0
 10
150.92
 20
79.7966
 30
0.0
 11
150.92
 21
80.797
 31
0.0
  0
LINE
  8
0
 62
     0
 10
150.92
 20
80.797
 30
0.0
 11
151.719
 21
80.797
 31
0.0
  0
LINE
  8
0
 62
     0
 10
151.719
 20
80.797
 30
0.0
 11
151.719
 21
83.8976
 31
0.0
  0
LINE
  8
0
 62
     0
 10
151.719
 20
83.8976
 30
0.0
 11
150.92
 21
83.8976
 31
0.0
  0
LINE
  8
0
 62
     0
 10
150.92
 20
83.8976
 30
0.0
 11
150.92
 21
89.6966
 31
0.0
  0
LINE
  8
0
 62
     0
 10
150.92
 20
89.6966
 30
0.0
 11
151.719
 21
89.6966
 31
0.0
  0
LINE
  8
0
 62
     0
 10
151.719
 20
89.6966
 30
0.0
 11
151.719
 21
92.7971
 31
0.0
  0
LINE
  8
0
 62
     0
 10
151.719
 20
92.7971
 30
0.0
 11
150.92
 21
92.7971
 31
0.0
  0
LINE
  8
0
 62
     0
 10
150.92
 20
92.7971
 30
0.0
 11
150.92
 21
93.7976
 31
0.0
  0
LINE
  8
0
 62
     0
 10
150.92
 20
93.7976
 30
0.0
 11
136.919
 21
93.7976
 31
0.0
  0
LINE
  8
0
 62
     0
 10
117.869
 20
93.7976
 30
0.0
 11
117.869
 21
92.7971
 31
0.0
  0
LINE
  8
0
 62
     0
 10
117.869
 20
92.7971
 30
0.0
 11
117.07
 21
92.7971
 31
0.0
  0
LINE
  8
0
 62
     0
 10
117.07
 20
92.7971
 30
0.0
 11
117.07
 21
89.6966
 31
0.0
  0
LINE
  8
0
 62
     0
 10
117.07
 20
89.6966
 30
0.0
 11
117.869
 21
89.6966
 31
0.0
  0
LINE
  8
0
 62
     0
 10
117.869
 20
89.6966
 30
0.0
 11
117.869
 21
83.8976
 31
0.0
  0
LINE
  8
0
 62
     0
 10
117.869
 20
83.8976
 30
0.0
 11
117.07
 21
83.8976
 31
0.0
  0
LINE
  8
0
 62
     0
 10
117.07
 20
83.8976
 30
0.0
 11
117.07
 21
80.797
 31
0.0
  0
LINE
  8
0
 62
     0
 10
117.07
 20
80.797
 30
0.0
 11
117.869
 21
80.797
 31
0.0
  0
LINE
  8
0
 62
     0
 10
117.869
 20
80.797
 30
0.0
 11
117.869
 21
79.7966
 31
0.0
  0
LINE
  8
0
 62
     0
 10
117.869
 20
79.7966
 30
0.0
 11
131.87
 21
79.7966
 31
0.0
  0
LINE
  8
0
 62
     0
 10
131.87
 20
79.7966
 30
0.0
 11
131.87
 21
80.797
 31
0.0
  0
LINE
  8
0
 62
     0
 10
131.87
 20
80.797
 30
0.0
 11
132.669
 21
80.797
 31
0.0
  0
LINE
  8
0
 62
     0
 10
132.669
 20
80.797
 30
0.0
 11
132.669
 21
83.8976
 31
0.0
  0
LINE
  8
0
 62
     0
 10
132.669
 20
83.8976
 30
0.0
 11
131.87
 21
83.8976
 31
0.0
  0
LINE
  8
0
 62
     0
 10
131.87
 20
83.8976
 30
0.0
 11
131.87
 21
89.6966
 31
0.0
  0
LINE
  8
0
 62
     0
 10
131.87
 20
89.6966
 30
0.0
 11
132.669
 21
89.6966
 31
0.0
  0
LINE
  8
0
 62
     0
 10
132.669
 20
89.6966
 30
0.0
 11
132.669
 21
92.7971
 31
0.0
  0
LINE
  8
0
 62
     0
 10
132.669
 20
92.7971
 30
0.0
 11
131.87
 21
92.7971
 31
0.0
  0
LINE
  8
0
 62
     0
 10
131.87
 20
92.7971
 30
0.0
 11
131.87
 21
93.7976
 31
0.0
  0
LINE
  8
0
 62
     0
 10
131.87
 20
93.7976
 30
0.0
 11
117.869
 21
93.7976
 31
0.0
  0
LINE
  8
0
 62
     0
 10
98.8191
 20
93.7976
 30
0.0
 11
98.8191
 21
92.7971
 31
0.0
  0
LINE
  8
0
 62
     0
 10
98.8191
 20
92.7971
 30
0.0
 11
98.02
 21
92.7971
 31
0.0
  0
LINE
  8
0
 62
     0
 10
98.02
 20
92.7971
 30
0.0
 11
98.02
 21
89.6966
 31
0.0
  0
LINE
  8
0
 62
     0
 10
98.02
 20
89.6966
 30
0.0
 11
98.8191
 21
89.6966
 31
0.0
  0
LINE
  8
0
 62
     0
 10
98.8191
 20
89.6966
 30
0.0
 11
98.8191
 21
83.8976
 31
0.0
  0
LINE
  8
0
 62
     0
 10
98.8191
 20
83.8976
 30
0.0
 11
98.02
 21
83.8976
 31
0.0
  0
LINE
  8
0
 62
     0
 10
98.02
 20
83.8976
 30
0.0
 11
98.02
 21
80.797
 31
0.0
  0
LINE
  8
0
 62
     0
 10
98.02
 20
80.797
 30
0.0
 11
98.8191
 21
80.797
 31
0.0
  0
LINE
  8
0
 62
     0
 10
98.8191
 20
80.797
 30
0.0
 11
98.8191
 21
79.7966
 31
0.0
  0
LINE
  8
0
 62
     0
 10
98.8191
 20
79.7966
 30
0.0
 11
112.82
 21
79.7966
 31
0.0
  0
LINE
  8
0
 62
     0
 10
112.82
 20
79.7966
 30
0.0
 11
112.82
 21
80.797
 31
0.0
  0
LINE
  8
0
 62
     0
 10
112.82
 20
80.797
 30
0.0
 11
113.618
 21
80.797
 31
0.0
  0
LINE
  8
0
 62
     0
 10
113.618
 20
80.797
 30
0.0
 11
113.618
 21
83.8976
 31
0.0
  0
LINE
  8
0
 62
     0
 10
113.618
 20
83.8976
 30
0.0
 11
112.82
 21
83.8976
 31
0.0
  0
LINE
  8
0
 62
     0
 10
112.82
 20
83.8976
 30
0.0
 11
112.82
 21
89.6966
 31
0.0
  0
LINE
  8
0
 62
     0
 10
112.82
 20
89.6966
 30
0.0
 11
113.618
 21
89.6966
 31
0.0
  0
LINE
  8
0
 62
     0
 10
113.618
 20
89.6966
 30
0.0
 11
113.618
 21
92.7971
 31
0.0
  0
LINE
  8
0
 62
     0
 10
113.618
 20
92.7971
 30
0.0
 11
112.82
 21
92.7971
 31
0.0
  0
LINE
  8
0
 62
     0
 10
112.82
 20
92.7971
 30
0.0
 11
112.82
 21
93.7976
 31
0.0
  0
LINE
  8
0
 62
     0
 10
112.82
 20
93.7976
 30
0.0
 11
98.8191
 21
93.7976
 31
0.0
  0
LINE
  8
0
 62
     0
 10
79.7691
 20
93.7976
 30
0.0
 11
79.7691
 21
92.7971
 31
0.0
  0
LINE
  8
0
 62
     0
 10
79.7691
 20
92.7971
 30
0.0
 11
78.97
 21
92.7971
 31
0.0
  0
LINE
  8
0
 62
     0
 10
78.97
 20
92.7971
 30
0.0
 11
78.97
 21
89.6966
 31
0.0
  0
LINE
  8
0
 62
     0
 10
78.97
 20
89.6966
 30
0.0
 11
79.7691
 21
89.6966
 31
0.0
  0
LINE
  8
0
 62
     0
 10
79.7691
 20
89.6966
 30
0.0
 11
79.7691
 21
83.8976
 31
0.0
  0
LINE
  8
0
 62
     0
 10
79.7691
 20
83.8976
 30
0.0
 11
78.97
 21
83.8976
 31
0.0
  0
LINE
  8
0
 62
     0
 10
78.97
 20
83.8976
 30
0.0
 11
78.97
 21
80.797
 31
0.0
  0
LINE
  8
0
 62
     0
 10
78.97
 20
80.797
 30
0.0
 11
79.7691
 21
80.797
 31
0.0
  0
LINE
  8
0
 62
     0
 10
79.7691
 20
80.797
 30
0.0
 11
79.7691
 21
79.7966
 31
0.0
  0
LINE
  8
0
 62
     0
 10
79.7691
 20
79.7966
 30
0.0
 11
93.7701
 21
79.7966
 31
0.0
  0
LINE
  8
0
 62
     0
 10
93.7701
 20
79.7966
 30
0.0
 11
93.7701
 21
80.797
 31
0.0
  0
LINE
  8
0
 62
     0
 10
93.7701
 20
80.797
 30
0.0
 11
94.5691
 21
80.797
 31
0.0
  0
LINE
  8
0
 62
     0
 10
94.5691
 20
80.797
 30
0.0
 11
94.5691
 21
83.8976
 31
0.0
  0
LINE
  8
0
 62
     0
 10
94.5691
 20
83.8976
 30
0.0
 11
93.7701
 21
83.8976
 31
0.0
  0
LINE
  8
0
 62
     0
 10
93.7701
 20
83.8976
 30
0.0
 11
93.7701
 21
89.6966
 31
0.0
  0
LINE
  8
0
 62
     0
 10
93.7701
 20
89.6966
 30
0.0
 11
94.5691
 21
89.6966
 31
0.0
  0
LINE
  8
0
 62
     0
 10
94.5691
 20
89.6966
 30
0.0
 11
94.5691
 21
92.7971
 31
0.0
  0
LINE
  8
0
 62
     0
 10
94.5691
 20
92.7971
 30
0.0
 11
93.7701
 21
92.7971
 31
0.0
  0
LINE
  8
0
 62
     0
 10
93.7701
 20
92.7971
 30
0.0
 11
93.7701
 21
93.7976
 31
0.0
  0
LINE
  8
0
 62
     0
 10
93.7701
 20
93.7976
 30
0.0
 11
79.7691
 21
93.7976
 31
0.0
  0
LINE
  8
0
 62
     0
 10
60.7191
 20
93.7976
 30
0.0
 11
60.7191
 21
92.7971
 31
0.0
  0
LINE
  8
0
 62
     0
 10
60.7191
 20
92.7971
 30
0.0
 11
59.92
 21
92.7971
 31
0.0
  0
LINE
  8
0
 62
     0
 10
59.92
 20
92.7971
 30
0.0
 11
59.92
 21
89.6966
 31
0.0
  0
LINE
  8
0
 62
     0
 10
59.92
 20
89.6966
 30
0.0
 11
60.7191
 21
89.6966
 31
0.0
  0
LINE
  8
0
 62
     0
 10
60.7191
 20
89.6966
 30
0.0
 11
60.7191
 21
83.8976
 31
0.0
  0
LINE
  8
0
 62
     0
 10
60.7191
 20
83.8976
 30
0.0
 11
59.92
 21
83.8976
 31
0.0
  0
LINE
  8
0
 62
     0
 10
59.92
 20
83.8976
 30
0.0
 11
59.92
 21
80.797
 31
0.0
  0
LINE
  8
0
 62
     0
 10
59.92
 20
80.797
 30
0.0
 11
60.7191
 21
80.797
 31
0.0
  0
LINE
  8
0
 62
     0
 10
60.7191
 20
80.797
 30
0.0
 11
60.7191
 21
79.7966
 31
0.0
  0
LINE
  8
0
 62
     0
 10
60.7191
 20
79.7966
 30
0.0
 11
74.7201
 21
79.7966
 31
0.0
  0
LINE
  8
0
 62
     0
 10
74.7201
 20
79.7966
 30
0.0
 11
74.7201
 21
80.797
 31
0.0
  0
LINE
  8
0
 62
     0
 10
74.7201
 20
80.797
 30
0.0
 11
75.5191
 21
80.797
 31
0.0
  0
LINE
  8
0
 62
     0
 10
75.5191
 20
80.797
 30
0.0
 11
75.5191
 21
83.8976
 31
0.0
  0
LINE
  8
0
 62
     0
 10
75.5191
 20
83.8976
 30
0.0
 11
74.7201
 21
83.8976
 31
0.0
  0
LINE
  8
0
 62
     0
 10
74.7201
 20
83.8976
 30
0.0
 11
74.7201
 21
89.6966
 31
0.0
  0
LINE
  8
0
 62
     0
 10
74.7201
 20
89.6966
 30
0.0
 11
75.5191
 21
89.6966
 31
0.0
  0
LINE
  8
0
 62
     0
 10
75.5191
 20
89.6966
 30
0.0
 11
75.5191
 21
92.7971
 31
0.0
  0
LINE
  8
0
 62
     0
 10
75.5191
 20
92.7971
 30
0.0
 11
74.7201
 21
92.7971
 31
0.0
  0
LINE
  8
0
 62
     0
 10
74.7201
 20
92.7971
 30
0.0
 11
74.7201
 21
93.7976
 31
0.0
  0
LINE
  8
0
 62
     0
 10
74.7201
 20
93.7976
 30
0.0
 11
60.7191
 21
93.7976
 31
0.0
  0
LINE
  8
0
 62
     0
 10
41.6691
 20
93.7976
 30
0.0
 11
41.6691
 21
92.7971
 31
0.0
  0
LINE
  8
0
 62
     0
 10
41.6691
 20
92.7971
 30
0.0
 11
40.87
 21
92.7971
 31
0.0
  0
LINE
  8
0
 62
     0
 10
40.87
 20
92.7971
 30
0.0
 11
40.87
 21
89.6966
 31
0.0
  0
LINE
  8
0
 62
     0
 10
40.87
 20
89.6966
 30
0.0
 11
41.6691
 21
89.6966
 31
0.0
  0
LINE
  8
0
 62
     0
 10
41.6691
 20
89.6966
 30
0.0
 11
41.6691
 21
83.8976
 31
0.0
  0
LINE
  8
0
 62
     0
 10
41.6691
 20
83.8976
 30
0.0
 11
40.87
 21
83.8976
 31
0.0
  0
LINE
  8
0
 62
     0
 10
40.87
 20
83.8976
 30
0.0
 11
40.87
 21
80.797
 31
0.0
  0
LINE
  8
0
 62
     0
 10
40.87
 20
80.797
 30
0.0
 11
41.6691
 21
80.797
 31
0.0
  0
LINE
  8
0
 62
     0
 10
41.6691
 20
80.797
 30
0.0
 11
41.6691
 21
79.7966
 31
0.0
  0
LINE
  8
0
 62
     0
 10
41.6691
 20
79.7966
 30
0.0
 11
55.6701
 21
79.7966
 31
0.0
  0
LINE
  8
0
 62
     0
 10
55.6701
 20
79.7966
 30
0.0
 11
55.6701
 21
80.797
 31
0.0
  0
LINE
  8
0
 62
     0
 10
55.6701
 20
80.797
 30
0.0
 11
56.4691
 21
80.797
 31
0.0
  0
LINE
  8
0
 62
     0
 10
56.4691
 20
80.797
 30
0.0
 11
56.4691
 21
83.8976
 31
0.0
  0
LINE
  8
0
 62
     0
 10
56.4691
 20
83.8976
 30
0.0
 11
55.6701
 21
83.8976
 31
0.0
  0
LINE
  8
0
 62
     0
 10
55.6701
 20
83.8976
 30
0.0
 11
55.6701
 21
89.6966
 31
0.0
  0
LINE
  8
0
 62
     0
 10
55.6701
 20
89.6966
 30
0.0
 11
56.4691
 21
89.6966
 31
0.0
  0
LINE
  8
0
 62
     0
 10
56.4691
 20
89.6966
 30
0.0
 11
56.4691
 21
92.7971
 31
0.0
  0
LINE
  8
0
 62
     0
 10
56.4691
 20
92.7971
 30
0.0
 11
55.6701
 21
92.7971
 31
0.0
  0
LINE
  8
0
 62
     0
 10
55.6701
 20
92.7971
 30
0.0
 11
55.6701
 21
93.7976
 31
0.0
  0
LINE
  8
0
 62
     0
 10
55.6701
 20
93.7976
 30
0.0
 11
41.6691
 21
93.7976
 31
0.0
  0
LINE
  8
0
 62
     0
 10
22.6191
 20
93.7976
 30
0.0
 11
22.6191
 21
92.7971
 31
0.0
  0
LINE
  8
0
 62
     0
 10
22.6191
 20
92.7971
 30
0.0
 11
21.8185
 21
92.7971
 31
0.0
  0
LINE
  8
0
 62
     0
 10
21.8185
 20
92.7971
 30
0.0
 11
21.8185
 21
89.6966
 31
0.0
  0
LINE
  8
0
 62
     0
 10
21.8185
 20
89.6966
 30
0.0
 11
22.6191
 21
89.6966
 31
0.0
  0
LINE
  8
0
 62
     0
 10
22.6191
 20
89.6966
 30
0.0
 11
22.6191
 21
83.8976
 31
0.0
  0
LINE
  8
0
 62
     0
 10
22.6191
 20
83.8976
 30
0.0
 11
21.8185
 21
83.8976
 31
0.0
  0
LINE
  8
0
 62
     0
 10
21.8185
 20
83.8976
 30
0.0
 11
21.8185
 21
80.797
 31
0.0
  0
LINE
  8
0
 62
     0
 10
21.8185
 20
80.797
 30
0.0
 11
22.6191
 21
80.797
 31
0.0
  0
LINE
  8
0
 62
     0
 10
22.6191
 20
80.797
 30
0.0
 11
22.6191
 21
79.7966
 31
0.0
  0
LINE
  8
0
 62
     0
 10
22.6191
 20
79.7966
 30
0.0
 11
36.6201
 21
79.7966
 31
0.0
  0
LINE
  8
0
 62
     0
 10
36.6201
 20
79.7966
 30
0.0
 11
36.6201
 21
80.797
 31
0.0
  0
LINE
  8
0
 62
     0
 10
36.6201
 20
80.797
 30
0.0
 11
37.4177
 21
80.797
 31
0.0
  0
LINE
  8
0
 62
     0
 10
37.4177
 20
80.797
 30
0.0
 11
37.4177
 21
83.8976
 31
0.0
  0
LINE
  8
0
 62
     0
 10
37.4177
 20
83.8976
 30
0.0
 11
36.6201
 21
83.8976
 31
0.0
  0
LINE
  8
0
 62
     0
 10
36.6201
 20
83.8976
 30
0.0
 11
36.6201
 21
89.6966
 31
0.0
  0
LINE
  8
0
 62
     0
 10
36.6201
 20
89.6966
 30
0.0
 11
37.4177
 21
89.6966
 31
0.0
  0
LINE
  8
0
 62
     0
 10
37.4177
 20
89.6966
 30
0.0
 11
37.4177
 21
92.7971
 31
0.0
  0
LINE
  8
0
 62
     0
 10
37.4177
 20
92.7971
 30
0.0
 11
36.6201
 21
92.7971
 31
0.0
  0
LINE
  8
0
 62
     0
 10
36.6201
 20
92.7971
 30
0.0
 11
36.6201
 21
93.7976
 31
0.0
  0
LINE
  8
0
 62
     0
 10
36.6201
 20
93.7976
 30
0.0
 11
22.6191
 21
93.7976
 31
0.0
  0
LINE
  8
0
 62
     0
 10
260.744
 20
112.848
 30
0.0
 11
260.744
 21
111.847
 31
0.0
  0
LINE
  8
0
 62
     0
 10
260.744
 20
111.847
 30
0.0
 11
259.945
 21
111.847
 31
0.0
  0
LINE
  8
0
 62
     0
 10
259.945
 20
111.847
 30
0.0
 11
259.945
 21
108.747
 31
0.0
  0
LINE
  8
0
 62
     0
 10
259.945
 20
108.747
 30
0.0
 11
260.744
 21
108.747
 31
0.0
  0
LINE
  8
0
 62
     0
 10
260.744
 20
108.747
 30
0.0
 11
260.744
 21
102.948
 31
0.0
  0
LINE
  8
0
 62
     0
 10
260.744
 20
102.948
 30
0.0
 11
259.945
 21
102.948
 31
0.0
  0
LINE
  8
0
 62
     0
 10
259.945
 20
102.948
 30
0.0
 11
259.945
 21
99.847
 31
0.0
  0
LINE
  8
0
 62
     0
 10
259.945
 20
99.847
 30
0.0
 11
260.744
 21
99.847
 31
0.0
  0
LINE
  8
0
 62
     0
 10
260.744
 20
99.847
 30
0.0
 11
260.744
 21
98.8466
 31
0.0
  0
LINE
  8
0
 62
     0
 10
260.744
 20
98.8466
 30
0.0
 11
274.745
 21
98.8466
 31
0.0
  0
LINE
  8
0
 62
     0
 10
274.745
 20
98.8466
 30
0.0
 11
274.745
 21
99.847
 31
0.0
  0
LINE
  8
0
 62
     0
 10
274.745
 20
99.847
 30
0.0
 11
275.544
 21
99.847
 31
0.0
  0
LINE
  8
0
 62
     0
 10
275.544
 20
99.847
 30
0.0
 11
275.544
 21
102.948
 31
0.0
  0
LINE
  8
0
 62
     0
 10
275.544
 20
102.948
 30
0.0
 11
274.745
 21
102.948
 31
0.0
  0
LINE
  8
0
 62
     0
 10
274.745
 20
102.948
 30
0.0
 11
274.745
 21
108.747
 31
0.0
  0
LINE
  8
0
 62
     0
 10
274.745
 20
108.747
 30
0.0
 11
275.544
 21
108.747
 31
0.0
  0
LINE
  8
0
 62
     0
 10
275.544
 20
108.747
 30
0.0
 11
275.544
 21
111.847
 31
0.0
  0
LINE
  8
0
 62
     0
 10
275.544
 20
111.847
 30
0.0
 11
274.745
 21
111.847
 31
0.0
  0
LINE
  8
0
 62
     0
 10
274.745
 20
111.847
 30
0.0
 11
274.745
 21
112.848
 31
0.0
  0
LINE
  8
0
 62
     0
 10
274.745
 20
112.848
 30
0.0
 11
260.744
 21
112.848
 31
0.0
  0
LINE
  8
0
 62
     0
 10
241.694
 20
112.848
 30
0.0
 11
241.694
 21
111.847
 31
0.0
  0
LINE
  8
0
 62
     0
 10
241.694
 20
111.847
 30
0.0
 11
240.895
 21
111.847
 31
0.0
  0
LINE
  8
0
 62
     0
 10
240.895
 20
111.847
 30
0.0
 11
240.895
 21
108.747
 31
0.0
  0
LINE
  8
0
 62
     0
 10
240.895
 20
108.747
 30
0.0
 11
241.694
 21
108.747
 31
0.0
  0
LINE
  8
0
 62
     0
 10
241.694
 20
108.747
 30
0.0
 11
241.694
 21
102.948
 31
0.0
  0
LINE
  8
0
 62
     0
 10
241.694
 20
102.948
 30
0.0
 11
240.895
 21
102.948
 31
0.0
  0
LINE
  8
0
 62
     0
 10
240.895
 20
102.948
 30
0.0
 11
240.895
 21
99.847
 31
0.0
  0
LINE
  8
0
 62
     0
 10
240.895
 20
99.847
 30
0.0
 11
241.694
 21
99.847
 31
0.0
  0
LINE
  8
0
 62
     0
 10
241.694
 20
99.847
 30
0.0
 11
241.694
 21
98.8466
 31
0.0
  0
LINE
  8
0
 62
     0
 10
241.694
 20
98.8466
 30
0.0
 11
255.695
 21
98.8466
 31
0.0
  0
LINE
  8
0
 62
     0
 10
255.695
 20
98.8466
 30
0.0
 11
255.695
 21
99.847
 31
0.0
  0
LINE
  8
0
 62
     0
 10
255.695
 20
99.847
 30
0.0
 11
256.493
 21
99.847
 31
0.0
  0
LINE
  8
0
 62
     0
 10
256.493
 20
99.847
 30
0.0
 11
256.493
 21
102.948
 31
0.0
  0
LINE
  8
0
 62
     0
 10
256.493
 20
102.948
 30
0.0
 11
255.695
 21
102.948
 31
0.0
  0
LINE
  8
0
 62
     0
 10
255.695
 20
102.948
 30
0.0
 11
255.695
 21
108.747
 31
0.0
  0
LINE
  8
0
 62
     0
 10
255.695
 20
108.747
 30
0.0
 11
256.493
 21
108.747
 31
0.0
  0
LINE
  8
0
 62
     0
 10
256.493
 20
108.747
 30
0.0
 11
256.493
 21
111.847
 31
0.0
  0
LINE
  8
0
 62
     0
 10
256.493
 20
111.847
 30
0.0
 11
255.695
 21
111.847
 31
0.0
  0
LINE
  8
0
 62
     0
 10
255.695
 20
111.847
 30
0.0
 11
255.695
 21
112.848
 31
0.0
  0
LINE
  8
0
 62
     0
 10
255.695
 20
112.848
 30
0.0
 11
241.694
 21
112.848
 31
0.0
  0
LINE
  8
0
 62
     0
 10
222.644
 20
112.848
 30
0.0
 11
222.644
 21
111.847
 31
0.0
  0
LINE
  8
0
 62
     0
 10
222.644
 20
111.847
 30
0.0
 11
221.845
 21
111.847
 31
0.0
  0
LINE
  8
0
 62
     0
 10
221.845
 20
111.847
 30
0.0
 11
221.845
 21
108.747
 31
0.0
  0
LINE
  8
0
 62
     0
 10
221.845
 20
108.747
 30
0.0
 11
222.644
 21
108.747
 31
0.0
  0
LINE
  8
0
 62
     0
 10
222.644
 20
108.747
 30
0.0
 11
222.644
 21
102.948
 31
0.0
  0
LINE
  8
0
 62
     0
 10
222.644
 20
102.948
 30
0.0
 11
221.845
 21
102.948
 31
0.0
  0
LINE
  8
0
 62
     0
 10
221.845
 20
102.948
 30
0.0
 11
221.845
 21
99.847
 31
0.0
  0
LINE
  8
0
 62
     0
 10
221.845
 20
99.847
 30
0.0
 11
222.644
 21
99.847
 31
0.0
  0
LINE
  8
0
 62
     0
 10
222.644
 20
99.847
 30
0.0
 11
222.644
 21
98.8466
 31
0.0
  0
LINE
  8
0
 62
     0
 10
222.644
 20
98.8466
 30
0.0
 11
236.645
 21
98.8466
 31
0.0
  0
LINE
  8
0
 62
     0
 10
236.645
 20
98.8466
 30
0.0
 11
236.645
 21
99.847
 31
0.0
  0
LINE
  8
0
 62
     0
 10
236.645
 20
99.847
 30
0.0
 11
237.444
 21
99.847
 31
0.0
  0
LINE
  8
0
 62
     0
 10
237.444
 20
99.847
 30
0.0
 11
237.444
 21
102.948
 31
0.0
  0
LINE
  8
0
 62
     0
 10
237.444
 20
102.948
 30
0.0
 11
236.645
 21
102.948
 31
0.0
  0
LINE
  8
0
 62
     0
 10
236.645
 20
102.948
 30
0.0
 11
236.645
 21
108.747
 31
0.0
  0
LINE
  8
0
 62
     0
 10
236.645
 20
108.747
 30
0.0
 11
237.444
 21
108.747
 31
0.0
  0
LINE
  8
0
 62
     0
 10
237.444
 20
108.747
 30
0.0
 11
237.444
 21
111.847
 31
0.0
  0
LINE
  8
0
 62
     0
 10
237.444
 20
111.847
 30
0.0
 11
236.645
 21
111.847
 31
0.0
  0
LINE
  8
0
 62
     0
 10
236.645
 20
111.847
 30
0.0
 11
236.645
 21
112.848
 31
0.0
  0
LINE
  8
0
 62
     0
 10
236.645
 20
112.848
 30
0.0
 11
222.644
 21
112.848
 31
0.0
  0
LINE
  8
0
 62
     0
 10
203.594
 20
112.848
 30
0.0
 11
203.594
 21
111.847
 31
0.0
  0
LINE
  8
0
 62
     0
 10
203.594
 20
111.847
 30
0.0
 11
202.795
 21
111.847
 31
0.0
  0
LINE
  8
0
 62
     0
 10
202.795
 20
111.847
 30
0.0
 11
202.795
 21
108.747
 31
0.0
  0
LINE
  8
0
 62
     0
 10
202.795
 20
108.747
 30
0.0
 11
203.594
 21
108.747
 31
0.0
  0
LINE
  8
0
 62
     0
 10
203.594
 20
108.747
 30
0.0
 11
203.594
 21
102.948
 31
0.0
  0
LINE
  8
0
 62
     0
 10
203.594
 20
102.948
 30
0.0
 11
202.795
 21
102.948
 31
0.0
  0
LINE
  8
0
 62
     0
 10
202.795
 20
102.948
 30
0.0
 11
202.795
 21
99.847
 31
0.0
  0
LINE
  8
0
 62
     0
 10
202.795
 20
99.847
 30
0.0
 11
203.594
 21
99.847
 31
0.0
  0
LINE
  8
0
 62
     0
 10
203.594
 20
99.847
 30
0.0
 11
203.594
 21
98.8466
 31
0.0
  0
LINE
  8
0
 62
     0
 10
203.594
 20
98.8466
 30
0.0
 11
217.595
 21
98.8466
 31
0.0
  0
LINE
  8
0
 62
     0
 10
217.595
 20
98.8466
 30
0.0
 11
217.595
 21
99.847
 31
0.0
  0
LINE
  8
0
 62
     0
 10
217.595
 20
99.847
 30
0.0
 11
218.394
 21
99.847
 31
0.0
  0
LINE
  8
0
 62
     0
 10
218.394
 20
99.847
 30
0.0
 11
218.394
 21
102.948
 31
0.0
  0
LINE
  8
0
 62
     0
 10
218.394
 20
102.948
 30
0.0
 11
217.595
 21
102.948
 31
0.0
  0
LINE
  8
0
 62
     0
 10
217.595
 20
102.948
 30
0.0
 11
217.595
 21
108.747
 31
0.0
  0
LINE
  8
0
 62
     0
 10
217.595
 20
108.747
 30
0.0
 11
218.394
 21
108.747
 31
0.0
  0
LINE
  8
0
 62
     0
 10
218.394
 20
108.747
 30
0.0
 11
218.394
 21
111.847
 31
0.0
  0
LINE
  8
0
 62
     0
 10
218.394
 20
111.847
 30
0.0
 11
217.595
 21
111.847
 31
0.0
  0
LINE
  8
0
 62
     0
 10
217.595
 20
111.847
 30
0.0
 11
217.595
 21
112.848
 31
0.0
  0
LINE
  8
0
 62
     0
 10
217.595
 20
112.848
 30
0.0
 11
203.594
 21
112.848
 31
0.0
  0
LINE
  8
0
 62
     0
 10
184.544
 20
112.848
 30
0.0
 11
184.544
 21
111.847
 31
0.0
  0
LINE
  8
0
 62
     0
 10
184.544
 20
111.847
 30
0.0
 11
183.745
 21
111.847
 31
0.0
  0
LINE
  8
0
 62
     0
 10
183.745
 20
111.847
 30
0.0
 11
183.745
 21
108.747
 31
0.0
  0
LINE
  8
0
 62
     0
 10
183.745
 20
108.747
 30
0.0
 11
184.544
 21
108.747
 31
0.0
  0
LINE
  8
0
 62
     0
 10
184.544
 20
108.747
 30
0.0
 11
184.544
 21
102.948
 31
0.0
  0
LINE
  8
0
 62
     0
 10
184.544
 20
102.948
 30
0.0
 11
183.745
 21
102.948
 31
0.0
  0
LINE
  8
0
 62
     0
 10
183.745
 20
102.948
 30
0.0
 11
183.745
 21
99.847
 31
0.0
  0
LINE
  8
0
 62
     0
 10
183.745
 20
99.847
 30
0.0
 11
184.544
 21
99.847
 31
0.0
  0
LINE
  8
0
 62
     0
 10
184.544
 20
99.847
 30
0.0
 11
184.544
 21
98.8466
 31
0.0
  0
LINE
  8
0
 62
     0
 10
184.544
 20
98.8466
 30
0.0
 11
198.545
 21
98.8466
 31
0.0
  0
LINE
  8
0
 62
     0
 10
198.545
 20
98.8466
 30
0.0
 11
198.545
 21
99.847
 31
0.0
  0
LINE
  8
0
 62
     0
 10
198.545
 20
99.847
 30
0.0
 11
199.344
 21
99.847
 31
0.0
  0
LINE
  8
0
 62
     0
 10
199.344
 20
99.847
 30
0.0
 11
199.344
 21
102.948
 31
0.0
  0
LINE
  8
0
 62
     0
 10
199.344
 20
102.948
 30
0.0
 11
198.545
 21
102.948
 31
0.0
  0
LINE
  8
0
 62
     0
 10
198.545
 20
102.948
 30
0.0
 11
198.545
 21
108.747
 31
0.0
  0
LINE
  8
0
 62
     0
 10
198.545
 20
108.747
 30
0.0
 11
199.344
 21
108.747
 31
0.0
  0
LINE
  8
0
 62
     0
 10
199.344
 20
108.747
 30
0.0
 11
199.344
 21
111.847
 31
0.0
  0
LINE
  8
0
 62
     0
 10
199.344
 20
111.847
 30
0.0
 11
198.545
 21
111.847
 31
0.0
  0
LINE
  8
0
 62
     0
 10
198.545
 20
111.847
 30
0.0
 11
198.545
 21
112.848
 31
0.0
  0
LINE
  8
0
 62
     0
 10
198.545
 20
112.848
 30
0.0
 11
184.544
 21
112.848
 31
0.0
  0
LINE
  8
0
 62
     0
 10
165.494
 20
112.848
 30
0.0
 11
165.494
 21
111.847
 31
0.0
  0
LINE
  8
0
 62
     0
 10
165.494
 20
111.847
 30
0.0
 11
164.695
 21
111.847
 31
0.0
  0
LINE
  8
0
 62
     0
 10
164.695
 20
111.847
 30
0.0
 11
164.695
 21
108.747
 31
0.0
  0
LINE
  8
0
 62
     0
 10
164.695
 20
108.747
 30
0.0
 11
165.494
 21
108.747
 31
0.0
  0
LINE
  8
0
 62
     0
 10
165.494
 20
108.747
 30
0.0
 11
165.494
 21
102.948
 31
0.0
  0
LINE
  8
0
 62
     0
 10
165.494
 20
102.948
 30
0.0
 11
164.695
 21
102.948
 31
0.0
  0
LINE
  8
0
 62
     0
 10
164.695
 20
102.948
 30
0.0
 11
164.695
 21
99.847
 31
0.0
  0
LINE
  8
0
 62
     0
 10
164.695
 20
99.847
 30
0.0
 11
165.494
 21
99.847
 31
0.0
  0
LINE
  8
0
 62
     0
 10
165.494
 20
99.847
 30
0.0
 11
165.494
 21
98.8466
 31
0.0
  0
LINE
  8
0
 62
     0
 10
165.494
 20
98.8466
 30
0.0
 11
179.495
 21
98.8466
 31
0.0
  0
LINE
  8
0
 62
     0
 10
179.495
 20
98.8466
 30
0.0
 11
179.495
 21
99.847
 31
0.0
  0
LINE
  8
0
 62
     0
 10
179.495
 20
99.847
 30
0.0
 11
180.294
 21
99.847
 31
0.0
  0
LINE
  8
0
 62
     0
 10
180.294
 20
99.847
 30
0.0
 11
180.294
 21
102.948
 31
0.0
  0
LINE
  8
0
 62
     0
 10
180.294
 20
102.948
 30
0.0
 11
179.495
 21
102.948
 31
0.0
  0
LINE
  8
0
 62
     0
 10
179.495
 20
102.948
 30
0.0
 11
179.495
 21
108.747
 31
0.0
  0
LINE
  8
0
 62
     0
 10
179.495
 20
108.747
 30
0.0
 11
180.294
 21
108.747
 31
0.0
  0
LINE
  8
0
 62
     0
 10
180.294
 20
108.747
 30
0.0
 11
180.294
 21
111.847
 31
0.0
  0
LINE
  8
0
 62
     0
 10
180.294
 20
111.847
 30
0.0
 11
179.495
 21
111.847
 31
0.0
  0
LINE
  8
0
 62
     0
 10
179.495
 20
111.847
 30
0.0
 11
179.495
 21
112.848
 31
0.0
  0
LINE
  8
0
 62
     0
 10
179.495
 20
112.848
 30
0.0
 11
165.494
 21
112.848
 31
0.0
  0
LINE
  8
0
 62
     0
 10
146.444
 20
112.848
 30
0.0
 11
146.444
 21
111.847
 31
0.0
  0
LINE
  8
0
 62
     0
 10
146.444
 20
111.847
 30
0.0
 11
145.644
 21
111.847
 31
0.0
  0
LINE
  8
0
 62
     0
 10
145.644
 20
111.847
 30
0.0
 11
145.644
 21
108.747
 31
0.0
  0
LINE
  8
0
 62
     0
 10
145.644
 20
108.747
 30
0.0
 11
146.444
 21
108.747
 31
0.0
  0
LINE
  8
0
 62
     0
 10
146.444
 20
108.747
 30
0.0
 11
146.444
 21
102.948
 31
0.0
  0
LINE
  8
0
 62
     0
 10
146.444
 20
102.948
 30
0.0
 11
145.644
 21
102.948
 31
0.0
  0
LINE
  8
0
 62
     0
 10
145.644
 20
102.948
 30
0.0
 11
145.644
 21
99.847
 31
0.0
  0
LINE
  8
0
 62
     0
 10
145.644
 20
99.847
 30
0.0
 11
146.444
 21
99.847
 31
0.0
  0
LINE
  8
0
 62
     0
 10
146.444
 20
99.847
 30
0.0
 11
146.444
 21
98.8466
 31
0.0
  0
LINE
  8
0
 62
     0
 10
146.444
 20
98.8466
 30
0.0
 11
160.445
 21
98.8466
 31
0.0
  0
LINE
  8
0
 62
     0
 10
160.445
 20
98.8466
 30
0.0
 11
160.445
 21
99.847
 31
0.0
  0
LINE
  8
0
 62
     0
 10
160.445
 20
99.847
 30
0.0
 11
161.244
 21
99.847
 31
0.0
  0
LINE
  8
0
 62
     0
 10
161.244
 20
99.847
 30
0.0
 11
161.244
 21
102.948
 31
0.0
  0
LINE
  8
0
 62
     0
 10
161.244
 20
102.948
 30
0.0
 11
160.445
 21
102.948
 31
0.0
  0
LINE
  8
0
 62
     0
 10
160.445
 20
102.948
 30
0.0
 11
160.445
 21
108.747
 31
0.0
  0
LINE
  8
0
 62
     0
 10
160.445
 20
108.747
 30
0.0
 11
161.244
 21
108.747
 31
0.0
  0
LINE
  8
0
 62
     0
 10
161.244
 20
108.747
 30
0.0
 11
161.244
 21
111.847
 31
0.0
  0
LINE
  8
0
 62
     0
 10
161.244
 20
111.847
 30
0.0
 11
160.445
 21
111.847
 31
0.0
  0
LINE
  8
0
 62
     0
 10
160.445
 20
111.847
 30
0.0
 11
160.445
 21
112.848
 31
0.0
  0
LINE
  8
0
 62
     0
 10
160.445
 20
112.848
 30
0.0
 11
146.444
 21
112.848
 31
0.0
  0
LINE
  8
0
 62
     0
 10
127.394
 20
112.848
 30
0.0
 11
127.394
 21
111.847
 31
0.0
  0
LINE
  8
0
 62
     0
 10
127.394
 20
111.847
 30
0.0
 11
126.594
 21
111.847
 31
0.0
  0
LINE
  8
0
 62
     0
 10
126.594
 20
111.847
 30
0.0
 11
126.594
 21
108.747
 31
0.0
  0
LINE
  8
0
 62
     0
 10
126.594
 20
108.747
 30
0.0
 11
127.394
 21
108.747
 31
0.0
  0
LINE
  8
0
 62
     0
 10
127.394
 20
108.747
 30
0.0
 11
127.394
 21
102.948
 31
0.0
  0
LINE
  8
0
 62
     0
 10
127.394
 20
102.948
 30
0.0
 11
126.594
 21
102.948
 31
0.0
  0
LINE
  8
0
 62
     0
 10
126.594
 20
102.948
 30
0.0
 11
126.594
 21
99.847
 31
0.0
  0
LINE
  8
0
 62
     0
 10
126.594
 20
99.847
 30
0.0
 11
127.394
 21
99.847
 31
0.0
  0
LINE
  8
0
 62
     0
 10
127.394
 20
99.847
 30
0.0
 11
127.394
 21
98.8466
 31
0.0
  0
LINE
  8
0
 62
     0
 10
127.394
 20
98.8466
 30
0.0
 11
141.394
 21
98.8466
 31
0.0
  0
LINE
  8
0
 62
     0
 10
141.394
 20
98.8466
 30
0.0
 11
141.394
 21
99.847
 31
0.0
  0
LINE
  8
0
 62
     0
 10
141.394
 20
99.847
 30
0.0
 11
142.194
 21
99.847
 31
0.0
  0
LINE
  8
0
 62
     0
 10
142.194
 20
99.847
 30
0.0
 11
142.194
 21
102.948
 31
0.0
  0
LINE
  8
0
 62
     0
 10
142.194
 20
102.948
 30
0.0
 11
141.394
 21
102.948
 31
0.0
  0
LINE
  8
0
 62
     0
 10
141.394
 20
102.948
 30
0.0
 11
141.394
 21
108.747
 31
0.0
  0
LINE
  8
0
 62
     0
 10
141.394
 20
108.747
 30
0.0
 11
142.194
 21
108.747
 31
0.0
  0
LINE
  8
0
 62
     0
 10
142.194
 20
108.747
 30
0.0
 11
142.194
 21
111.847
 31
0.0
  0
LINE
  8
0
 62
     0
 10
142.194
 20
111.847
 30
0.0
 11
141.394
 21
111.847
 31
0.0
  0
LINE
  8
0
 62
     0
 10
141.394
 20
111.847
 30
0.0
 11
141.394
 21
112.848
 31
0.0
  0
LINE
  8
0
 62
     0
 10
141.394
 20
112.848
 30
0.0
 11
127.394
 21
112.848
 31
0.0
  0
LINE
  8
0
 62
     0
 10
108.344
 20
112.848
 30
0.0
 11
108.344
 21
111.847
 31
0.0
  0
LINE
  8
0
 62
     0
 10
108.344
 20
111.847
 30
0.0
 11
107.544
 21
111.847
 31
0.0
  0
LINE
  8
0
 62
     0
 10
107.544
 20
111.847
 30
0.0
 11
107.544
 21
108.747
 31
0.0
  0
LINE
  8
0
 62
     0
 10
107.544
 20
108.747
 30
0.0
 11
108.344
 21
108.747
 31
0.0
  0
LINE
  8
0
 62
     0
 10
108.344
 20
108.747
 30
0.0
 11
108.344
 21
102.948
 31
0.0
  0
LINE
  8
0
 62
     0
 10
108.344
 20
102.948
 30
0.0
 11
107.544
 21
102.948
 31
0.0
  0
LINE
  8
0
 62
     0
 10
107.544
 20
102.948
 30
0.0
 11
107.544
 21
99.847
 31
0.0
  0
LINE
  8
0
 62
     0
 10
107.544
 20
99.847
 30
0.0
 11
108.344
 21
99.847
 31
0.0
  0
LINE
  8
0
 62
     0
 10
108.344
 20
99.847
 30
0.0
 11
108.344
 21
98.8466
 31
0.0
  0
LINE
  8
0
 62
     0
 10
108.344
 20
98.8466
 30
0.0
 11
122.344
 21
98.8466
 31
0.0
  0
LINE
  8
0
 62
     0
 10
122.344
 20
98.8466
 30
0.0
 11
122.344
 21
99.847
 31
0.0
  0
LINE
  8
0
 62
     0
 10
122.344
 20
99.847
 30
0.0
 11
123.143
 21
99.847
 31
0.0
  0
LINE
  8
0
 62
     0
 10
123.143
 20
99.847
 30
0.0
 11
123.143
 21
102.948
 31
0.0
  0
LINE
  8
0
 62
     0
 10
123.143
 20
102.948
 30
0.0
 11
122.344
 21
102.948
 31
0.0
  0
LINE
  8
0
 62
     0
 10
122.344
 20
102.948
 30
0.0
 11
122.344
 21
108.747
 31
0.0
  0
LINE
  8
0
 62
     0
 10
122.344
 20
108.747
 30
0.0
 11
123.143
 21
108.747
 31
0.0
  0
LINE
  8
0
 62
     0
 10
123.143
 20
108.747
 30
0.0
 11
123.143
 21
111.847
 31
0.0
  0
LINE
  8
0
 62
     0
 10
123.143
 20
111.847
 30
0.0
 11
122.344
 21
111.847
 31
0.0
  0
LINE
  8
0
 62
     0
 10
122.344
 20
111.847
 30
0.0
 11
122.344
 21
112.848
 31
0.0
  0
LINE
  8
0
 62
     0
 10
122.344
 20
112.848
 30
0.0
 11
108.344
 21
112.848
 31
0.0
  0
LINE
  8
0
 62
     0
 10
89.2941
 20
112.848
 30
0.0
 11
89.2941
 21
111.847
 31
0.0
  0
LINE
  8
0
 62
     0
 10
89.2941
 20
111.847
 30
0.0
 11
88.4936
 21
111.847
 31
0.0
  0
LINE
  8
0
 62
     0
 10
88.4936
 20
111.847
 30
0.0
 11
88.4936
 21
108.747
 31
0.0
  0
LINE
  8
0
 62
     0
 10
88.4936
 20
108.747
 30
0.0
 11
89.2941
 21
108.747
 31
0.0
  0
LINE
  8
0
 62
     0
 10
89.2941
 20
108.747
 30
0.0
 11
89.2941
 21
102.948
 31
0.0
  0
LINE
  8
0
 62
     0
 10
89.2941
 20
102.948
 30
0.0
 11
88.4936
 21
102.948
 31
0.0
  0
LINE
  8
0
 62
     0
 10
88.4936
 20
102.948
 30
0.0
 11
88.4936
 21
99.847
 31
0.0
  0
LINE
  8
0
 62
     0
 10
88.4936
 20
99.847
 30
0.0
 11
89.2941
 21
99.847
 31
0.0
  0
LINE
  8
0
 62
     0
 10
89.2941
 20
99.847
 30
0.0
 11
89.2941
 21
98.8466
 31
0.0
  0
LINE
  8
0
 62
     0
 10
89.2941
 20
98.8466
 30
0.0
 11
103.294
 21
98.8466
 31
0.0
  0
LINE
  8
0
 62
     0
 10
103.294
 20
98.8466
 30
0.0
 11
103.294
 21
99.847
 31
0.0
  0
LINE
  8
0
 62
     0
 10
103.294
 20
99.847
 30
0.0
 11
104.093
 21
99.847
 31
0.0
  0
LINE
  8
0
 62
     0
 10
104.093
 20
99.847
 30
0.0
 11
104.093
 21
102.948
 31
0.0
  0
LINE
  8
0
 62
     0
 10
104.093
 20
102.948
 30
0.0
 11
103.294
 21
102.948
 31
0.0
  0
LINE
  8
0
 62
     0
 10
103.294
 20
102.948
 30
0.0
 11
103.294
 21
108.747
 31
0.0
  0
LINE
  8
0
 62
     0
 10
103.294
 20
108.747
 30
0.0
 11
104.093
 21
108.747
 31
0.0
  0
LINE
  8
0
 62
     0
 10
104.093
 20
108.747
 30
0.0
 11
104.093
 21
111.847
 31
0.0
  0
LINE
  8
0
 62
     0
 10
104.093
 20
111.847
 30
0.0
 11
103.294
 21
111.847
 31
0.0
  0
LINE
  8
0
 62
     0
 10
103.294
 20
111.847
 30
0.0
 11
103.294
 21
112.848
 31
0.0
  0
LINE
  8
0
 62
     0
 10
103.294
 20
112.848
 30
0.0
 11
89.2941
 21
112.848
 31
0.0
  0
LINE
  8
0
 62
     0
 10
70.2441
 20
112.848
 30
0.0
 11
70.2441
 21
111.847
 31
0.0
  0
LINE
  8
0
 62
     0
 10
70.2441
 20
111.847
 30
0.0
 11
69.445
 21
111.847
 31
0.0
  0
LINE
  8
0
 62
     0
 10
69.445
 20
111.847
 30
0.0
 11
69.445
 21
108.747
 31
0.0
  0
LINE
  8
0
 62
     0
 10
69.445
 20
108.747
 30
0.0
 11
70.2441
 21
108.747
 31
0.0
  0
LINE
  8
0
 62
     0
 10
70.2441
 20
108.747
 30
0.0
 11
70.2441
 21
102.948
 31
0.0
  0
LINE
  8
0
 62
     0
 10
70.2441
 20
102.948
 30
0.0
 11
69.445
 21
102.948
 31
0.0
  0
LINE
  8
0
 62
     0
 10
69.445
 20
102.948
 30
0.0
 11
69.445
 21
99.847
 31
0.0
  0
LINE
  8
0
 62
     0
 10
69.445
 20
99.847
 30
0.0
 11
70.2441
 21
99.847
 31
0.0
  0
LINE
  8
0
 62
     0
 10
70.2441
 20
99.847
 30
0.0
 11
70.2441
 21
98.8466
 31
0.0
  0
LINE
  8
0
 62
     0
 10
70.2441
 20
98.8466
 30
0.0
 11
84.2437
 21
98.8466
 31
0.0
  0
LINE
  8
0
 62
     0
 10
84.2437
 20
98.8466
 30
0.0
 11
84.2437
 21
99.847
 31
0.0
  0
LINE
  8
0
 62
     0
 10
84.2437
 20
99.847
 30
0.0
 11
85.0427
 21
99.847
 31
0.0
  0
LINE
  8
0
 62
     0
 10
85.0427
 20
99.847
 30
0.0
 11
85.0427
 21
102.948
 31
0.0
  0
LINE
  8
0
 62
     0
 10
85.0427
 20
102.948
 30
0.0
 11
84.2437
 21
102.948
 31
0.0
  0
LINE
  8
0
 62
     0
 10
84.2437
 20
102.948
 30
0.0
 11
84.2437
 21
108.747
 31
0.0
  0
LINE
  8
0
 62
     0
 10
84.2437
 20
108.747
 30
0.0
 11
85.0427
 21
108.747
 31
0.0
  0
LINE
  8
0
 62
     0
 10
85.0427
 20
108.747
 30
0.0
 11
85.0427
 21
111.847
 31
0.0
  0
LINE
  8
0
 62
     0
 10
85.0427
 20
111.847
 30
0.0
 11
84.2437
 21
111.847
 31
0.0
  0
LINE
  8
0
 62
     0
 10
84.2437
 20
111.847
 30
0.0
 11
84.2437
 21
112.848
 31
0.0
  0
LINE
  8
0
 62
     0
 10
84.2437
 20
112.848
 30
0.0
 11
70.2441
 21
112.848
 31
0.0
  0
LINE
  8
0
 62
     0
 10
51.1941
 20
112.848
 30
0.0
 11
51.1941
 21
111.847
 31
0.0
  0
LINE
  8
0
 62
     0
 10
51.1941
 20
111.847
 30
0.0
 11
50.395
 21
111.847
 31
0.0
  0
LINE
  8
0
 62
     0
 10
50.395
 20
111.847
 30
0.0
 11
50.395
 21
108.747
 31
0.0
  0
LINE
  8
0
 62
     0
 10
50.395
 20
108.747
 30
0.0
 11
51.1941
 21
108.747
 31
0.0
  0
LINE
  8
0
 62
     0
 10
51.1941
 20
108.747
 30
0.0
 11
51.1941
 21
102.948
 31
0.0
  0
LINE
  8
0
 62
     0
 10
51.1941
 20
102.948
 30
0.0
 11
50.395
 21
102.948
 31
0.0
  0
LINE
  8
0
 62
     0
 10
50.395
 20
102.948
 30
0.0
 11
50.395
 21
99.847
 31
0.0
  0
LINE
  8
0
 62
     0
 10
50.395
 20
99.847
 30
0.0
 11
51.1941
 21
99.847
 31
0.0
  0
LINE
  8
0
 62
     0
 10
51.1941
 20
99.847
 30
0.0
 11
51.1941
 21
98.8466
 31
0.0
  0
LINE
  8
0
 62
     0
 10
51.1941
 20
98.8466
 30
0.0
 11
65.1951
 21
98.8466
 31
0.0
  0
LINE
  8
0
 62
     0
 10
65.1951
 20
98.8466
 30
0.0
 11
65.1951
 21
99.847
 31
0.0
  0
LINE
  8
0
 62
     0
 10
65.1951
 20
99.847
 30
0.0
 11
65.9927
 21
99.847
 31
0.0
  0
LINE
  8
0
 62
     0
 10
65.9927
 20
99.847
 30
0.0
 11
65.9927
 21
102.948
 31
0.0
  0
LINE
  8
0
 62
     0
 10
65.9927
 20
102.948
 30
0.0
 11
65.1951
 21
102.948
 31
0.0
  0
LINE
  8
0
 62
     0
 10
65.1951
 20
102.948
 30
0.0
 11
65.1951
 21
108.747
 31
0.0
  0
LINE
  8
0
 62
     0
 10
65.1951
 20
108.747
 30
0.0
 11
65.9927
 21
108.747
 31
0.0
  0
LINE
  8
0
 62
     0
 10
65.9927
 20
108.747
 30
0.0
 11
65.9927
 21
111.847
 31
0.0
  0
LINE
  8
0
 62
     0
 10
65.9927
 20
111.847
 30
0.0
 11
65.1951
 21
111.847
 31
0.0
  0
LINE
  8
0
 62
     0
 10
65.1951
 20
111.847
 30
0.0
 11
65.1951
 21
112.848
 31
0.0
  0
LINE
  8
0
 62
     0
 10
65.1951
 20
112.848
 30
0.0
 11
51.1941
 21
112.848
 31
0.0
  0
LINE
  8
0
 62
     0
 10
32.1441
 20
112.848
 30
0.0
 11
32.1441
 21
111.847
 31
0.0
  0
LINE
  8
0
 62
     0
 10
32.1441
 20
111.847
 30
0.0
 11
31.3449
 21
111.847
 31
0.0
  0
LINE
  8
0
 62
     0
 10
31.3449
 20
111.847
 30
0.0
 11
31.3449
 21
108.747
 31
0.0
  0
LINE
  8
0
 62
     0
 10
31.3449
 20
108.747
 30
0.0
 11
32.1441
 21
108.747
 31
0.0
  0
LINE
  8
0
 62
     0
 10
32.1441
 20
108.747
 30
0.0
 11
32.1441
 21
102.948
 31
0.0
  0
LINE
  8
0
 62
     0
 10
32.1441
 20
102.948
 30
0.0
 11
31.3449
 21
102.948
 31
0.0
  0
LINE
  8
0
 62
     0
 10
31.3449
 20
102.948
 30
0.0
 11
31.3449
 21
99.847
 31
0.0
  0
LINE
  8
0
 62
     0
 10
31.3449
 20
99.847
 30
0.0
 11
32.1441
 21
99.847
 31
0.0
  0
LINE
  8
0
 62
     0
 10
32.1441
 20
99.847
 30
0.0
 11
32.1441
 21
98.8466
 31
0.0
  0
LINE
  8
0
 62
     0
 10
32.1441
 20
98.8466
 30
0.0
 11
46.1451
 21
98.8466
 31
0.0
  0
LINE
  8
0
 62
     0
 10
46.1451
 20
98.8466
 30
0.0
 11
46.1451
 21
99.847
 31
0.0
  0
LINE
  8
0
 62
     0
 10
46.1451
 20
99.847
 30
0.0
 11
46.9427
 21
99.847
 31
0.0
  0
LINE
  8
0
 62
     0
 10
46.9427
 20
99.847
 30
0.0
 11
46.9427
 21
102.948
 31
0.0
  0
LINE
  8
0
 62
     0
 10
46.9427
 20
102.948
 30
0.0
 11
46.1451
 21
102.948
 31
0.0
  0
LINE
  8
0
 62
     0
 10
46.1451
 20
102.948
 30
0.0
 11
46.1451
 21
108.747
 31
0.0
  0
LINE
  8
0
 62
     0
 10
46.1451
 20
108.747
 30
0.0
 11
46.9427
 21
108.747
 31
0.0
  0
LINE
  8
0
 62
     0
 10
46.9427
 20
108.747
 30
0.0
 11
46.9427
 21
111.847
 31
0.0
  0
LINE
  8
0
 62
     0
 10
46.9427
 20
111.847
 30
0.0
 11
46.1451
 21
111.847
 31
0.0
  0
LINE
  8
0
 62
     0
 10
46.1451
 20
111.847
 30
0.0
 11
46.1451
 21
112.848
 31
0.0
  0
LINE
  8
0
 62
     0
 10
46.1451
 20
112.848
 30
0.0
 11
32.1441
 21
112.848
 31
0.0
  0
ENDSEC
  0
EOF
