  0
SECTION
  2
HEADER
  9
$ACADVER
  1
AC1009
  9
$EXTMIN
 10
0.0
 20
0.0
 30
0.0
  9
$EXTMAX
 10
1000.0
 20
1000.0
 30
0.0
  9
$FILLMODE
 70
 0
  9
$SPLFRAME
 70
 1
  0
ENDSEC
  0
SECTION
  2
TABLES
  0
TABLE
  2
LAYER
 70
1
  0
LAYER
  2
0
 70
     0
 62
     7
  6
CONTINUOUS
  0
ENDTAB
  0
ENDSEC
  0
SECTION
  2
ENTITIES
  0
LINE
  8
0
 62
     0
 10
261.796
 20
95.3424
 30
0.0
 11
262.188
 21
95.3273
 31
0.0
  0
LINE
  8
0
 62
     0
 10
262.188
 20
95.3273
 30
0.0
 11
262.578
 21
95.2817
 31
0.0
  0
LINE
  8
0
 62
     0
 10
262.578
 20
95.2817
 30
0.0
 11
262.963
 21
95.2045
 31
0.0
  0
LINE
  8
0
 62
     0
 10
262.963
 20
95.2045
 30
0.0
 11
263.34
 21
95.0983
 31
0.0
  0
LINE
  8
0
 62
     0
 10
263.34
 20
95.0983
 30
0.0
 11
263.708
 21
94.9621
 31
0.0
  0
LINE
  8
0
 62
     0
 10
263.708
 20
94.9621
 30
0.0
 11
264.065
 21
94.7981
 31
0.0
  0
LINE
  8
0
 62
     0
 10
264.065
 20
94.7981
 30
0.0
 11
264.408
 21
94.6065
 31
0.0
  0
LINE
  8
0
 62
     0
 10
264.408
 20
94.6065
 30
0.0
 11
264.734
 21
94.3889
 31
0.0
  0
LINE
  8
0
 62
     0
 10
264.734
 20
94.3889
 30
0.0
 11
265.042
 21
94.1462
 31
0.0
  0
LINE
  8
0
 62
     0
 10
265.042
 20
94.1462
 30
0.0
 11
265.33
 21
93.8788
 31
0.0
  0
LINE
  8
0
 62
     0
 10
265.33
 20
93.8788
 30
0.0
 11
265.598
 21
93.5909
 31
0.0
  0
LINE
  8
0
 62
     0
 10
265.598
 20
93.5909
 30
0.0
 11
265.84
 21
93.2822
 31
0.0
  0
LINE
  8
0
 62
     0
 10
265.84
 20
93.2822
 30
0.0
 11
266.059
 21
92.9555
 31
0.0
  0
LINE
  8
0
 62
     0
 10
266.059
 20
92.9555
 30
0.0
 11
266.251
 21
92.6123
 31
0.0
  0
LINE
  8
0
 62
     0
 10
266.251
 20
92.6123
 30
0.0
 11
266.415
 21
92.257
 31
0.0
  0
LINE
  8
0
 62
     0
 10
266.415
 20
92.257
 30
0.0
 11
266.551
 21
91.8891
 31
0.0
  0
LINE
  8
0
 62
     0
 10
266.551
 20
91.8891
 30
0.0
 11
266.657
 21
91.5099
 31
0.0
  0
LINE
  8
0
 62
     0
 10
266.657
 20
91.5099
 30
0.0
 11
266.733
 21
91.1257
 31
0.0
  0
LINE
  8
0
 62
     0
 10
266.733
 20
91.1257
 30
0.0
 11
266.78
 21
90.7355
 31
0.0
  0
LINE
  8
0
 62
     0
 10
266.78
 20
90.7355
 30
0.0
 11
266.795
 21
90.3429
 31
0.0
  0
LINE
  8
0
 62
     0
 10
266.795
 20
90.3429
 30
0.0
 11
266.795
 21
5.09323
 31
0.0
  0
LINE
  8
0
 62
     0
 10
266.795
 20
5.09323
 30
0.0
 11
266.78
 21
4.69911
 31
0.0
  0
LINE
  8
0
 62
     0
 10
266.78
 20
4.69911
 30
0.0
 11
266.733
 21
4.30911
 31
0.0
  0
LINE
  8
0
 62
     0
 10
266.733
 20
4.30911
 30
0.0
 11
266.657
 21
3.92465
 31
0.0
  0
LINE
  8
0
 62
     0
 10
266.657
 20
3.92465
 30
0.0
 11
266.551
 21
3.54707
 31
0.0
  0
LINE
  8
0
 62
     0
 10
266.551
 20
3.54707
 30
0.0
 11
266.415
 21
3.17913
 31
0.0
  0
LINE
  8
0
 62
     0
 10
266.415
 20
3.17913
 30
0.0
 11
266.251
 21
2.82222
 31
0.0
  0
LINE
  8
0
 62
     0
 10
266.251
 20
2.82222
 30
0.0
 11
266.059
 21
2.47909
 31
0.0
  0
LINE
  8
0
 62
     0
 10
266.059
 20
2.47909
 30
0.0
 11
265.84
 21
2.15387
 31
0.0
  0
LINE
  8
0
 62
     0
 10
265.84
 20
2.15387
 30
0.0
 11
265.598
 21
1.84519
 31
0.0
  0
LINE
  8
0
 62
     0
 10
265.598
 20
1.84519
 30
0.0
 11
265.33
 21
1.55718
 31
0.0
  0
LINE
  8
0
 62
     0
 10
265.33
 20
1.55718
 30
0.0
 11
265.042
 21
1.28984
 31
0.0
  0
LINE
  8
0
 62
     0
 10
265.042
 20
1.28984
 30
0.0
 11
264.734
 21
1.04731
 31
0.0
  0
LINE
  8
0
 62
     0
 10
264.734
 20
1.04731
 30
0.0
 11
264.408
 21
0.828202
 31
0.0
  0
LINE
  8
0
 62
     0
 10
264.408
 20
0.828202
 30
0.0
 11
264.065
 21
0.636655
 31
0.0
  0
LINE
  8
0
 62
     0
 10
264.065
 20
0.636655
 30
0.0
 11
263.708
 21
0.472666
 31
0.0
  0
LINE
  8
0
 62
     0
 10
263.708
 20
0.472666
 30
0.0
 11
263.34
 21
0.336241
 31
0.0
  0
LINE
  8
0
 62
     0
 10
263.34
 20
0.336241
 30
0.0
 11
262.963
 21
0.230132
 31
0.0
  0
LINE
  8
0
 62
     0
 10
262.963
 20
0.230132
 30
0.0
 11
262.578
 21
0.15434
 31
0.0
  0
LINE
  8
0
 62
     0
 10
262.578
 20
0.15434
 30
0.0
 11
262.188
 21
0.107487
 31
0.0
  0
LINE
  8
0
 62
     0
 10
262.188
 20
0.107487
 30
0.0
 11
261.796
 21
0.0923286
 31
0.0
  0
LINE
  8
0
 62
     0
 10
261.796
 20
0.0923286
 30
0.0
 11
5.0946
 21
0.0923286
 31
0.0
  0
LINE
  8
0
 62
     0
 10
5.0946
 20
0.0923286
 30
0.0
 11
4.70186
 21
0.107487
 31
0.0
  0
LINE
  8
0
 62
     0
 10
4.70186
 20
0.107487
 30
0.0
 11
4.3119
 21
0.15434
 31
0.0
  0
LINE
  8
0
 62
     0
 10
4.3119
 20
0.15434
 30
0.0
 11
3.9274
 21
0.230132
 31
0.0
  0
LINE
  8
0
 62
     0
 10
3.9274
 20
0.230132
 30
0.0
 11
3.54845
 21
0.336241
 31
0.0
  0
LINE
  8
0
 62
     0
 10
3.54845
 20
0.336241
 30
0.0
 11
3.18051
 21
0.472666
 31
0.0
  0
LINE
  8
0
 62
     0
 10
3.18051
 20
0.472666
 30
0.0
 11
2.82498
 21
0.636655
 31
0.0
  0
LINE
  8
0
 62
     0
 10
2.82498
 20
0.636655
 30
0.0
 11
2.48185
 21
0.828202
 31
0.0
  0
LINE
  8
0
 62
     0
 10
2.48185
 20
0.828202
 30
0.0
 11
2.15525
 21
1.04731
 31
0.0
  0
LINE
  8
0
 62
     0
 10
2.15525
 20
1.04731
 30
0.0
 11
1.84657
 21
1.28984
 31
0.0
  0
LINE
  8
0
 62
     0
 10
1.84657
 20
1.28984
 30
0.0
 11
1.55856
 21
1.55718
 31
0.0
  0
LINE
  8
0
 62
     0
 10
1.55856
 20
1.55718
 30
0.0
 11
1.29122
 21
1.84519
 31
0.0
  0
LINE
  8
0
 62
     0
 10
1.29122
 20
1.84519
 30
0.0
 11
1.04869
 21
2.15387
 31
0.0
  0
LINE
  8
0
 62
     0
 10
1.04869
 20
2.15387
 30
0.0
 11
0.830957
 21
2.47909
 31
0.0
  0
LINE
  8
0
 62
     0
 10
0.830957
 20
2.47909
 30
0.0
 11
0.63941
 21
2.82222
 31
0.0
  0
LINE
  8
0
 62
     0
 10
0.63941
 20
2.82222
 30
0.0
 11
0.475424
 21
3.17913
 31
0.0
  0
LINE
  8
0
 62
     0
 10
0.475424
 20
3.17913
 30
0.0
 11
0.338998
 21
3.54707
 31
0.0
  0
LINE
  8
0
 62
     0
 10
0.338998
 20
3.54707
 30
0.0
 11
0.232888
 21
3.92465
 31
0.0
  0
LINE
  8
0
 62
     0
 10
0.232888
 20
3.92465
 30
0.0
 11
0.155718
 21
4.30911
 31
0.0
  0
LINE
  8
0
 62
     0
 10
0.155718
 20
4.30911
 30
0.0
 11
0.110243
 21
4.69911
 31
0.0
  0
LINE
  8
0
 62
     0
 10
0.110243
 20
4.69911
 30
0.0
 11
0.0937066
 21
5.09323
 31
0.0
  0
LINE
  8
0
 62
     0
 10
0.0937066
 20
5.09323
 30
0.0
 11
0.0950846
 21
90.3429
 31
0.0
  0
LINE
  8
0
 62
     0
 10
0.0950846
 20
90.3429
 30
0.0
 11
0.110243
 21
90.7355
 31
0.0
  0
LINE
  8
0
 62
     0
 10
0.110243
 20
90.7355
 30
0.0
 11
0.155718
 21
91.1257
 31
0.0
  0
LINE
  8
0
 62
     0
 10
0.155718
 20
91.1257
 30
0.0
 11
0.232888
 21
91.5099
 31
0.0
  0
LINE
  8
0
 62
     0
 10
0.232888
 20
91.5099
 30
0.0
 11
0.338998
 21
91.8891
 31
0.0
  0
LINE
  8
0
 62
     0
 10
0.338998
 20
91.8891
 30
0.0
 11
0.475424
 21
92.257
 31
0.0
  0
LINE
  8
0
 62
     0
 10
0.475424
 20
92.257
 30
0.0
 11
0.63941
 21
92.6123
 31
0.0
  0
LINE
  8
0
 62
     0
 10
0.63941
 20
92.6123
 30
0.0
 11
0.830957
 21
92.9555
 31
0.0
  0
LINE
  8
0
 62
     0
 10
0.830957
 20
92.9555
 30
0.0
 11
1.04869
 21
93.2822
 31
0.0
  0
LINE
  8
0
 62
     0
 10
1.04869
 20
93.2822
 30
0.0
 11
1.29122
 21
93.5909
 31
0.0
  0
LINE
  8
0
 62
     0
 10
1.29122
 20
93.5909
 30
0.0
 11
1.55856
 21
93.8788
 31
0.0
  0
LINE
  8
0
 62
     0
 10
1.55856
 20
93.8788
 30
0.0
 11
1.84657
 21
94.1462
 31
0.0
  0
LINE
  8
0
 62
     0
 10
1.84657
 20
94.1462
 30
0.0
 11
2.15525
 21
94.3889
 31
0.0
  0
LINE
  8
0
 62
     0
 10
2.15525
 20
94.3889
 30
0.0
 11
2.48185
 21
94.6065
 31
0.0
  0
LINE
  8
0
 62
     0
 10
2.48185
 20
94.6065
 30
0.0
 11
2.82498
 21
94.7981
 31
0.0
  0
LINE
  8
0
 62
     0
 10
2.82498
 20
94.7981
 30
0.0
 11
3.18051
 21
94.9621
 31
0.0
  0
LINE
  8
0
 62
     0
 10
3.18051
 20
94.9621
 30
0.0
 11
3.54845
 21
95.0983
 31
0.0
  0
LINE
  8
0
 62
     0
 10
3.54845
 20
95.0983
 30
0.0
 11
3.9274
 21
95.2045
 31
0.0
  0
LINE
  8
0
 62
     0
 10
3.9274
 20
95.2045
 30
0.0
 11
4.3119
 21
95.2817
 31
0.0
  0
LINE
  8
0
 62
     0
 10
4.3119
 20
95.2817
 30
0.0
 11
4.70186
 21
95.3273
 31
0.0
  0
LINE
  8
0
 62
     0
 10
4.70186
 20
95.3273
 30
0.0
 11
5.0946
 21
95.3438
 31
0.0
  0
LINE
  8
0
 62
     0
 10
5.0946
 20
95.3438
 30
0.0
 11
261.796
 21
95.3424
 31
0.0
  0
LINE
  8
0
 62
     0
 10
135.97
 20
16.6178
 30
0.0
 11
135.97
 21
15.6173
 31
0.0
  0
LINE
  8
0
 62
     0
 10
135.97
 20
15.6173
 30
0.0
 11
135.17
 21
15.6173
 31
0.0
  0
LINE
  8
0
 62
     0
 10
135.17
 20
15.6173
 30
0.0
 11
135.17
 21
12.5181
 31
0.0
  0
LINE
  8
0
 62
     0
 10
135.17
 20
12.5181
 30
0.0
 11
135.97
 21
12.5181
 31
0.0
  0
LINE
  8
0
 62
     0
 10
135.97
 20
12.5181
 30
0.0
 11
135.97
 21
11.9173
 31
0.0
  0
LINE
  8
0
 62
     0
 10
135.97
 20
11.9173
 30
0.0
 11
89.3202
 21
11.9173
 31
0.0
  0
LINE
  8
0
 62
     0
 10
89.3202
 20
11.9173
 30
0.0
 11
89.3202
 21
15.1474
 31
0.0
  0
LINE
  8
0
 62
     0
 10
89.3202
 20
15.1474
 30
0.0
 11
87.5951
 21
15.1474
 31
0.0
  0
LINE
  8
0
 62
     0
 10
87.5951
 20
15.1474
 30
0.0
 11
87.5951
 21
16.0693
 31
0.0
  0
LINE
  8
0
 62
     0
 10
87.5951
 20
16.0693
 30
0.0
 11
84.2945
 21
16.0693
 31
0.0
  0
LINE
  8
0
 62
     0
 10
84.2945
 20
16.0693
 30
0.0
 11
84.2945
 21
15.1474
 31
0.0
  0
LINE
  8
0
 62
     0
 10
84.2945
 20
15.1474
 30
0.0
 11
82.5694
 21
15.1474
 31
0.0
  0
LINE
  8
0
 62
     0
 10
82.5694
 20
15.1474
 30
0.0
 11
82.5694
 21
11.9173
 31
0.0
  0
LINE
  8
0
 62
     0
 10
82.5694
 20
11.9173
 30
0.0
 11
81.7453
 21
11.9173
 31
0.0
  0
LINE
  8
0
 62
     0
 10
81.7453
 20
11.9173
 30
0.0
 11
81.7453
 21
9.11712
 31
0.0
  0
LINE
  8
0
 62
     0
 10
81.7453
 20
9.11712
 30
0.0
 11
82.5694
 21
9.11712
 31
0.0
  0
LINE
  8
0
 62
     0
 10
82.5694
 20
9.11712
 30
0.0
 11
82.5694
 21
2.84841
 31
0.0
  0
LINE
  8
0
 62
     0
 10
82.5694
 20
2.84841
 30
0.0
 11
84.2945
 21
2.84841
 31
0.0
  0
LINE
  8
0
 62
     0
 10
84.2945
 20
2.84841
 30
0.0
 11
84.2945
 21
1.86724
 31
0.0
  0
LINE
  8
0
 62
     0
 10
84.2945
 20
1.86724
 30
0.0
 11
87.5951
 21
1.86724
 31
0.0
  0
LINE
  8
0
 62
     0
 10
87.5951
 20
1.86724
 30
0.0
 11
87.5951
 21
2.84841
 31
0.0
  0
LINE
  8
0
 62
     0
 10
87.5951
 20
2.84841
 30
0.0
 11
89.3202
 21
2.84841
 31
0.0
  0
LINE
  8
0
 62
     0
 10
89.3202
 20
2.84841
 30
0.0
 11
89.3202
 21
7.31876
 31
0.0
  0
LINE
  8
0
 62
     0
 10
89.3202
 20
7.31876
 30
0.0
 11
135.97
 21
7.31876
 31
0.0
  0
LINE
  8
0
 62
     0
 10
135.97
 20
7.31876
 30
0.0
 11
135.97
 21
6.71795
 31
0.0
  0
LINE
  8
0
 62
     0
 10
135.97
 20
6.71795
 30
0.0
 11
135.17
 21
6.71795
 31
0.0
  0
LINE
  8
0
 62
     0
 10
135.17
 20
6.71795
 30
0.0
 11
135.17
 21
3.61735
 31
0.0
  0
LINE
  8
0
 62
     0
 10
135.17
 20
3.61735
 30
0.0
 11
135.97
 21
3.61735
 31
0.0
  0
LINE
  8
0
 62
     0
 10
135.97
 20
3.61735
 30
0.0
 11
135.97
 21
2.61827
 31
0.0
  0
LINE
  8
0
 62
     0
 10
135.97
 20
2.61827
 30
0.0
 11
149.969
 21
2.61827
 31
0.0
  0
LINE
  8
0
 62
     0
 10
149.969
 20
2.61827
 30
0.0
 11
149.969
 21
3.61735
 31
0.0
  0
LINE
  8
0
 62
     0
 10
149.969
 20
3.61735
 30
0.0
 11
150.77
 21
3.61735
 31
0.0
  0
LINE
  8
0
 62
     0
 10
150.77
 20
3.61735
 30
0.0
 11
150.77
 21
6.71795
 31
0.0
  0
LINE
  8
0
 62
     0
 10
150.77
 20
6.71795
 30
0.0
 11
149.969
 21
6.71795
 31
0.0
  0
LINE
  8
0
 62
     0
 10
149.969
 20
6.71795
 30
0.0
 11
149.969
 21
7.31876
 31
0.0
  0
LINE
  8
0
 62
     0
 10
149.969
 20
7.31876
 30
0.0
 11
177.57
 21
7.31876
 31
0.0
  0
LINE
  8
0
 62
     0
 10
177.57
 20
7.31876
 30
0.0
 11
177.57
 21
2.84841
 31
0.0
  0
LINE
  8
0
 62
     0
 10
177.57
 20
2.84841
 30
0.0
 11
179.295
 21
2.84841
 31
0.0
  0
LINE
  8
0
 62
     0
 10
179.295
 20
2.84841
 30
0.0
 11
179.295
 21
1.86724
 31
0.0
  0
LINE
  8
0
 62
     0
 10
179.295
 20
1.86724
 30
0.0
 11
182.594
 21
1.86724
 31
0.0
  0
LINE
  8
0
 62
     0
 10
182.594
 20
1.86724
 30
0.0
 11
182.594
 21
2.84841
 31
0.0
  0
LINE
  8
0
 62
     0
 10
182.594
 20
2.84841
 30
0.0
 11
184.319
 21
2.84841
 31
0.0
  0
LINE
  8
0
 62
     0
 10
184.319
 20
2.84841
 30
0.0
 11
184.319
 21
9.11712
 31
0.0
  0
LINE
  8
0
 62
     0
 10
184.319
 20
9.11712
 30
0.0
 11
185.145
 21
9.11712
 31
0.0
  0
LINE
  8
0
 62
     0
 10
185.145
 20
9.11712
 30
0.0
 11
185.145
 21
11.9173
 31
0.0
  0
LINE
  8
0
 62
     0
 10
185.145
 20
11.9173
 30
0.0
 11
184.319
 21
11.9173
 31
0.0
  0
LINE
  8
0
 62
     0
 10
184.319
 20
11.9173
 30
0.0
 11
184.319
 21
15.1474
 31
0.0
  0
LINE
  8
0
 62
     0
 10
184.319
 20
15.1474
 30
0.0
 11
182.594
 21
15.1474
 31
0.0
  0
LINE
  8
0
 62
     0
 10
182.594
 20
15.1474
 30
0.0
 11
182.594
 21
16.0693
 31
0.0
  0
LINE
  8
0
 62
     0
 10
182.594
 20
16.0693
 30
0.0
 11
179.295
 21
16.0693
 31
0.0
  0
LINE
  8
0
 62
     0
 10
179.295
 20
16.0693
 30
0.0
 11
179.295
 21
15.1474
 31
0.0
  0
LINE
  8
0
 62
     0
 10
179.295
 20
15.1474
 30
0.0
 11
177.57
 21
15.1474
 31
0.0
  0
LINE
  8
0
 62
     0
 10
177.57
 20
15.1474
 30
0.0
 11
177.57
 21
11.9173
 31
0.0
  0
LINE
  8
0
 62
     0
 10
177.57
 20
11.9173
 30
0.0
 11
149.969
 21
11.9173
 31
0.0
  0
LINE
  8
0
 62
     0
 10
149.969
 20
11.9173
 30
0.0
 11
149.969
 21
12.5181
 31
0.0
  0
LINE
  8
0
 62
     0
 10
149.969
 20
12.5181
 30
0.0
 11
150.77
 21
12.5181
 31
0.0
  0
LINE
  8
0
 62
     0
 10
150.77
 20
12.5181
 30
0.0
 11
150.77
 21
15.6173
 31
0.0
  0
LINE
  8
0
 62
     0
 10
150.77
 20
15.6173
 30
0.0
 11
149.969
 21
15.6173
 31
0.0
  0
LINE
  8
0
 62
     0
 10
149.969
 20
15.6173
 30
0.0
 11
149.969
 21
16.6178
 31
0.0
  0
LINE
  8
0
 62
     0
 10
149.969
 20
16.6178
 30
0.0
 11
135.97
 21
16.6178
 31
0.0
  0
LINE
  8
0
 62
     0
 10
12.1447
 20
35.6676
 30
0.0
 11
12.1447
 21
34.6673
 31
0.0
  0
LINE
  8
0
 62
     0
 10
12.1447
 20
34.6673
 30
0.0
 11
11.3454
 21
34.6673
 31
0.0
  0
LINE
  8
0
 62
     0
 10
11.3454
 20
34.6673
 30
0.0
 11
11.3454
 21
31.5681
 31
0.0
  0
LINE
  8
0
 62
     0
 10
11.3454
 20
31.5681
 30
0.0
 11
12.1447
 21
31.5681
 31
0.0
  0
LINE
  8
0
 62
     0
 10
12.1447
 20
31.5681
 30
0.0
 11
12.1447
 21
25.7679
 31
0.0
  0
LINE
  8
0
 62
     0
 10
12.1447
 20
25.7679
 30
0.0
 11
11.3454
 21
25.7679
 31
0.0
  0
LINE
  8
0
 62
     0
 10
11.3454
 20
25.7679
 30
0.0
 11
11.3454
 21
22.6673
 31
0.0
  0
LINE
  8
0
 62
     0
 10
11.3454
 20
22.6673
 30
0.0
 11
12.1447
 21
22.6673
 31
0.0
  0
LINE
  8
0
 62
     0
 10
12.1447
 20
22.6673
 30
0.0
 11
12.1447
 21
21.6683
 31
0.0
  0
LINE
  8
0
 62
     0
 10
12.1447
 20
21.6683
 30
0.0
 11
26.1441
 21
21.6683
 31
0.0
  0
LINE
  8
0
 62
     0
 10
26.1441
 20
21.6683
 30
0.0
 11
26.1441
 21
22.6673
 31
0.0
  0
LINE
  8
0
 62
     0
 10
26.1441
 20
22.6673
 30
0.0
 11
26.9448
 21
22.6673
 31
0.0
  0
LINE
  8
0
 62
     0
 10
26.9448
 20
22.6673
 30
0.0
 11
26.9448
 21
25.7679
 31
0.0
  0
LINE
  8
0
 62
     0
 10
26.9448
 20
25.7679
 30
0.0
 11
26.1441
 21
25.7679
 31
0.0
  0
LINE
  8
0
 62
     0
 10
26.1441
 20
25.7679
 30
0.0
 11
26.1441
 21
31.5681
 31
0.0
  0
LINE
  8
0
 62
     0
 10
26.1441
 20
31.5681
 30
0.0
 11
26.9448
 21
31.5681
 31
0.0
  0
LINE
  8
0
 62
     0
 10
26.9448
 20
31.5681
 30
0.0
 11
26.9448
 21
34.6673
 31
0.0
  0
LINE
  8
0
 62
     0
 10
26.9448
 20
34.6673
 30
0.0
 11
26.1441
 21
34.6673
 31
0.0
  0
LINE
  8
0
 62
     0
 10
26.1441
 20
34.6673
 30
0.0
 11
26.1441
 21
35.6676
 31
0.0
  0
LINE
  8
0
 62
     0
 10
26.1441
 20
35.6676
 30
0.0
 11
12.1447
 21
35.6676
 31
0.0
  0
LINE
  8
0
 62
     0
 10
35.9572
 20
35.6676
 30
0.0
 11
35.9572
 21
34.6673
 31
0.0
  0
LINE
  8
0
 62
     0
 10
35.9572
 20
34.6673
 30
0.0
 11
35.1565
 21
34.6673
 31
0.0
  0
LINE
  8
0
 62
     0
 10
35.1565
 20
34.6673
 30
0.0
 11
35.1565
 21
31.5681
 31
0.0
  0
LINE
  8
0
 62
     0
 10
35.1565
 20
31.5681
 30
0.0
 11
35.9572
 21
31.5681
 31
0.0
  0
LINE
  8
0
 62
     0
 10
35.9572
 20
31.5681
 30
0.0
 11
35.9572
 21
25.7679
 31
0.0
  0
LINE
  8
0
 62
     0
 10
35.9572
 20
25.7679
 30
0.0
 11
35.1565
 21
25.7679
 31
0.0
  0
LINE
  8
0
 62
     0
 10
35.1565
 20
25.7679
 30
0.0
 11
35.1565
 21
22.6673
 31
0.0
  0
LINE
  8
0
 62
     0
 10
35.1565
 20
22.6673
 30
0.0
 11
35.9572
 21
22.6673
 31
0.0
  0
LINE
  8
0
 62
     0
 10
35.9572
 20
22.6673
 30
0.0
 11
35.9572
 21
21.6683
 31
0.0
  0
LINE
  8
0
 62
     0
 10
35.9572
 20
21.6683
 30
0.0
 11
49.9565
 21
21.6683
 31
0.0
  0
LINE
  8
0
 62
     0
 10
49.9565
 20
21.6683
 30
0.0
 11
49.9565
 21
22.6673
 31
0.0
  0
LINE
  8
0
 62
     0
 10
49.9565
 20
22.6673
 30
0.0
 11
50.7573
 21
22.6673
 31
0.0
  0
LINE
  8
0
 62
     0
 10
50.7573
 20
22.6673
 30
0.0
 11
50.7573
 21
25.7679
 31
0.0
  0
LINE
  8
0
 62
     0
 10
50.7573
 20
25.7679
 30
0.0
 11
49.9565
 21
25.7679
 31
0.0
  0
LINE
  8
0
 62
     0
 10
49.9565
 20
25.7679
 30
0.0
 11
49.9565
 21
31.5681
 31
0.0
  0
LINE
  8
0
 62
     0
 10
49.9565
 20
31.5681
 30
0.0
 11
50.7573
 21
31.5681
 31
0.0
  0
LINE
  8
0
 62
     0
 10
50.7573
 20
31.5681
 30
0.0
 11
50.7573
 21
34.6673
 31
0.0
  0
LINE
  8
0
 62
     0
 10
50.7573
 20
34.6673
 30
0.0
 11
49.9565
 21
34.6673
 31
0.0
  0
LINE
  8
0
 62
     0
 10
49.9565
 20
34.6673
 30
0.0
 11
49.9565
 21
35.6676
 31
0.0
  0
LINE
  8
0
 62
     0
 10
49.9565
 20
35.6676
 30
0.0
 11
35.9572
 21
35.6676
 31
0.0
  0
LINE
  8
0
 62
     0
 10
55.0072
 20
35.6676
 30
0.0
 11
55.0072
 21
34.6673
 31
0.0
  0
LINE
  8
0
 62
     0
 10
55.0072
 20
34.6673
 30
0.0
 11
54.2064
 21
34.6673
 31
0.0
  0
LINE
  8
0
 62
     0
 10
54.2064
 20
34.6673
 30
0.0
 11
54.2064
 21
31.5681
 31
0.0
  0
LINE
  8
0
 62
     0
 10
54.2064
 20
31.5681
 30
0.0
 11
55.0072
 21
31.5681
 31
0.0
  0
LINE
  8
0
 62
     0
 10
55.0072
 20
31.5681
 30
0.0
 11
55.0072
 21
25.7679
 31
0.0
  0
LINE
  8
0
 62
     0
 10
55.0072
 20
25.7679
 30
0.0
 11
54.2064
 21
25.7679
 31
0.0
  0
LINE
  8
0
 62
     0
 10
54.2064
 20
25.7679
 30
0.0
 11
54.2064
 21
22.6673
 31
0.0
  0
LINE
  8
0
 62
     0
 10
54.2064
 20
22.6673
 30
0.0
 11
55.0072
 21
22.6673
 31
0.0
  0
LINE
  8
0
 62
     0
 10
55.0072
 20
22.6673
 30
0.0
 11
55.0072
 21
21.6683
 31
0.0
  0
LINE
  8
0
 62
     0
 10
55.0072
 20
21.6683
 30
0.0
 11
69.0065
 21
21.6683
 31
0.0
  0
LINE
  8
0
 62
     0
 10
69.0065
 20
21.6683
 30
0.0
 11
69.0065
 21
22.6673
 31
0.0
  0
LINE
  8
0
 62
     0
 10
69.0065
 20
22.6673
 30
0.0
 11
69.8073
 21
22.6673
 31
0.0
  0
LINE
  8
0
 62
     0
 10
69.8073
 20
22.6673
 30
0.0
 11
69.8073
 21
25.7679
 31
0.0
  0
LINE
  8
0
 62
     0
 10
69.8073
 20
25.7679
 30
0.0
 11
69.0065
 21
25.7679
 31
0.0
  0
LINE
  8
0
 62
     0
 10
69.0065
 20
25.7679
 30
0.0
 11
69.0065
 21
31.5681
 31
0.0
  0
LINE
  8
0
 62
     0
 10
69.0065
 20
31.5681
 30
0.0
 11
69.8073
 21
31.5681
 31
0.0
  0
LINE
  8
0
 62
     0
 10
69.8073
 20
31.5681
 30
0.0
 11
69.8073
 21
34.6673
 31
0.0
  0
LINE
  8
0
 62
     0
 10
69.8073
 20
34.6673
 30
0.0
 11
69.0065
 21
34.6673
 31
0.0
  0
LINE
  8
0
 62
     0
 10
69.0065
 20
34.6673
 30
0.0
 11
69.0065
 21
35.6676
 31
0.0
  0
LINE
  8
0
 62
     0
 10
69.0065
 20
35.6676
 30
0.0
 11
55.0072
 21
35.6676
 31
0.0
  0
LINE
  8
0
 62
     0
 10
74.0572
 20
35.6676
 30
0.0
 11
74.0572
 21
34.6673
 31
0.0
  0
LINE
  8
0
 62
     0
 10
74.0572
 20
34.6673
 30
0.0
 11
73.2564
 21
34.6673
 31
0.0
  0
LINE
  8
0
 62
     0
 10
73.2564
 20
34.6673
 30
0.0
 11
73.2564
 21
31.5681
 31
0.0
  0
LINE
  8
0
 62
     0
 10
73.2564
 20
31.5681
 30
0.0
 11
74.0572
 21
31.5681
 31
0.0
  0
LINE
  8
0
 62
     0
 10
74.0572
 20
31.5681
 30
0.0
 11
74.0572
 21
25.7679
 31
0.0
  0
LINE
  8
0
 62
     0
 10
74.0572
 20
25.7679
 30
0.0
 11
73.2564
 21
25.7679
 31
0.0
  0
LINE
  8
0
 62
     0
 10
73.2564
 20
25.7679
 30
0.0
 11
73.2564
 21
22.6673
 31
0.0
  0
LINE
  8
0
 62
     0
 10
73.2564
 20
22.6673
 30
0.0
 11
74.0572
 21
22.6673
 31
0.0
  0
LINE
  8
0
 62
     0
 10
74.0572
 20
22.6673
 30
0.0
 11
74.0572
 21
21.6683
 31
0.0
  0
LINE
  8
0
 62
     0
 10
74.0572
 20
21.6683
 30
0.0
 11
88.0565
 21
21.6683
 31
0.0
  0
LINE
  8
0
 62
     0
 10
88.0565
 20
21.6683
 30
0.0
 11
88.0565
 21
22.6673
 31
0.0
  0
LINE
  8
0
 62
     0
 10
88.0565
 20
22.6673
 30
0.0
 11
88.8573
 21
22.6673
 31
0.0
  0
LINE
  8
0
 62
     0
 10
88.8573
 20
22.6673
 30
0.0
 11
88.8573
 21
25.7679
 31
0.0
  0
LINE
  8
0
 62
     0
 10
88.8573
 20
25.7679
 30
0.0
 11
88.0565
 21
25.7679
 31
0.0
  0
LINE
  8
0
 62
     0
 10
88.0565
 20
25.7679
 30
0.0
 11
88.0565
 21
31.5681
 31
0.0
  0
LINE
  8
0
 62
     0
 10
88.0565
 20
31.5681
 30
0.0
 11
88.8573
 21
31.5681
 31
0.0
  0
LINE
  8
0
 62
     0
 10
88.8573
 20
31.5681
 30
0.0
 11
88.8573
 21
34.6673
 31
0.0
  0
LINE
  8
0
 62
     0
 10
88.8573
 20
34.6673
 30
0.0
 11
88.0565
 21
34.6673
 31
0.0
  0
LINE
  8
0
 62
     0
 10
88.0565
 20
34.6673
 30
0.0
 11
88.0565
 21
35.6676
 31
0.0
  0
LINE
  8
0
 62
     0
 10
88.0565
 20
35.6676
 30
0.0
 11
74.0572
 21
35.6676
 31
0.0
  0
LINE
  8
0
 62
     0
 10
93.1072
 20
35.6676
 30
0.0
 11
93.1072
 21
34.6673
 31
0.0
  0
LINE
  8
0
 62
     0
 10
93.1072
 20
34.6673
 30
0.0
 11
92.3064
 21
34.6673
 31
0.0
  0
LINE
  8
0
 62
     0
 10
92.3064
 20
34.6673
 30
0.0
 11
92.3064
 21
31.5681
 31
0.0
  0
LINE
  8
0
 62
     0
 10
92.3064
 20
31.5681
 30
0.0
 11
93.1072
 21
31.5681
 31
0.0
  0
LINE
  8
0
 62
     0
 10
93.1072
 20
31.5681
 30
0.0
 11
93.1072
 21
25.7679
 31
0.0
  0
LINE
  8
0
 62
     0
 10
93.1072
 20
25.7679
 30
0.0
 11
92.3064
 21
25.7679
 31
0.0
  0
LINE
  8
0
 62
     0
 10
92.3064
 20
25.7679
 30
0.0
 11
92.3064
 21
22.6673
 31
0.0
  0
LINE
  8
0
 62
     0
 10
92.3064
 20
22.6673
 30
0.0
 11
93.1072
 21
22.6673
 31
0.0
  0
LINE
  8
0
 62
     0
 10
93.1072
 20
22.6673
 30
0.0
 11
93.1072
 21
21.6683
 31
0.0
  0
LINE
  8
0
 62
     0
 10
93.1072
 20
21.6683
 30
0.0
 11
107.107
 21
21.6683
 31
0.0
  0
LINE
  8
0
 62
     0
 10
107.107
 20
21.6683
 30
0.0
 11
107.107
 21
22.6673
 31
0.0
  0
LINE
  8
0
 62
     0
 10
107.107
 20
22.6673
 30
0.0
 11
107.907
 21
22.6673
 31
0.0
  0
LINE
  8
0
 62
     0
 10
107.907
 20
22.6673
 30
0.0
 11
107.907
 21
25.7679
 31
0.0
  0
LINE
  8
0
 62
     0
 10
107.907
 20
25.7679
 30
0.0
 11
107.107
 21
25.7679
 31
0.0
  0
LINE
  8
0
 62
     0
 10
107.107
 20
25.7679
 30
0.0
 11
107.107
 21
31.5681
 31
0.0
  0
LINE
  8
0
 62
     0
 10
107.107
 20
31.5681
 30
0.0
 11
107.907
 21
31.5681
 31
0.0
  0
LINE
  8
0
 62
     0
 10
107.907
 20
31.5681
 30
0.0
 11
107.907
 21
34.6673
 31
0.0
  0
LINE
  8
0
 62
     0
 10
107.907
 20
34.6673
 30
0.0
 11
107.107
 21
34.6673
 31
0.0
  0
LINE
  8
0
 62
     0
 10
107.107
 20
34.6673
 30
0.0
 11
107.107
 21
35.6676
 31
0.0
  0
LINE
  8
0
 62
     0
 10
107.107
 20
35.6676
 30
0.0
 11
93.1072
 21
35.6676
 31
0.0
  0
LINE
  8
0
 62
     0
 10
112.157
 20
35.6676
 30
0.0
 11
112.157
 21
34.6673
 31
0.0
  0
LINE
  8
0
 62
     0
 10
112.157
 20
34.6673
 30
0.0
 11
111.356
 21
34.6673
 31
0.0
  0
LINE
  8
0
 62
     0
 10
111.356
 20
34.6673
 30
0.0
 11
111.356
 21
31.5681
 31
0.0
  0
LINE
  8
0
 62
     0
 10
111.356
 20
31.5681
 30
0.0
 11
112.157
 21
31.5681
 31
0.0
  0
LINE
  8
0
 62
     0
 10
112.157
 20
31.5681
 30
0.0
 11
112.157
 21
25.7679
 31
0.0
  0
LINE
  8
0
 62
     0
 10
112.157
 20
25.7679
 30
0.0
 11
111.356
 21
25.7679
 31
0.0
  0
LINE
  8
0
 62
     0
 10
111.356
 20
25.7679
 30
0.0
 11
111.356
 21
22.6673
 31
0.0
  0
LINE
  8
0
 62
     0
 10
111.356
 20
22.6673
 30
0.0
 11
112.157
 21
22.6673
 31
0.0
  0
LINE
  8
0
 62
     0
 10
112.157
 20
22.6673
 30
0.0
 11
112.157
 21
21.6683
 31
0.0
  0
LINE
  8
0
 62
     0
 10
112.157
 20
21.6683
 30
0.0
 11
126.157
 21
21.6683
 31
0.0
  0
LINE
  8
0
 62
     0
 10
126.157
 20
21.6683
 30
0.0
 11
126.157
 21
22.6673
 31
0.0
  0
LINE
  8
0
 62
     0
 10
126.157
 20
22.6673
 30
0.0
 11
126.957
 21
22.6673
 31
0.0
  0
LINE
  8
0
 62
     0
 10
126.957
 20
22.6673
 30
0.0
 11
126.957
 21
25.7679
 31
0.0
  0
LINE
  8
0
 62
     0
 10
126.957
 20
25.7679
 30
0.0
 11
126.157
 21
25.7679
 31
0.0
  0
LINE
  8
0
 62
     0
 10
126.157
 20
25.7679
 30
0.0
 11
126.157
 21
31.5681
 31
0.0
  0
LINE
  8
0
 62
     0
 10
126.157
 20
31.5681
 30
0.0
 11
126.957
 21
31.5681
 31
0.0
  0
LINE
  8
0
 62
     0
 10
126.957
 20
31.5681
 30
0.0
 11
126.957
 21
34.6673
 31
0.0
  0
LINE
  8
0
 62
     0
 10
126.957
 20
34.6673
 30
0.0
 11
126.157
 21
34.6673
 31
0.0
  0
LINE
  8
0
 62
     0
 10
126.157
 20
34.6673
 30
0.0
 11
126.157
 21
35.6676
 31
0.0
  0
LINE
  8
0
 62
     0
 10
126.157
 20
35.6676
 30
0.0
 11
112.157
 21
35.6676
 31
0.0
  0
LINE
  8
0
 62
     0
 10
131.207
 20
35.6676
 30
0.0
 11
131.207
 21
34.6673
 31
0.0
  0
LINE
  8
0
 62
     0
 10
131.207
 20
34.6673
 30
0.0
 11
130.406
 21
34.6673
 31
0.0
  0
LINE
  8
0
 62
     0
 10
130.406
 20
34.6673
 30
0.0
 11
130.406
 21
31.5681
 31
0.0
  0
LINE
  8
0
 62
     0
 10
130.406
 20
31.5681
 30
0.0
 11
131.207
 21
31.5681
 31
0.0
  0
LINE
  8
0
 62
     0
 10
131.207
 20
31.5681
 30
0.0
 11
131.207
 21
25.7679
 31
0.0
  0
LINE
  8
0
 62
     0
 10
131.207
 20
25.7679
 30
0.0
 11
130.406
 21
25.7679
 31
0.0
  0
LINE
  8
0
 62
     0
 10
130.406
 20
25.7679
 30
0.0
 11
130.406
 21
22.6673
 31
0.0
  0
LINE
  8
0
 62
     0
 10
130.406
 20
22.6673
 30
0.0
 11
131.207
 21
22.6673
 31
0.0
  0
LINE
  8
0
 62
     0
 10
131.207
 20
22.6673
 30
0.0
 11
131.207
 21
21.6683
 31
0.0
  0
LINE
  8
0
 62
     0
 10
131.207
 20
21.6683
 30
0.0
 11
145.207
 21
21.6683
 31
0.0
  0
LINE
  8
0
 62
     0
 10
145.207
 20
21.6683
 30
0.0
 11
145.207
 21
22.6673
 31
0.0
  0
LINE
  8
0
 62
     0
 10
145.207
 20
22.6673
 30
0.0
 11
146.007
 21
22.6673
 31
0.0
  0
LINE
  8
0
 62
     0
 10
146.007
 20
22.6673
 30
0.0
 11
146.007
 21
25.7679
 31
0.0
  0
LINE
  8
0
 62
     0
 10
146.007
 20
25.7679
 30
0.0
 11
145.207
 21
25.7679
 31
0.0
  0
LINE
  8
0
 62
     0
 10
145.207
 20
25.7679
 30
0.0
 11
145.207
 21
31.5681
 31
0.0
  0
LINE
  8
0
 62
     0
 10
145.207
 20
31.5681
 30
0.0
 11
146.007
 21
31.5681
 31
0.0
  0
LINE
  8
0
 62
     0
 10
146.007
 20
31.5681
 30
0.0
 11
146.007
 21
34.6673
 31
0.0
  0
LINE
  8
0
 62
     0
 10
146.007
 20
34.6673
 30
0.0
 11
145.207
 21
34.6673
 31
0.0
  0
LINE
  8
0
 62
     0
 10
145.207
 20
34.6673
 30
0.0
 11
145.207
 21
35.6676
 31
0.0
  0
LINE
  8
0
 62
     0
 10
145.207
 20
35.6676
 30
0.0
 11
131.207
 21
35.6676
 31
0.0
  0
LINE
  8
0
 62
     0
 10
150.257
 20
35.6676
 30
0.0
 11
150.257
 21
34.6673
 31
0.0
  0
LINE
  8
0
 62
     0
 10
150.257
 20
34.6673
 30
0.0
 11
149.456
 21
34.6673
 31
0.0
  0
LINE
  8
0
 62
     0
 10
149.456
 20
34.6673
 30
0.0
 11
149.456
 21
31.5681
 31
0.0
  0
LINE
  8
0
 62
     0
 10
149.456
 20
31.5681
 30
0.0
 11
150.257
 21
31.5681
 31
0.0
  0
LINE
  8
0
 62
     0
 10
150.257
 20
31.5681
 30
0.0
 11
150.257
 21
25.7679
 31
0.0
  0
LINE
  8
0
 62
     0
 10
150.257
 20
25.7679
 30
0.0
 11
149.456
 21
25.7679
 31
0.0
  0
LINE
  8
0
 62
     0
 10
149.456
 20
25.7679
 30
0.0
 11
149.456
 21
22.6673
 31
0.0
  0
LINE
  8
0
 62
     0
 10
149.456
 20
22.6673
 30
0.0
 11
150.257
 21
22.6673
 31
0.0
  0
LINE
  8
0
 62
     0
 10
150.257
 20
22.6673
 30
0.0
 11
150.257
 21
21.6683
 31
0.0
  0
LINE
  8
0
 62
     0
 10
150.257
 20
21.6683
 30
0.0
 11
164.257
 21
21.6683
 31
0.0
  0
LINE
  8
0
 62
     0
 10
164.257
 20
21.6683
 30
0.0
 11
164.257
 21
22.6673
 31
0.0
  0
LINE
  8
0
 62
     0
 10
164.257
 20
22.6673
 30
0.0
 11
165.057
 21
22.6673
 31
0.0
  0
LINE
  8
0
 62
     0
 10
165.057
 20
22.6673
 30
0.0
 11
165.057
 21
25.7679
 31
0.0
  0
LINE
  8
0
 62
     0
 10
165.057
 20
25.7679
 30
0.0
 11
164.257
 21
25.7679
 31
0.0
  0
LINE
  8
0
 62
     0
 10
164.257
 20
25.7679
 30
0.0
 11
164.257
 21
31.5681
 31
0.0
  0
LINE
  8
0
 62
     0
 10
164.257
 20
31.5681
 30
0.0
 11
165.057
 21
31.5681
 31
0.0
  0
LINE
  8
0
 62
     0
 10
165.057
 20
31.5681
 30
0.0
 11
165.057
 21
34.6673
 31
0.0
  0
LINE
  8
0
 62
     0
 10
165.057
 20
34.6673
 30
0.0
 11
164.257
 21
34.6673
 31
0.0
  0
LINE
  8
0
 62
     0
 10
164.257
 20
34.6673
 30
0.0
 11
164.257
 21
35.6676
 31
0.0
  0
LINE
  8
0
 62
     0
 10
164.257
 20
35.6676
 30
0.0
 11
150.257
 21
35.6676
 31
0.0
  0
LINE
  8
0
 62
     0
 10
169.307
 20
35.6676
 30
0.0
 11
169.307
 21
34.6673
 31
0.0
  0
LINE
  8
0
 62
     0
 10
169.307
 20
34.6673
 30
0.0
 11
168.506
 21
34.6673
 31
0.0
  0
LINE
  8
0
 62
     0
 10
168.506
 20
34.6673
 30
0.0
 11
168.506
 21
31.5681
 31
0.0
  0
LINE
  8
0
 62
     0
 10
168.506
 20
31.5681
 30
0.0
 11
169.307
 21
31.5681
 31
0.0
  0
LINE
  8
0
 62
     0
 10
169.307
 20
31.5681
 30
0.0
 11
169.307
 21
25.7679
 31
0.0
  0
LINE
  8
0
 62
     0
 10
169.307
 20
25.7679
 30
0.0
 11
168.506
 21
25.7679
 31
0.0
  0
LINE
  8
0
 62
     0
 10
168.506
 20
25.7679
 30
0.0
 11
168.506
 21
22.6673
 31
0.0
  0
LINE
  8
0
 62
     0
 10
168.506
 20
22.6673
 30
0.0
 11
169.307
 21
22.6673
 31
0.0
  0
LINE
  8
0
 62
     0
 10
169.307
 20
22.6673
 30
0.0
 11
169.307
 21
21.6683
 31
0.0
  0
LINE
  8
0
 62
     0
 10
169.307
 20
21.6683
 30
0.0
 11
183.307
 21
21.6683
 31
0.0
  0
LINE
  8
0
 62
     0
 10
183.307
 20
21.6683
 30
0.0
 11
183.307
 21
22.6673
 31
0.0
  0
LINE
  8
0
 62
     0
 10
183.307
 20
22.6673
 30
0.0
 11
184.107
 21
22.6673
 31
0.0
  0
LINE
  8
0
 62
     0
 10
184.107
 20
22.6673
 30
0.0
 11
184.107
 21
25.7679
 31
0.0
  0
LINE
  8
0
 62
     0
 10
184.107
 20
25.7679
 30
0.0
 11
183.307
 21
25.7679
 31
0.0
  0
LINE
  8
0
 62
     0
 10
183.307
 20
25.7679
 30
0.0
 11
183.307
 21
31.5681
 31
0.0
  0
LINE
  8
0
 62
     0
 10
183.307
 20
31.5681
 30
0.0
 11
184.107
 21
31.5681
 31
0.0
  0
LINE
  8
0
 62
     0
 10
184.107
 20
31.5681
 30
0.0
 11
184.107
 21
34.6673
 31
0.0
  0
LINE
  8
0
 62
     0
 10
184.107
 20
34.6673
 30
0.0
 11
183.307
 21
34.6673
 31
0.0
  0
LINE
  8
0
 62
     0
 10
183.307
 20
34.6673
 30
0.0
 11
183.307
 21
35.6676
 31
0.0
  0
LINE
  8
0
 62
     0
 10
183.307
 20
35.6676
 30
0.0
 11
169.307
 21
35.6676
 31
0.0
  0
LINE
  8
0
 62
     0
 10
188.357
 20
35.6676
 30
0.0
 11
188.357
 21
34.6673
 31
0.0
  0
LINE
  8
0
 62
     0
 10
188.357
 20
34.6673
 30
0.0
 11
187.556
 21
34.6673
 31
0.0
  0
LINE
  8
0
 62
     0
 10
187.556
 20
34.6673
 30
0.0
 11
187.556
 21
31.5681
 31
0.0
  0
LINE
  8
0
 62
     0
 10
187.556
 20
31.5681
 30
0.0
 11
188.357
 21
31.5681
 31
0.0
  0
LINE
  8
0
 62
     0
 10
188.357
 20
31.5681
 30
0.0
 11
188.357
 21
25.7679
 31
0.0
  0
LINE
  8
0
 62
     0
 10
188.357
 20
25.7679
 30
0.0
 11
187.556
 21
25.7679
 31
0.0
  0
LINE
  8
0
 62
     0
 10
187.556
 20
25.7679
 30
0.0
 11
187.556
 21
22.6673
 31
0.0
  0
LINE
  8
0
 62
     0
 10
187.556
 20
22.6673
 30
0.0
 11
188.357
 21
22.6673
 31
0.0
  0
LINE
  8
0
 62
     0
 10
188.357
 20
22.6673
 30
0.0
 11
188.357
 21
21.6683
 31
0.0
  0
LINE
  8
0
 62
     0
 10
188.357
 20
21.6683
 30
0.0
 11
202.357
 21
21.6683
 31
0.0
  0
LINE
  8
0
 62
     0
 10
202.357
 20
21.6683
 30
0.0
 11
202.357
 21
22.6673
 31
0.0
  0
LINE
  8
0
 62
     0
 10
202.357
 20
22.6673
 30
0.0
 11
203.157
 21
22.6673
 31
0.0
  0
LINE
  8
0
 62
     0
 10
203.157
 20
22.6673
 30
0.0
 11
203.157
 21
25.7679
 31
0.0
  0
LINE
  8
0
 62
     0
 10
203.157
 20
25.7679
 30
0.0
 11
202.357
 21
25.7679
 31
0.0
  0
LINE
  8
0
 62
     0
 10
202.357
 20
25.7679
 30
0.0
 11
202.357
 21
31.5681
 31
0.0
  0
LINE
  8
0
 62
     0
 10
202.357
 20
31.5681
 30
0.0
 11
203.157
 21
31.5681
 31
0.0
  0
LINE
  8
0
 62
     0
 10
203.157
 20
31.5681
 30
0.0
 11
203.157
 21
34.6673
 31
0.0
  0
LINE
  8
0
 62
     0
 10
203.157
 20
34.6673
 30
0.0
 11
202.357
 21
34.6673
 31
0.0
  0
LINE
  8
0
 62
     0
 10
202.357
 20
34.6673
 30
0.0
 11
202.357
 21
35.6676
 31
0.0
  0
LINE
  8
0
 62
     0
 10
202.357
 20
35.6676
 30
0.0
 11
188.357
 21
35.6676
 31
0.0
  0
LINE
  8
0
 62
     0
 10
207.407
 20
35.6676
 30
0.0
 11
207.407
 21
34.6673
 31
0.0
  0
LINE
  8
0
 62
     0
 10
207.407
 20
34.6673
 30
0.0
 11
206.606
 21
34.6673
 31
0.0
  0
LINE
  8
0
 62
     0
 10
206.606
 20
34.6673
 30
0.0
 11
206.606
 21
31.5681
 31
0.0
  0
LINE
  8
0
 62
     0
 10
206.606
 20
31.5681
 30
0.0
 11
207.407
 21
31.5681
 31
0.0
  0
LINE
  8
0
 62
     0
 10
207.407
 20
31.5681
 30
0.0
 11
207.407
 21
25.7679
 31
0.0
  0
LINE
  8
0
 62
     0
 10
207.407
 20
25.7679
 30
0.0
 11
206.606
 21
25.7679
 31
0.0
  0
LINE
  8
0
 62
     0
 10
206.606
 20
25.7679
 30
0.0
 11
206.606
 21
22.6673
 31
0.0
  0
LINE
  8
0
 62
     0
 10
206.606
 20
22.6673
 30
0.0
 11
207.407
 21
22.6673
 31
0.0
  0
LINE
  8
0
 62
     0
 10
207.407
 20
22.6673
 30
0.0
 11
207.407
 21
21.6683
 31
0.0
  0
LINE
  8
0
 62
     0
 10
207.407
 20
21.6683
 30
0.0
 11
221.407
 21
21.6683
 31
0.0
  0
LINE
  8
0
 62
     0
 10
221.407
 20
21.6683
 30
0.0
 11
221.407
 21
22.6673
 31
0.0
  0
LINE
  8
0
 62
     0
 10
221.407
 20
22.6673
 30
0.0
 11
222.207
 21
22.6673
 31
0.0
  0
LINE
  8
0
 62
     0
 10
222.207
 20
22.6673
 30
0.0
 11
222.207
 21
25.7679
 31
0.0
  0
LINE
  8
0
 62
     0
 10
222.207
 20
25.7679
 30
0.0
 11
221.407
 21
25.7679
 31
0.0
  0
LINE
  8
0
 62
     0
 10
221.407
 20
25.7679
 30
0.0
 11
221.407
 21
31.5681
 31
0.0
  0
LINE
  8
0
 62
     0
 10
221.407
 20
31.5681
 30
0.0
 11
222.207
 21
31.5681
 31
0.0
  0
LINE
  8
0
 62
     0
 10
222.207
 20
31.5681
 30
0.0
 11
222.207
 21
34.6673
 31
0.0
  0
LINE
  8
0
 62
     0
 10
222.207
 20
34.6673
 30
0.0
 11
221.407
 21
34.6673
 31
0.0
  0
LINE
  8
0
 62
     0
 10
221.407
 20
34.6673
 30
0.0
 11
221.407
 21
35.6676
 31
0.0
  0
LINE
  8
0
 62
     0
 10
221.407
 20
35.6676
 30
0.0
 11
207.407
 21
35.6676
 31
0.0
  0
LINE
  8
0
 62
     0
 10
231.22
 20
35.6676
 30
0.0
 11
231.22
 21
34.6673
 31
0.0
  0
LINE
  8
0
 62
     0
 10
231.22
 20
34.6673
 30
0.0
 11
230.42
 21
34.6673
 31
0.0
  0
LINE
  8
0
 62
     0
 10
230.42
 20
34.6673
 30
0.0
 11
230.42
 21
31.5681
 31
0.0
  0
LINE
  8
0
 62
     0
 10
230.42
 20
31.5681
 30
0.0
 11
231.22
 21
31.5681
 31
0.0
  0
LINE
  8
0
 62
     0
 10
231.22
 20
31.5681
 30
0.0
 11
231.22
 21
25.7679
 31
0.0
  0
LINE
  8
0
 62
     0
 10
231.22
 20
25.7679
 30
0.0
 11
230.42
 21
25.7679
 31
0.0
  0
LINE
  8
0
 62
     0
 10
230.42
 20
25.7679
 30
0.0
 11
230.42
 21
22.6673
 31
0.0
  0
LINE
  8
0
 62
     0
 10
230.42
 20
22.6673
 30
0.0
 11
231.22
 21
22.6673
 31
0.0
  0
LINE
  8
0
 62
     0
 10
231.22
 20
22.6673
 30
0.0
 11
231.22
 21
21.6683
 31
0.0
  0
LINE
  8
0
 62
     0
 10
231.22
 20
21.6683
 30
0.0
 11
245.219
 21
21.6683
 31
0.0
  0
LINE
  8
0
 62
     0
 10
245.219
 20
21.6683
 30
0.0
 11
245.219
 21
22.6673
 31
0.0
  0
LINE
  8
0
 62
     0
 10
245.219
 20
22.6673
 30
0.0
 11
246.02
 21
22.6673
 31
0.0
  0
LINE
  8
0
 62
     0
 10
246.02
 20
22.6673
 30
0.0
 11
246.02
 21
25.7679
 31
0.0
  0
LINE
  8
0
 62
     0
 10
246.02
 20
25.7679
 30
0.0
 11
245.219
 21
25.7679
 31
0.0
  0
LINE
  8
0
 62
     0
 10
245.219
 20
25.7679
 30
0.0
 11
245.219
 21
31.5681
 31
0.0
  0
LINE
  8
0
 62
     0
 10
245.219
 20
31.5681
 30
0.0
 11
246.02
 21
31.5681
 31
0.0
  0
LINE
  8
0
 62
     0
 10
246.02
 20
31.5681
 30
0.0
 11
246.02
 21
34.6673
 31
0.0
  0
LINE
  8
0
 62
     0
 10
246.02
 20
34.6673
 30
0.0
 11
245.219
 21
34.6673
 31
0.0
  0
LINE
  8
0
 62
     0
 10
245.219
 20
34.6673
 30
0.0
 11
245.219
 21
35.6676
 31
0.0
  0
LINE
  8
0
 62
     0
 10
245.219
 20
35.6676
 30
0.0
 11
231.22
 21
35.6676
 31
0.0
  0
LINE
  8
0
 62
     0
 10
7.38216
 20
54.7176
 30
0.0
 11
7.38216
 21
53.7175
 31
0.0
  0
LINE
  8
0
 62
     0
 10
7.38216
 20
53.7175
 30
0.0
 11
6.58153
 21
53.7175
 31
0.0
  0
LINE
  8
0
 62
     0
 10
6.58153
 20
53.7175
 30
0.0
 11
6.58153
 21
50.618
 31
0.0
  0
LINE
  8
0
 62
     0
 10
6.58153
 20
50.618
 30
0.0
 11
7.38216
 21
50.618
 31
0.0
  0
LINE
  8
0
 62
     0
 10
7.38216
 20
50.618
 30
0.0
 11
7.38216
 21
44.8179
 31
0.0
  0
LINE
  8
0
 62
     0
 10
7.38216
 20
44.8179
 30
0.0
 11
6.58153
 21
44.8179
 31
0.0
  0
LINE
  8
0
 62
     0
 10
6.58153
 20
44.8179
 30
0.0
 11
6.58153
 21
41.7174
 31
0.0
  0
LINE
  8
0
 62
     0
 10
6.58153
 20
41.7174
 30
0.0
 11
7.38216
 21
41.7174
 31
0.0
  0
LINE
  8
0
 62
     0
 10
7.38216
 20
41.7174
 30
0.0
 11
7.38216
 21
40.7183
 31
0.0
  0
LINE
  8
0
 62
     0
 10
7.38216
 20
40.7183
 30
0.0
 11
21.3817
 21
40.7183
 31
0.0
  0
LINE
  8
0
 62
     0
 10
21.3817
 20
40.7183
 30
0.0
 11
21.3817
 21
41.7174
 31
0.0
  0
LINE
  8
0
 62
     0
 10
21.3817
 20
41.7174
 30
0.0
 11
22.1823
 21
41.7174
 31
0.0
  0
LINE
  8
0
 62
     0
 10
22.1823
 20
41.7174
 30
0.0
 11
22.1823
 21
44.8179
 31
0.0
  0
LINE
  8
0
 62
     0
 10
22.1823
 20
44.8179
 30
0.0
 11
21.3817
 21
44.8179
 31
0.0
  0
LINE
  8
0
 62
     0
 10
21.3817
 20
44.8179
 30
0.0
 11
21.3817
 21
50.618
 31
0.0
  0
LINE
  8
0
 62
     0
 10
21.3817
 20
50.618
 30
0.0
 11
22.1823
 21
50.618
 31
0.0
  0
LINE
  8
0
 62
     0
 10
22.1823
 20
50.618
 30
0.0
 11
22.1823
 21
53.7175
 31
0.0
  0
LINE
  8
0
 62
     0
 10
22.1823
 20
53.7175
 30
0.0
 11
21.3817
 21
53.7175
 31
0.0
  0
LINE
  8
0
 62
     0
 10
21.3817
 20
53.7175
 30
0.0
 11
21.3817
 21
54.7176
 31
0.0
  0
LINE
  8
0
 62
     0
 10
21.3817
 20
54.7176
 30
0.0
 11
7.38216
 21
54.7176
 31
0.0
  0
LINE
  8
0
 62
     0
 10
26.4322
 20
54.7176
 30
0.0
 11
26.4322
 21
53.7175
 31
0.0
  0
LINE
  8
0
 62
     0
 10
26.4322
 20
53.7175
 30
0.0
 11
25.6315
 21
53.7175
 31
0.0
  0
LINE
  8
0
 62
     0
 10
25.6315
 20
53.7175
 30
0.0
 11
25.6315
 21
50.618
 31
0.0
  0
LINE
  8
0
 62
     0
 10
25.6315
 20
50.618
 30
0.0
 11
26.4322
 21
50.618
 31
0.0
  0
LINE
  8
0
 62
     0
 10
26.4322
 20
50.618
 30
0.0
 11
26.4322
 21
44.8179
 31
0.0
  0
LINE
  8
0
 62
     0
 10
26.4322
 20
44.8179
 30
0.0
 11
25.6315
 21
44.8179
 31
0.0
  0
LINE
  8
0
 62
     0
 10
25.6315
 20
44.8179
 30
0.0
 11
25.6315
 21
41.7174
 31
0.0
  0
LINE
  8
0
 62
     0
 10
25.6315
 20
41.7174
 30
0.0
 11
26.4322
 21
41.7174
 31
0.0
  0
LINE
  8
0
 62
     0
 10
26.4322
 20
41.7174
 30
0.0
 11
26.4322
 21
40.7183
 31
0.0
  0
LINE
  8
0
 62
     0
 10
26.4322
 20
40.7183
 30
0.0
 11
40.4315
 21
40.7183
 31
0.0
  0
LINE
  8
0
 62
     0
 10
40.4315
 20
40.7183
 30
0.0
 11
40.4315
 21
41.7174
 31
0.0
  0
LINE
  8
0
 62
     0
 10
40.4315
 20
41.7174
 30
0.0
 11
41.2323
 21
41.7174
 31
0.0
  0
LINE
  8
0
 62
     0
 10
41.2323
 20
41.7174
 30
0.0
 11
41.2323
 21
44.8179
 31
0.0
  0
LINE
  8
0
 62
     0
 10
41.2323
 20
44.8179
 30
0.0
 11
40.4315
 21
44.8179
 31
0.0
  0
LINE
  8
0
 62
     0
 10
40.4315
 20
44.8179
 30
0.0
 11
40.4315
 21
50.618
 31
0.0
  0
LINE
  8
0
 62
     0
 10
40.4315
 20
50.618
 30
0.0
 11
41.2323
 21
50.618
 31
0.0
  0
LINE
  8
0
 62
     0
 10
41.2323
 20
50.618
 30
0.0
 11
41.2323
 21
53.7175
 31
0.0
  0
LINE
  8
0
 62
     0
 10
41.2323
 20
53.7175
 30
0.0
 11
40.4315
 21
53.7175
 31
0.0
  0
LINE
  8
0
 62
     0
 10
40.4315
 20
53.7175
 30
0.0
 11
40.4315
 21
54.7176
 31
0.0
  0
LINE
  8
0
 62
     0
 10
40.4315
 20
54.7176
 30
0.0
 11
26.4322
 21
54.7176
 31
0.0
  0
LINE
  8
0
 62
     0
 10
45.4822
 20
54.7176
 30
0.0
 11
45.4822
 21
53.7175
 31
0.0
  0
LINE
  8
0
 62
     0
 10
45.4822
 20
53.7175
 30
0.0
 11
44.6814
 21
53.7175
 31
0.0
  0
LINE
  8
0
 62
     0
 10
44.6814
 20
53.7175
 30
0.0
 11
44.6814
 21
50.618
 31
0.0
  0
LINE
  8
0
 62
     0
 10
44.6814
 20
50.618
 30
0.0
 11
45.4822
 21
50.618
 31
0.0
  0
LINE
  8
0
 62
     0
 10
45.4822
 20
50.618
 30
0.0
 11
45.4822
 21
44.8179
 31
0.0
  0
LINE
  8
0
 62
     0
 10
45.4822
 20
44.8179
 30
0.0
 11
44.6814
 21
44.8179
 31
0.0
  0
LINE
  8
0
 62
     0
 10
44.6814
 20
44.8179
 30
0.0
 11
44.6814
 21
41.7174
 31
0.0
  0
LINE
  8
0
 62
     0
 10
44.6814
 20
41.7174
 30
0.0
 11
45.4822
 21
41.7174
 31
0.0
  0
LINE
  8
0
 62
     0
 10
45.4822
 20
41.7174
 30
0.0
 11
45.4822
 21
40.7183
 31
0.0
  0
LINE
  8
0
 62
     0
 10
45.4822
 20
40.7183
 30
0.0
 11
59.4815
 21
40.7183
 31
0.0
  0
LINE
  8
0
 62
     0
 10
59.4815
 20
40.7183
 30
0.0
 11
59.4815
 21
41.7174
 31
0.0
  0
LINE
  8
0
 62
     0
 10
59.4815
 20
41.7174
 30
0.0
 11
60.2823
 21
41.7174
 31
0.0
  0
LINE
  8
0
 62
     0
 10
60.2823
 20
41.7174
 30
0.0
 11
60.2823
 21
44.8179
 31
0.0
  0
LINE
  8
0
 62
     0
 10
60.2823
 20
44.8179
 30
0.0
 11
59.4815
 21
44.8179
 31
0.0
  0
LINE
  8
0
 62
     0
 10
59.4815
 20
44.8179
 30
0.0
 11
59.4815
 21
50.618
 31
0.0
  0
LINE
  8
0
 62
     0
 10
59.4815
 20
50.618
 30
0.0
 11
60.2823
 21
50.618
 31
0.0
  0
LINE
  8
0
 62
     0
 10
60.2823
 20
50.618
 30
0.0
 11
60.2823
 21
53.7175
 31
0.0
  0
LINE
  8
0
 62
     0
 10
60.2823
 20
53.7175
 30
0.0
 11
59.4815
 21
53.7175
 31
0.0
  0
LINE
  8
0
 62
     0
 10
59.4815
 20
53.7175
 30
0.0
 11
59.4815
 21
54.7176
 31
0.0
  0
LINE
  8
0
 62
     0
 10
59.4815
 20
54.7176
 30
0.0
 11
45.4822
 21
54.7176
 31
0.0
  0
LINE
  8
0
 62
     0
 10
64.5322
 20
54.7176
 30
0.0
 11
64.5322
 21
53.7175
 31
0.0
  0
LINE
  8
0
 62
     0
 10
64.5322
 20
53.7175
 30
0.0
 11
63.7314
 21
53.7175
 31
0.0
  0
LINE
  8
0
 62
     0
 10
63.7314
 20
53.7175
 30
0.0
 11
63.7314
 21
50.618
 31
0.0
  0
LINE
  8
0
 62
     0
 10
63.7314
 20
50.618
 30
0.0
 11
64.5322
 21
50.618
 31
0.0
  0
LINE
  8
0
 62
     0
 10
64.5322
 20
50.618
 30
0.0
 11
64.5322
 21
44.8179
 31
0.0
  0
LINE
  8
0
 62
     0
 10
64.5322
 20
44.8179
 30
0.0
 11
63.7314
 21
44.8179
 31
0.0
  0
LINE
  8
0
 62
     0
 10
63.7314
 20
44.8179
 30
0.0
 11
63.7314
 21
41.7174
 31
0.0
  0
LINE
  8
0
 62
     0
 10
63.7314
 20
41.7174
 30
0.0
 11
64.5322
 21
41.7174
 31
0.0
  0
LINE
  8
0
 62
     0
 10
64.5322
 20
41.7174
 30
0.0
 11
64.5322
 21
40.7183
 31
0.0
  0
LINE
  8
0
 62
     0
 10
64.5322
 20
40.7183
 30
0.0
 11
78.5315
 21
40.7183
 31
0.0
  0
LINE
  8
0
 62
     0
 10
78.5315
 20
40.7183
 30
0.0
 11
78.5315
 21
41.7174
 31
0.0
  0
LINE
  8
0
 62
     0
 10
78.5315
 20
41.7174
 30
0.0
 11
79.3323
 21
41.7174
 31
0.0
  0
LINE
  8
0
 62
     0
 10
79.3323
 20
41.7174
 30
0.0
 11
79.3323
 21
44.8179
 31
0.0
  0
LINE
  8
0
 62
     0
 10
79.3323
 20
44.8179
 30
0.0
 11
78.5315
 21
44.8179
 31
0.0
  0
LINE
  8
0
 62
     0
 10
78.5315
 20
44.8179
 30
0.0
 11
78.5315
 21
50.618
 31
0.0
  0
LINE
  8
0
 62
     0
 10
78.5315
 20
50.618
 30
0.0
 11
79.3323
 21
50.618
 31
0.0
  0
LINE
  8
0
 62
     0
 10
79.3323
 20
50.618
 30
0.0
 11
79.3323
 21
53.7175
 31
0.0
  0
LINE
  8
0
 62
     0
 10
79.3323
 20
53.7175
 30
0.0
 11
78.5315
 21
53.7175
 31
0.0
  0
LINE
  8
0
 62
     0
 10
78.5315
 20
53.7175
 30
0.0
 11
78.5315
 21
54.7176
 31
0.0
  0
LINE
  8
0
 62
     0
 10
78.5315
 20
54.7176
 30
0.0
 11
64.5322
 21
54.7176
 31
0.0
  0
LINE
  8
0
 62
     0
 10
83.5822
 20
54.7176
 30
0.0
 11
83.5822
 21
53.7175
 31
0.0
  0
LINE
  8
0
 62
     0
 10
83.5822
 20
53.7175
 30
0.0
 11
82.7814
 21
53.7175
 31
0.0
  0
LINE
  8
0
 62
     0
 10
82.7814
 20
53.7175
 30
0.0
 11
82.7814
 21
50.618
 31
0.0
  0
LINE
  8
0
 62
     0
 10
82.7814
 20
50.618
 30
0.0
 11
83.5822
 21
50.618
 31
0.0
  0
LINE
  8
0
 62
     0
 10
83.5822
 20
50.618
 30
0.0
 11
83.5822
 21
44.8179
 31
0.0
  0
LINE
  8
0
 62
     0
 10
83.5822
 20
44.8179
 30
0.0
 11
82.7814
 21
44.8179
 31
0.0
  0
LINE
  8
0
 62
     0
 10
82.7814
 20
44.8179
 30
0.0
 11
82.7814
 21
41.7174
 31
0.0
  0
LINE
  8
0
 62
     0
 10
82.7814
 20
41.7174
 30
0.0
 11
83.5822
 21
41.7174
 31
0.0
  0
LINE
  8
0
 62
     0
 10
83.5822
 20
41.7174
 30
0.0
 11
83.5822
 21
40.7183
 31
0.0
  0
LINE
  8
0
 62
     0
 10
83.5822
 20
40.7183
 30
0.0
 11
97.5815
 21
40.7183
 31
0.0
  0
LINE
  8
0
 62
     0
 10
97.5815
 20
40.7183
 30
0.0
 11
97.5815
 21
41.7174
 31
0.0
  0
LINE
  8
0
 62
     0
 10
97.5815
 20
41.7174
 30
0.0
 11
98.3823
 21
41.7174
 31
0.0
  0
LINE
  8
0
 62
     0
 10
98.3823
 20
41.7174
 30
0.0
 11
98.3823
 21
44.8179
 31
0.0
  0
LINE
  8
0
 62
     0
 10
98.3823
 20
44.8179
 30
0.0
 11
97.5815
 21
44.8179
 31
0.0
  0
LINE
  8
0
 62
     0
 10
97.5815
 20
44.8179
 30
0.0
 11
97.5815
 21
50.618
 31
0.0
  0
LINE
  8
0
 62
     0
 10
97.5815
 20
50.618
 30
0.0
 11
98.3823
 21
50.618
 31
0.0
  0
LINE
  8
0
 62
     0
 10
98.3823
 20
50.618
 30
0.0
 11
98.3823
 21
53.7175
 31
0.0
  0
LINE
  8
0
 62
     0
 10
98.3823
 20
53.7175
 30
0.0
 11
97.5815
 21
53.7175
 31
0.0
  0
LINE
  8
0
 62
     0
 10
97.5815
 20
53.7175
 30
0.0
 11
97.5815
 21
54.7176
 31
0.0
  0
LINE
  8
0
 62
     0
 10
97.5815
 20
54.7176
 30
0.0
 11
83.5822
 21
54.7176
 31
0.0
  0
LINE
  8
0
 62
     0
 10
102.632
 20
54.7176
 30
0.0
 11
102.632
 21
53.7175
 31
0.0
  0
LINE
  8
0
 62
     0
 10
102.632
 20
53.7175
 30
0.0
 11
101.831
 21
53.7175
 31
0.0
  0
LINE
  8
0
 62
     0
 10
101.831
 20
53.7175
 30
0.0
 11
101.831
 21
50.618
 31
0.0
  0
LINE
  8
0
 62
     0
 10
101.831
 20
50.618
 30
0.0
 11
102.632
 21
50.618
 31
0.0
  0
LINE
  8
0
 62
     0
 10
102.632
 20
50.618
 30
0.0
 11
102.632
 21
44.8179
 31
0.0
  0
LINE
  8
0
 62
     0
 10
102.632
 20
44.8179
 30
0.0
 11
101.831
 21
44.8179
 31
0.0
  0
LINE
  8
0
 62
     0
 10
101.831
 20
44.8179
 30
0.0
 11
101.831
 21
41.7174
 31
0.0
  0
LINE
  8
0
 62
     0
 10
101.831
 20
41.7174
 30
0.0
 11
102.632
 21
41.7174
 31
0.0
  0
LINE
  8
0
 62
     0
 10
102.632
 20
41.7174
 30
0.0
 11
102.632
 21
40.7183
 31
0.0
  0
LINE
  8
0
 62
     0
 10
102.632
 20
40.7183
 30
0.0
 11
116.632
 21
40.7183
 31
0.0
  0
LINE
  8
0
 62
     0
 10
116.632
 20
40.7183
 30
0.0
 11
116.632
 21
41.7174
 31
0.0
  0
LINE
  8
0
 62
     0
 10
116.632
 20
41.7174
 30
0.0
 11
117.432
 21
41.7174
 31
0.0
  0
LINE
  8
0
 62
     0
 10
117.432
 20
41.7174
 30
0.0
 11
117.432
 21
44.8179
 31
0.0
  0
LINE
  8
0
 62
     0
 10
117.432
 20
44.8179
 30
0.0
 11
116.632
 21
44.8179
 31
0.0
  0
LINE
  8
0
 62
     0
 10
116.632
 20
44.8179
 30
0.0
 11
116.632
 21
50.618
 31
0.0
  0
LINE
  8
0
 62
     0
 10
116.632
 20
50.618
 30
0.0
 11
117.432
 21
50.618
 31
0.0
  0
LINE
  8
0
 62
     0
 10
117.432
 20
50.618
 30
0.0
 11
117.432
 21
53.7175
 31
0.0
  0
LINE
  8
0
 62
     0
 10
117.432
 20
53.7175
 30
0.0
 11
116.632
 21
53.7175
 31
0.0
  0
LINE
  8
0
 62
     0
 10
116.632
 20
53.7175
 30
0.0
 11
116.632
 21
54.7176
 31
0.0
  0
LINE
  8
0
 62
     0
 10
116.632
 20
54.7176
 30
0.0
 11
102.632
 21
54.7176
 31
0.0
  0
LINE
  8
0
 62
     0
 10
121.682
 20
54.7176
 30
0.0
 11
121.682
 21
53.7175
 31
0.0
  0
LINE
  8
0
 62
     0
 10
121.682
 20
53.7175
 30
0.0
 11
120.881
 21
53.7175
 31
0.0
  0
LINE
  8
0
 62
     0
 10
120.881
 20
53.7175
 30
0.0
 11
120.881
 21
50.618
 31
0.0
  0
LINE
  8
0
 62
     0
 10
120.881
 20
50.618
 30
0.0
 11
121.682
 21
50.618
 31
0.0
  0
LINE
  8
0
 62
     0
 10
121.682
 20
50.618
 30
0.0
 11
121.682
 21
44.8179
 31
0.0
  0
LINE
  8
0
 62
     0
 10
121.682
 20
44.8179
 30
0.0
 11
120.881
 21
44.8179
 31
0.0
  0
LINE
  8
0
 62
     0
 10
120.881
 20
44.8179
 30
0.0
 11
120.881
 21
41.7174
 31
0.0
  0
LINE
  8
0
 62
     0
 10
120.881
 20
41.7174
 30
0.0
 11
121.682
 21
41.7174
 31
0.0
  0
LINE
  8
0
 62
     0
 10
121.682
 20
41.7174
 30
0.0
 11
121.682
 21
40.7183
 31
0.0
  0
LINE
  8
0
 62
     0
 10
121.682
 20
40.7183
 30
0.0
 11
135.682
 21
40.7183
 31
0.0
  0
LINE
  8
0
 62
     0
 10
135.682
 20
40.7183
 30
0.0
 11
135.682
 21
41.7174
 31
0.0
  0
LINE
  8
0
 62
     0
 10
135.682
 20
41.7174
 30
0.0
 11
136.482
 21
41.7174
 31
0.0
  0
LINE
  8
0
 62
     0
 10
136.482
 20
41.7174
 30
0.0
 11
136.482
 21
44.8179
 31
0.0
  0
LINE
  8
0
 62
     0
 10
136.482
 20
44.8179
 30
0.0
 11
135.682
 21
44.8179
 31
0.0
  0
LINE
  8
0
 62
     0
 10
135.682
 20
44.8179
 30
0.0
 11
135.682
 21
50.618
 31
0.0
  0
LINE
  8
0
 62
     0
 10
135.682
 20
50.618
 30
0.0
 11
136.482
 21
50.618
 31
0.0
  0
LINE
  8
0
 62
     0
 10
136.482
 20
50.618
 30
0.0
 11
136.482
 21
53.7175
 31
0.0
  0
LINE
  8
0
 62
     0
 10
136.482
 20
53.7175
 30
0.0
 11
135.682
 21
53.7175
 31
0.0
  0
LINE
  8
0
 62
     0
 10
135.682
 20
53.7175
 30
0.0
 11
135.682
 21
54.7176
 31
0.0
  0
LINE
  8
0
 62
     0
 10
135.682
 20
54.7176
 30
0.0
 11
121.682
 21
54.7176
 31
0.0
  0
LINE
  8
0
 62
     0
 10
140.732
 20
54.7176
 30
0.0
 11
140.732
 21
53.7175
 31
0.0
  0
LINE
  8
0
 62
     0
 10
140.732
 20
53.7175
 30
0.0
 11
139.931
 21
53.7175
 31
0.0
  0
LINE
  8
0
 62
     0
 10
139.931
 20
53.7175
 30
0.0
 11
139.931
 21
50.618
 31
0.0
  0
LINE
  8
0
 62
     0
 10
139.931
 20
50.618
 30
0.0
 11
140.732
 21
50.618
 31
0.0
  0
LINE
  8
0
 62
     0
 10
140.732
 20
50.618
 30
0.0
 11
140.732
 21
44.8179
 31
0.0
  0
LINE
  8
0
 62
     0
 10
140.732
 20
44.8179
 30
0.0
 11
139.931
 21
44.8179
 31
0.0
  0
LINE
  8
0
 62
     0
 10
139.931
 20
44.8179
 30
0.0
 11
139.931
 21
41.7174
 31
0.0
  0
LINE
  8
0
 62
     0
 10
139.931
 20
41.7174
 30
0.0
 11
140.732
 21
41.7174
 31
0.0
  0
LINE
  8
0
 62
     0
 10
140.732
 20
41.7174
 30
0.0
 11
140.732
 21
40.7183
 31
0.0
  0
LINE
  8
0
 62
     0
 10
140.732
 20
40.7183
 30
0.0
 11
154.732
 21
40.7183
 31
0.0
  0
LINE
  8
0
 62
     0
 10
154.732
 20
40.7183
 30
0.0
 11
154.732
 21
41.7174
 31
0.0
  0
LINE
  8
0
 62
     0
 10
154.732
 20
41.7174
 30
0.0
 11
155.532
 21
41.7174
 31
0.0
  0
LINE
  8
0
 62
     0
 10
155.532
 20
41.7174
 30
0.0
 11
155.532
 21
44.8179
 31
0.0
  0
LINE
  8
0
 62
     0
 10
155.532
 20
44.8179
 30
0.0
 11
154.732
 21
44.8179
 31
0.0
  0
LINE
  8
0
 62
     0
 10
154.732
 20
44.8179
 30
0.0
 11
154.732
 21
50.618
 31
0.0
  0
LINE
  8
0
 62
     0
 10
154.732
 20
50.618
 30
0.0
 11
155.532
 21
50.618
 31
0.0
  0
LINE
  8
0
 62
     0
 10
155.532
 20
50.618
 30
0.0
 11
155.532
 21
53.7175
 31
0.0
  0
LINE
  8
0
 62
     0
 10
155.532
 20
53.7175
 30
0.0
 11
154.732
 21
53.7175
 31
0.0
  0
LINE
  8
0
 62
     0
 10
154.732
 20
53.7175
 30
0.0
 11
154.732
 21
54.7176
 31
0.0
  0
LINE
  8
0
 62
     0
 10
154.732
 20
54.7176
 30
0.0
 11
140.732
 21
54.7176
 31
0.0
  0
LINE
  8
0
 62
     0
 10
159.782
 20
54.7176
 30
0.0
 11
159.782
 21
53.7175
 31
0.0
  0
LINE
  8
0
 62
     0
 10
159.782
 20
53.7175
 30
0.0
 11
158.981
 21
53.7175
 31
0.0
  0
LINE
  8
0
 62
     0
 10
158.981
 20
53.7175
 30
0.0
 11
158.981
 21
50.618
 31
0.0
  0
LINE
  8
0
 62
     0
 10
158.981
 20
50.618
 30
0.0
 11
159.782
 21
50.618
 31
0.0
  0
LINE
  8
0
 62
     0
 10
159.782
 20
50.618
 30
0.0
 11
159.782
 21
44.8179
 31
0.0
  0
LINE
  8
0
 62
     0
 10
159.782
 20
44.8179
 30
0.0
 11
158.981
 21
44.8179
 31
0.0
  0
LINE
  8
0
 62
     0
 10
158.981
 20
44.8179
 30
0.0
 11
158.981
 21
41.7174
 31
0.0
  0
LINE
  8
0
 62
     0
 10
158.981
 20
41.7174
 30
0.0
 11
159.782
 21
41.7174
 31
0.0
  0
LINE
  8
0
 62
     0
 10
159.782
 20
41.7174
 30
0.0
 11
159.782
 21
40.7183
 31
0.0
  0
LINE
  8
0
 62
     0
 10
159.782
 20
40.7183
 30
0.0
 11
173.782
 21
40.7183
 31
0.0
  0
LINE
  8
0
 62
     0
 10
173.782
 20
40.7183
 30
0.0
 11
173.782
 21
41.7174
 31
0.0
  0
LINE
  8
0
 62
     0
 10
173.782
 20
41.7174
 30
0.0
 11
174.582
 21
41.7174
 31
0.0
  0
LINE
  8
0
 62
     0
 10
174.582
 20
41.7174
 30
0.0
 11
174.582
 21
44.8179
 31
0.0
  0
LINE
  8
0
 62
     0
 10
174.582
 20
44.8179
 30
0.0
 11
173.782
 21
44.8179
 31
0.0
  0
LINE
  8
0
 62
     0
 10
173.782
 20
44.8179
 30
0.0
 11
173.782
 21
50.618
 31
0.0
  0
LINE
  8
0
 62
     0
 10
173.782
 20
50.618
 30
0.0
 11
174.582
 21
50.618
 31
0.0
  0
LINE
  8
0
 62
     0
 10
174.582
 20
50.618
 30
0.0
 11
174.582
 21
53.7175
 31
0.0
  0
LINE
  8
0
 62
     0
 10
174.582
 20
53.7175
 30
0.0
 11
173.782
 21
53.7175
 31
0.0
  0
LINE
  8
0
 62
     0
 10
173.782
 20
53.7175
 30
0.0
 11
173.782
 21
54.7176
 31
0.0
  0
LINE
  8
0
 62
     0
 10
173.782
 20
54.7176
 30
0.0
 11
159.782
 21
54.7176
 31
0.0
  0
LINE
  8
0
 62
     0
 10
178.832
 20
54.7176
 30
0.0
 11
178.832
 21
53.7175
 31
0.0
  0
LINE
  8
0
 62
     0
 10
178.832
 20
53.7175
 30
0.0
 11
178.031
 21
53.7175
 31
0.0
  0
LINE
  8
0
 62
     0
 10
178.031
 20
53.7175
 30
0.0
 11
178.031
 21
50.618
 31
0.0
  0
LINE
  8
0
 62
     0
 10
178.031
 20
50.618
 30
0.0
 11
178.832
 21
50.618
 31
0.0
  0
LINE
  8
0
 62
     0
 10
178.832
 20
50.618
 30
0.0
 11
178.832
 21
44.8179
 31
0.0
  0
LINE
  8
0
 62
     0
 10
178.832
 20
44.8179
 30
0.0
 11
178.031
 21
44.8179
 31
0.0
  0
LINE
  8
0
 62
     0
 10
178.031
 20
44.8179
 30
0.0
 11
178.031
 21
41.7174
 31
0.0
  0
LINE
  8
0
 62
     0
 10
178.031
 20
41.7174
 30
0.0
 11
178.832
 21
41.7174
 31
0.0
  0
LINE
  8
0
 62
     0
 10
178.832
 20
41.7174
 30
0.0
 11
178.832
 21
40.7183
 31
0.0
  0
LINE
  8
0
 62
     0
 10
178.832
 20
40.7183
 30
0.0
 11
192.832
 21
40.7183
 31
0.0
  0
LINE
  8
0
 62
     0
 10
192.832
 20
40.7183
 30
0.0
 11
192.832
 21
41.7174
 31
0.0
  0
LINE
  8
0
 62
     0
 10
192.832
 20
41.7174
 30
0.0
 11
193.632
 21
41.7174
 31
0.0
  0
LINE
  8
0
 62
     0
 10
193.632
 20
41.7174
 30
0.0
 11
193.632
 21
44.8179
 31
0.0
  0
LINE
  8
0
 62
     0
 10
193.632
 20
44.8179
 30
0.0
 11
192.832
 21
44.8179
 31
0.0
  0
LINE
  8
0
 62
     0
 10
192.832
 20
44.8179
 30
0.0
 11
192.832
 21
50.618
 31
0.0
  0
LINE
  8
0
 62
     0
 10
192.832
 20
50.618
 30
0.0
 11
193.632
 21
50.618
 31
0.0
  0
LINE
  8
0
 62
     0
 10
193.632
 20
50.618
 30
0.0
 11
193.632
 21
53.7175
 31
0.0
  0
LINE
  8
0
 62
     0
 10
193.632
 20
53.7175
 30
0.0
 11
192.832
 21
53.7175
 31
0.0
  0
LINE
  8
0
 62
     0
 10
192.832
 20
53.7175
 30
0.0
 11
192.832
 21
54.7176
 31
0.0
  0
LINE
  8
0
 62
     0
 10
192.832
 20
54.7176
 30
0.0
 11
178.832
 21
54.7176
 31
0.0
  0
LINE
  8
0
 62
     0
 10
197.882
 20
54.7176
 30
0.0
 11
197.882
 21
53.7175
 31
0.0
  0
LINE
  8
0
 62
     0
 10
197.882
 20
53.7175
 30
0.0
 11
197.081
 21
53.7175
 31
0.0
  0
LINE
  8
0
 62
     0
 10
197.081
 20
53.7175
 30
0.0
 11
197.081
 21
50.618
 31
0.0
  0
LINE
  8
0
 62
     0
 10
197.081
 20
50.618
 30
0.0
 11
197.882
 21
50.618
 31
0.0
  0
LINE
  8
0
 62
     0
 10
197.882
 20
50.618
 30
0.0
 11
197.882
 21
44.8179
 31
0.0
  0
LINE
  8
0
 62
     0
 10
197.882
 20
44.8179
 30
0.0
 11
197.081
 21
44.8179
 31
0.0
  0
LINE
  8
0
 62
     0
 10
197.081
 20
44.8179
 30
0.0
 11
197.081
 21
41.7174
 31
0.0
  0
LINE
  8
0
 62
     0
 10
197.081
 20
41.7174
 30
0.0
 11
197.882
 21
41.7174
 31
0.0
  0
LINE
  8
0
 62
     0
 10
197.882
 20
41.7174
 30
0.0
 11
197.882
 21
40.7183
 31
0.0
  0
LINE
  8
0
 62
     0
 10
197.882
 20
40.7183
 30
0.0
 11
211.882
 21
40.7183
 31
0.0
  0
LINE
  8
0
 62
     0
 10
211.882
 20
40.7183
 30
0.0
 11
211.882
 21
41.7174
 31
0.0
  0
LINE
  8
0
 62
     0
 10
211.882
 20
41.7174
 30
0.0
 11
212.682
 21
41.7174
 31
0.0
  0
LINE
  8
0
 62
     0
 10
212.682
 20
41.7174
 30
0.0
 11
212.682
 21
44.8179
 31
0.0
  0
LINE
  8
0
 62
     0
 10
212.682
 20
44.8179
 30
0.0
 11
211.882
 21
44.8179
 31
0.0
  0
LINE
  8
0
 62
     0
 10
211.882
 20
44.8179
 30
0.0
 11
211.882
 21
50.618
 31
0.0
  0
LINE
  8
0
 62
     0
 10
211.882
 20
50.618
 30
0.0
 11
212.682
 21
50.618
 31
0.0
  0
LINE
  8
0
 62
     0
 10
212.682
 20
50.618
 30
0.0
 11
212.682
 21
53.7175
 31
0.0
  0
LINE
  8
0
 62
     0
 10
212.682
 20
53.7175
 30
0.0
 11
211.882
 21
53.7175
 31
0.0
  0
LINE
  8
0
 62
     0
 10
211.882
 20
53.7175
 30
0.0
 11
211.882
 21
54.7176
 31
0.0
  0
LINE
  8
0
 62
     0
 10
211.882
 20
54.7176
 30
0.0
 11
197.882
 21
54.7176
 31
0.0
  0
LINE
  8
0
 62
     0
 10
221.695
 20
54.7176
 30
0.0
 11
221.695
 21
53.7175
 31
0.0
  0
LINE
  8
0
 62
     0
 10
221.695
 20
53.7175
 30
0.0
 11
220.895
 21
53.7175
 31
0.0
  0
LINE
  8
0
 62
     0
 10
220.895
 20
53.7175
 30
0.0
 11
220.895
 21
50.618
 31
0.0
  0
LINE
  8
0
 62
     0
 10
220.895
 20
50.618
 30
0.0
 11
221.695
 21
50.618
 31
0.0
  0
LINE
  8
0
 62
     0
 10
221.695
 20
50.618
 30
0.0
 11
221.695
 21
44.8179
 31
0.0
  0
LINE
  8
0
 62
     0
 10
221.695
 20
44.8179
 30
0.0
 11
220.895
 21
44.8179
 31
0.0
  0
LINE
  8
0
 62
     0
 10
220.895
 20
44.8179
 30
0.0
 11
220.895
 21
41.7174
 31
0.0
  0
LINE
  8
0
 62
     0
 10
220.895
 20
41.7174
 30
0.0
 11
221.695
 21
41.7174
 31
0.0
  0
LINE
  8
0
 62
     0
 10
221.695
 20
41.7174
 30
0.0
 11
221.695
 21
40.7183
 31
0.0
  0
LINE
  8
0
 62
     0
 10
221.695
 20
40.7183
 30
0.0
 11
235.694
 21
40.7183
 31
0.0
  0
LINE
  8
0
 62
     0
 10
235.694
 20
40.7183
 30
0.0
 11
235.694
 21
41.7174
 31
0.0
  0
LINE
  8
0
 62
     0
 10
235.694
 20
41.7174
 30
0.0
 11
236.495
 21
41.7174
 31
0.0
  0
LINE
  8
0
 62
     0
 10
236.495
 20
41.7174
 30
0.0
 11
236.495
 21
44.8179
 31
0.0
  0
LINE
  8
0
 62
     0
 10
236.495
 20
44.8179
 30
0.0
 11
235.694
 21
44.8179
 31
0.0
  0
LINE
  8
0
 62
     0
 10
235.694
 20
44.8179
 30
0.0
 11
235.694
 21
50.618
 31
0.0
  0
LINE
  8
0
 62
     0
 10
235.694
 20
50.618
 30
0.0
 11
236.495
 21
50.618
 31
0.0
  0
LINE
  8
0
 62
     0
 10
236.495
 20
50.618
 30
0.0
 11
236.495
 21
53.7175
 31
0.0
  0
LINE
  8
0
 62
     0
 10
236.495
 20
53.7175
 30
0.0
 11
235.694
 21
53.7175
 31
0.0
  0
LINE
  8
0
 62
     0
 10
235.694
 20
53.7175
 30
0.0
 11
235.694
 21
54.7176
 31
0.0
  0
LINE
  8
0
 62
     0
 10
235.694
 20
54.7176
 30
0.0
 11
221.695
 21
54.7176
 31
0.0
  0
LINE
  8
0
 62
     0
 10
245.507
 20
54.7176
 30
0.0
 11
245.507
 21
53.7175
 31
0.0
  0
LINE
  8
0
 62
     0
 10
245.507
 20
53.7175
 30
0.0
 11
244.706
 21
53.7175
 31
0.0
  0
LINE
  8
0
 62
     0
 10
244.706
 20
53.7175
 30
0.0
 11
244.706
 21
50.618
 31
0.0
  0
LINE
  8
0
 62
     0
 10
244.706
 20
50.618
 30
0.0
 11
245.507
 21
50.618
 31
0.0
  0
LINE
  8
0
 62
     0
 10
245.507
 20
50.618
 30
0.0
 11
245.507
 21
44.8179
 31
0.0
  0
LINE
  8
0
 62
     0
 10
245.507
 20
44.8179
 30
0.0
 11
244.706
 21
44.8179
 31
0.0
  0
LINE
  8
0
 62
     0
 10
244.706
 20
44.8179
 30
0.0
 11
244.706
 21
41.7174
 31
0.0
  0
LINE
  8
0
 62
     0
 10
244.706
 20
41.7174
 30
0.0
 11
245.507
 21
41.7174
 31
0.0
  0
LINE
  8
0
 62
     0
 10
245.507
 20
41.7174
 30
0.0
 11
245.507
 21
40.7183
 31
0.0
  0
LINE
  8
0
 62
     0
 10
245.507
 20
40.7183
 30
0.0
 11
259.507
 21
40.7183
 31
0.0
  0
LINE
  8
0
 62
     0
 10
259.507
 20
40.7183
 30
0.0
 11
259.507
 21
41.7174
 31
0.0
  0
LINE
  8
0
 62
     0
 10
259.507
 20
41.7174
 30
0.0
 11
260.307
 21
41.7174
 31
0.0
  0
LINE
  8
0
 62
     0
 10
260.307
 20
41.7174
 30
0.0
 11
260.307
 21
44.8179
 31
0.0
  0
LINE
  8
0
 62
     0
 10
260.307
 20
44.8179
 30
0.0
 11
259.507
 21
44.8179
 31
0.0
  0
LINE
  8
0
 62
     0
 10
259.507
 20
44.8179
 30
0.0
 11
259.507
 21
50.618
 31
0.0
  0
LINE
  8
0
 62
     0
 10
259.507
 20
50.618
 30
0.0
 11
260.307
 21
50.618
 31
0.0
  0
LINE
  8
0
 62
     0
 10
260.307
 20
50.618
 30
0.0
 11
260.307
 21
53.7175
 31
0.0
  0
LINE
  8
0
 62
     0
 10
260.307
 20
53.7175
 30
0.0
 11
259.507
 21
53.7175
 31
0.0
  0
LINE
  8
0
 62
     0
 10
259.507
 20
53.7175
 30
0.0
 11
259.507
 21
54.7176
 31
0.0
  0
LINE
  8
0
 62
     0
 10
259.507
 20
54.7176
 30
0.0
 11
245.507
 21
54.7176
 31
0.0
  0
LINE
  8
0
 62
     0
 10
2.61965
 20
73.7676
 30
0.0
 11
2.61965
 21
72.7675
 31
0.0
  0
LINE
  8
0
 62
     0
 10
2.61965
 20
72.7675
 30
0.0
 11
1.82039
 21
72.7675
 31
0.0
  0
LINE
  8
0
 62
     0
 10
1.82039
 20
72.7675
 30
0.0
 11
1.82039
 21
69.668
 31
0.0
  0
LINE
  8
0
 62
     0
 10
1.82039
 20
69.668
 30
0.0
 11
2.61965
 21
69.668
 31
0.0
  0
LINE
  8
0
 62
     0
 10
2.61965
 20
69.668
 30
0.0
 11
2.61965
 21
63.8679
 31
0.0
  0
LINE
  8
0
 62
     0
 10
2.61965
 20
63.8679
 30
0.0
 11
1.82039
 21
63.8679
 31
0.0
  0
LINE
  8
0
 62
     0
 10
1.82039
 20
63.8679
 30
0.0
 11
1.82039
 21
60.7674
 31
0.0
  0
LINE
  8
0
 62
     0
 10
1.82039
 20
60.7674
 30
0.0
 11
2.61965
 21
60.7674
 31
0.0
  0
LINE
  8
0
 62
     0
 10
2.61965
 20
60.7674
 30
0.0
 11
2.61965
 21
59.7683
 31
0.0
  0
LINE
  8
0
 62
     0
 10
2.61965
 20
59.7683
 30
0.0
 11
16.6192
 21
59.7683
 31
0.0
  0
LINE
  8
0
 62
     0
 10
16.6192
 20
59.7683
 30
0.0
 11
16.6192
 21
60.7674
 31
0.0
  0
LINE
  8
0
 62
     0
 10
16.6192
 20
60.7674
 30
0.0
 11
17.4198
 21
60.7674
 31
0.0
  0
LINE
  8
0
 62
     0
 10
17.4198
 20
60.7674
 30
0.0
 11
17.4198
 21
63.8679
 31
0.0
  0
LINE
  8
0
 62
     0
 10
17.4198
 20
63.8679
 30
0.0
 11
16.6192
 21
63.8679
 31
0.0
  0
LINE
  8
0
 62
     0
 10
16.6192
 20
63.8679
 30
0.0
 11
16.6192
 21
69.668
 31
0.0
  0
LINE
  8
0
 62
     0
 10
16.6192
 20
69.668
 30
0.0
 11
17.4198
 21
69.668
 31
0.0
  0
LINE
  8
0
 62
     0
 10
17.4198
 20
69.668
 30
0.0
 11
17.4198
 21
72.7675
 31
0.0
  0
LINE
  8
0
 62
     0
 10
17.4198
 20
72.7675
 30
0.0
 11
16.6192
 21
72.7675
 31
0.0
  0
LINE
  8
0
 62
     0
 10
16.6192
 20
72.7675
 30
0.0
 11
16.6192
 21
73.7676
 31
0.0
  0
LINE
  8
0
 62
     0
 10
16.6192
 20
73.7676
 30
0.0
 11
2.61965
 21
73.7676
 31
0.0
  0
LINE
  8
0
 62
     0
 10
21.6697
 20
73.7676
 30
0.0
 11
21.6697
 21
72.7675
 31
0.0
  0
LINE
  8
0
 62
     0
 10
21.6697
 20
72.7675
 30
0.0
 11
20.8704
 21
72.7675
 31
0.0
  0
LINE
  8
0
 62
     0
 10
20.8704
 20
72.7675
 30
0.0
 11
20.8704
 21
69.668
 31
0.0
  0
LINE
  8
0
 62
     0
 10
20.8704
 20
69.668
 30
0.0
 11
21.6697
 21
69.668
 31
0.0
  0
LINE
  8
0
 62
     0
 10
21.6697
 20
69.668
 30
0.0
 11
21.6697
 21
63.8679
 31
0.0
  0
LINE
  8
0
 62
     0
 10
21.6697
 20
63.8679
 30
0.0
 11
20.8704
 21
63.8679
 31
0.0
  0
LINE
  8
0
 62
     0
 10
20.8704
 20
63.8679
 30
0.0
 11
20.8704
 21
60.7674
 31
0.0
  0
LINE
  8
0
 62
     0
 10
20.8704
 20
60.7674
 30
0.0
 11
21.6697
 21
60.7674
 31
0.0
  0
LINE
  8
0
 62
     0
 10
21.6697
 20
60.7674
 30
0.0
 11
21.6697
 21
59.7683
 31
0.0
  0
LINE
  8
0
 62
     0
 10
21.6697
 20
59.7683
 30
0.0
 11
35.669
 21
59.7683
 31
0.0
  0
LINE
  8
0
 62
     0
 10
35.669
 20
59.7683
 30
0.0
 11
35.669
 21
60.7674
 31
0.0
  0
LINE
  8
0
 62
     0
 10
35.669
 20
60.7674
 30
0.0
 11
36.4698
 21
60.7674
 31
0.0
  0
LINE
  8
0
 62
     0
 10
36.4698
 20
60.7674
 30
0.0
 11
36.4698
 21
63.8679
 31
0.0
  0
LINE
  8
0
 62
     0
 10
36.4698
 20
63.8679
 30
0.0
 11
35.669
 21
63.8679
 31
0.0
  0
LINE
  8
0
 62
     0
 10
35.669
 20
63.8679
 30
0.0
 11
35.669
 21
69.668
 31
0.0
  0
LINE
  8
0
 62
     0
 10
35.669
 20
69.668
 30
0.0
 11
36.4698
 21
69.668
 31
0.0
  0
LINE
  8
0
 62
     0
 10
36.4698
 20
69.668
 30
0.0
 11
36.4698
 21
72.7675
 31
0.0
  0
LINE
  8
0
 62
     0
 10
36.4698
 20
72.7675
 30
0.0
 11
35.669
 21
72.7675
 31
0.0
  0
LINE
  8
0
 62
     0
 10
35.669
 20
72.7675
 30
0.0
 11
35.669
 21
73.7676
 31
0.0
  0
LINE
  8
0
 62
     0
 10
35.669
 20
73.7676
 30
0.0
 11
21.6697
 21
73.7676
 31
0.0
  0
LINE
  8
0
 62
     0
 10
40.7197
 20
73.7676
 30
0.0
 11
40.7197
 21
72.7675
 31
0.0
  0
LINE
  8
0
 62
     0
 10
40.7197
 20
72.7675
 30
0.0
 11
39.9203
 21
72.7675
 31
0.0
  0
LINE
  8
0
 62
     0
 10
39.9203
 20
72.7675
 30
0.0
 11
39.9203
 21
69.668
 31
0.0
  0
LINE
  8
0
 62
     0
 10
39.9203
 20
69.668
 30
0.0
 11
40.7197
 21
69.668
 31
0.0
  0
LINE
  8
0
 62
     0
 10
40.7197
 20
69.668
 30
0.0
 11
40.7197
 21
63.8679
 31
0.0
  0
LINE
  8
0
 62
     0
 10
40.7197
 20
63.8679
 30
0.0
 11
39.9203
 21
63.8679
 31
0.0
  0
LINE
  8
0
 62
     0
 10
39.9203
 20
63.8679
 30
0.0
 11
39.9203
 21
60.7674
 31
0.0
  0
LINE
  8
0
 62
     0
 10
39.9203
 20
60.7674
 30
0.0
 11
40.7197
 21
60.7674
 31
0.0
  0
LINE
  8
0
 62
     0
 10
40.7197
 20
60.7674
 30
0.0
 11
40.7197
 21
59.7683
 31
0.0
  0
LINE
  8
0
 62
     0
 10
40.7197
 20
59.7683
 30
0.0
 11
54.719
 21
59.7683
 31
0.0
  0
LINE
  8
0
 62
     0
 10
54.719
 20
59.7683
 30
0.0
 11
54.719
 21
60.7674
 31
0.0
  0
LINE
  8
0
 62
     0
 10
54.719
 20
60.7674
 30
0.0
 11
55.5198
 21
60.7674
 31
0.0
  0
LINE
  8
0
 62
     0
 10
55.5198
 20
60.7674
 30
0.0
 11
55.5198
 21
63.8679
 31
0.0
  0
LINE
  8
0
 62
     0
 10
55.5198
 20
63.8679
 30
0.0
 11
54.719
 21
63.8679
 31
0.0
  0
LINE
  8
0
 62
     0
 10
54.719
 20
63.8679
 30
0.0
 11
54.719
 21
69.668
 31
0.0
  0
LINE
  8
0
 62
     0
 10
54.719
 20
69.668
 30
0.0
 11
55.5198
 21
69.668
 31
0.0
  0
LINE
  8
0
 62
     0
 10
55.5198
 20
69.668
 30
0.0
 11
55.5198
 21
72.7675
 31
0.0
  0
LINE
  8
0
 62
     0
 10
55.5198
 20
72.7675
 30
0.0
 11
54.719
 21
72.7675
 31
0.0
  0
LINE
  8
0
 62
     0
 10
54.719
 20
72.7675
 30
0.0
 11
54.719
 21
73.7676
 31
0.0
  0
LINE
  8
0
 62
     0
 10
54.719
 20
73.7676
 30
0.0
 11
40.7197
 21
73.7676
 31
0.0
  0
LINE
  8
0
 62
     0
 10
59.7697
 20
73.7676
 30
0.0
 11
59.7697
 21
72.7675
 31
0.0
  0
LINE
  8
0
 62
     0
 10
59.7697
 20
72.7675
 30
0.0
 11
58.9703
 21
72.7675
 31
0.0
  0
LINE
  8
0
 62
     0
 10
58.9703
 20
72.7675
 30
0.0
 11
58.9703
 21
69.668
 31
0.0
  0
LINE
  8
0
 62
     0
 10
58.9703
 20
69.668
 30
0.0
 11
59.7697
 21
69.668
 31
0.0
  0
LINE
  8
0
 62
     0
 10
59.7697
 20
69.668
 30
0.0
 11
59.7697
 21
63.8679
 31
0.0
  0
LINE
  8
0
 62
     0
 10
59.7697
 20
63.8679
 30
0.0
 11
58.9703
 21
63.8679
 31
0.0
  0
LINE
  8
0
 62
     0
 10
58.9703
 20
63.8679
 30
0.0
 11
58.9703
 21
60.7674
 31
0.0
  0
LINE
  8
0
 62
     0
 10
58.9703
 20
60.7674
 30
0.0
 11
59.7697
 21
60.7674
 31
0.0
  0
LINE
  8
0
 62
     0
 10
59.7697
 20
60.7674
 30
0.0
 11
59.7697
 21
59.7683
 31
0.0
  0
LINE
  8
0
 62
     0
 10
59.7697
 20
59.7683
 30
0.0
 11
73.769
 21
59.7683
 31
0.0
  0
LINE
  8
0
 62
     0
 10
73.769
 20
59.7683
 30
0.0
 11
73.769
 21
60.7674
 31
0.0
  0
LINE
  8
0
 62
     0
 10
73.769
 20
60.7674
 30
0.0
 11
74.5698
 21
60.7674
 31
0.0
  0
LINE
  8
0
 62
     0
 10
74.5698
 20
60.7674
 30
0.0
 11
74.5698
 21
63.8679
 31
0.0
  0
LINE
  8
0
 62
     0
 10
74.5698
 20
63.8679
 30
0.0
 11
73.769
 21
63.8679
 31
0.0
  0
LINE
  8
0
 62
     0
 10
73.769
 20
63.8679
 30
0.0
 11
73.769
 21
69.668
 31
0.0
  0
LINE
  8
0
 62
     0
 10
73.769
 20
69.668
 30
0.0
 11
74.5698
 21
69.668
 31
0.0
  0
LINE
  8
0
 62
     0
 10
74.5698
 20
69.668
 30
0.0
 11
74.5698
 21
72.7675
 31
0.0
  0
LINE
  8
0
 62
     0
 10
74.5698
 20
72.7675
 30
0.0
 11
73.769
 21
72.7675
 31
0.0
  0
LINE
  8
0
 62
     0
 10
73.769
 20
72.7675
 30
0.0
 11
73.769
 21
73.7676
 31
0.0
  0
LINE
  8
0
 62
     0
 10
73.769
 20
73.7676
 30
0.0
 11
59.7697
 21
73.7676
 31
0.0
  0
LINE
  8
0
 62
     0
 10
78.8197
 20
73.7676
 30
0.0
 11
78.8197
 21
72.7675
 31
0.0
  0
LINE
  8
0
 62
     0
 10
78.8197
 20
72.7675
 30
0.0
 11
78.0203
 21
72.7675
 31
0.0
  0
LINE
  8
0
 62
     0
 10
78.0203
 20
72.7675
 30
0.0
 11
78.0203
 21
69.668
 31
0.0
  0
LINE
  8
0
 62
     0
 10
78.0203
 20
69.668
 30
0.0
 11
78.8197
 21
69.668
 31
0.0
  0
LINE
  8
0
 62
     0
 10
78.8197
 20
69.668
 30
0.0
 11
78.8197
 21
63.8679
 31
0.0
  0
LINE
  8
0
 62
     0
 10
78.8197
 20
63.8679
 30
0.0
 11
78.0203
 21
63.8679
 31
0.0
  0
LINE
  8
0
 62
     0
 10
78.0203
 20
63.8679
 30
0.0
 11
78.0203
 21
60.7674
 31
0.0
  0
LINE
  8
0
 62
     0
 10
78.0203
 20
60.7674
 30
0.0
 11
78.8197
 21
60.7674
 31
0.0
  0
LINE
  8
0
 62
     0
 10
78.8197
 20
60.7674
 30
0.0
 11
78.8197
 21
59.7683
 31
0.0
  0
LINE
  8
0
 62
     0
 10
78.8197
 20
59.7683
 30
0.0
 11
92.819
 21
59.7683
 31
0.0
  0
LINE
  8
0
 62
     0
 10
92.819
 20
59.7683
 30
0.0
 11
92.819
 21
60.7674
 31
0.0
  0
LINE
  8
0
 62
     0
 10
92.819
 20
60.7674
 30
0.0
 11
93.6184
 21
60.7674
 31
0.0
  0
LINE
  8
0
 62
     0
 10
93.6184
 20
60.7674
 30
0.0
 11
93.6184
 21
63.8679
 31
0.0
  0
LINE
  8
0
 62
     0
 10
93.6184
 20
63.8679
 30
0.0
 11
92.819
 21
63.8679
 31
0.0
  0
LINE
  8
0
 62
     0
 10
92.819
 20
63.8679
 30
0.0
 11
92.819
 21
69.668
 31
0.0
  0
LINE
  8
0
 62
     0
 10
92.819
 20
69.668
 30
0.0
 11
93.6184
 21
69.668
 31
0.0
  0
LINE
  8
0
 62
     0
 10
93.6184
 20
69.668
 30
0.0
 11
93.6184
 21
72.7675
 31
0.0
  0
LINE
  8
0
 62
     0
 10
93.6184
 20
72.7675
 30
0.0
 11
92.819
 21
72.7675
 31
0.0
  0
LINE
  8
0
 62
     0
 10
92.819
 20
72.7675
 30
0.0
 11
92.819
 21
73.7676
 31
0.0
  0
LINE
  8
0
 62
     0
 10
92.819
 20
73.7676
 30
0.0
 11
78.8197
 21
73.7676
 31
0.0
  0
LINE
  8
0
 62
     0
 10
97.8683
 20
73.7676
 30
0.0
 11
97.8683
 21
72.7675
 31
0.0
  0
LINE
  8
0
 62
     0
 10
97.8683
 20
72.7675
 30
0.0
 11
97.0703
 21
72.7675
 31
0.0
  0
LINE
  8
0
 62
     0
 10
97.0703
 20
72.7675
 30
0.0
 11
97.0703
 21
69.668
 31
0.0
  0
LINE
  8
0
 62
     0
 10
97.0703
 20
69.668
 30
0.0
 11
97.8683
 21
69.668
 31
0.0
  0
LINE
  8
0
 62
     0
 10
97.8683
 20
69.668
 30
0.0
 11
97.8683
 21
63.8679
 31
0.0
  0
LINE
  8
0
 62
     0
 10
97.8683
 20
63.8679
 30
0.0
 11
97.0703
 21
63.8679
 31
0.0
  0
LINE
  8
0
 62
     0
 10
97.0703
 20
63.8679
 30
0.0
 11
97.0703
 21
60.7674
 31
0.0
  0
LINE
  8
0
 62
     0
 10
97.0703
 20
60.7674
 30
0.0
 11
97.8683
 21
60.7674
 31
0.0
  0
LINE
  8
0
 62
     0
 10
97.8683
 20
60.7674
 30
0.0
 11
97.8683
 21
59.7683
 31
0.0
  0
LINE
  8
0
 62
     0
 10
97.8683
 20
59.7683
 30
0.0
 11
111.869
 21
59.7683
 31
0.0
  0
LINE
  8
0
 62
     0
 10
111.869
 20
59.7683
 30
0.0
 11
111.869
 21
60.7674
 31
0.0
  0
LINE
  8
0
 62
     0
 10
111.869
 20
60.7674
 30
0.0
 11
112.668
 21
60.7674
 31
0.0
  0
LINE
  8
0
 62
     0
 10
112.668
 20
60.7674
 30
0.0
 11
112.668
 21
63.8679
 31
0.0
  0
LINE
  8
0
 62
     0
 10
112.668
 20
63.8679
 30
0.0
 11
111.869
 21
63.8679
 31
0.0
  0
LINE
  8
0
 62
     0
 10
111.869
 20
63.8679
 30
0.0
 11
111.869
 21
69.668
 31
0.0
  0
LINE
  8
0
 62
     0
 10
111.869
 20
69.668
 30
0.0
 11
112.668
 21
69.668
 31
0.0
  0
LINE
  8
0
 62
     0
 10
112.668
 20
69.668
 30
0.0
 11
112.668
 21
72.7675
 31
0.0
  0
LINE
  8
0
 62
     0
 10
112.668
 20
72.7675
 30
0.0
 11
111.869
 21
72.7675
 31
0.0
  0
LINE
  8
0
 62
     0
 10
111.869
 20
72.7675
 30
0.0
 11
111.869
 21
73.7676
 31
0.0
  0
LINE
  8
0
 62
     0
 10
111.869
 20
73.7676
 30
0.0
 11
97.8683
 21
73.7676
 31
0.0
  0
LINE
  8
0
 62
     0
 10
116.918
 20
73.7676
 30
0.0
 11
116.918
 21
72.7675
 31
0.0
  0
LINE
  8
0
 62
     0
 10
116.918
 20
72.7675
 30
0.0
 11
116.119
 21
72.7675
 31
0.0
  0
LINE
  8
0
 62
     0
 10
116.119
 20
72.7675
 30
0.0
 11
116.119
 21
69.668
 31
0.0
  0
LINE
  8
0
 62
     0
 10
116.119
 20
69.668
 30
0.0
 11
116.918
 21
69.668
 31
0.0
  0
LINE
  8
0
 62
     0
 10
116.918
 20
69.668
 30
0.0
 11
116.918
 21
63.8679
 31
0.0
  0
LINE
  8
0
 62
     0
 10
116.918
 20
63.8679
 30
0.0
 11
116.119
 21
63.8679
 31
0.0
  0
LINE
  8
0
 62
     0
 10
116.119
 20
63.8679
 30
0.0
 11
116.119
 21
60.7674
 31
0.0
  0
LINE
  8
0
 62
     0
 10
116.119
 20
60.7674
 30
0.0
 11
116.918
 21
60.7674
 31
0.0
  0
LINE
  8
0
 62
     0
 10
116.918
 20
60.7674
 30
0.0
 11
116.918
 21
59.7683
 31
0.0
  0
LINE
  8
0
 62
     0
 10
116.918
 20
59.7683
 30
0.0
 11
130.919
 21
59.7683
 31
0.0
  0
LINE
  8
0
 62
     0
 10
130.919
 20
59.7683
 30
0.0
 11
130.919
 21
60.7674
 31
0.0
  0
LINE
  8
0
 62
     0
 10
130.919
 20
60.7674
 30
0.0
 11
131.72
 21
60.7674
 31
0.0
  0
LINE
  8
0
 62
     0
 10
131.72
 20
60.7674
 30
0.0
 11
131.72
 21
63.8679
 31
0.0
  0
LINE
  8
0
 62
     0
 10
131.72
 20
63.8679
 30
0.0
 11
130.919
 21
63.8679
 31
0.0
  0
LINE
  8
0
 62
     0
 10
130.919
 20
63.8679
 30
0.0
 11
130.919
 21
69.668
 31
0.0
  0
LINE
  8
0
 62
     0
 10
130.919
 20
69.668
 30
0.0
 11
131.72
 21
69.668
 31
0.0
  0
LINE
  8
0
 62
     0
 10
131.72
 20
69.668
 30
0.0
 11
131.72
 21
72.7675
 31
0.0
  0
LINE
  8
0
 62
     0
 10
131.72
 20
72.7675
 30
0.0
 11
130.919
 21
72.7675
 31
0.0
  0
LINE
  8
0
 62
     0
 10
130.919
 20
72.7675
 30
0.0
 11
130.919
 21
73.7676
 31
0.0
  0
LINE
  8
0
 62
     0
 10
130.919
 20
73.7676
 30
0.0
 11
116.918
 21
73.7676
 31
0.0
  0
LINE
  8
0
 62
     0
 10
135.97
 20
73.7676
 30
0.0
 11
135.97
 21
72.7675
 31
0.0
  0
LINE
  8
0
 62
     0
 10
135.97
 20
72.7675
 30
0.0
 11
135.17
 21
72.7675
 31
0.0
  0
LINE
  8
0
 62
     0
 10
135.17
 20
72.7675
 30
0.0
 11
135.17
 21
69.668
 31
0.0
  0
LINE
  8
0
 62
     0
 10
135.17
 20
69.668
 30
0.0
 11
135.97
 21
69.668
 31
0.0
  0
LINE
  8
0
 62
     0
 10
135.97
 20
69.668
 30
0.0
 11
135.97
 21
63.8679
 31
0.0
  0
LINE
  8
0
 62
     0
 10
135.97
 20
63.8679
 30
0.0
 11
135.17
 21
63.8679
 31
0.0
  0
LINE
  8
0
 62
     0
 10
135.17
 20
63.8679
 30
0.0
 11
135.17
 21
60.7674
 31
0.0
  0
LINE
  8
0
 62
     0
 10
135.17
 20
60.7674
 30
0.0
 11
135.97
 21
60.7674
 31
0.0
  0
LINE
  8
0
 62
     0
 10
135.97
 20
60.7674
 30
0.0
 11
135.97
 21
59.7683
 31
0.0
  0
LINE
  8
0
 62
     0
 10
135.97
 20
59.7683
 30
0.0
 11
149.969
 21
59.7683
 31
0.0
  0
LINE
  8
0
 62
     0
 10
149.969
 20
59.7683
 30
0.0
 11
149.969
 21
60.7674
 31
0.0
  0
LINE
  8
0
 62
     0
 10
149.969
 20
60.7674
 30
0.0
 11
150.77
 21
60.7674
 31
0.0
  0
LINE
  8
0
 62
     0
 10
150.77
 20
60.7674
 30
0.0
 11
150.77
 21
63.8679
 31
0.0
  0
LINE
  8
0
 62
     0
 10
150.77
 20
63.8679
 30
0.0
 11
149.969
 21
63.8679
 31
0.0
  0
LINE
  8
0
 62
     0
 10
149.969
 20
63.8679
 30
0.0
 11
149.969
 21
69.668
 31
0.0
  0
LINE
  8
0
 62
     0
 10
149.969
 20
69.668
 30
0.0
 11
150.77
 21
69.668
 31
0.0
  0
LINE
  8
0
 62
     0
 10
150.77
 20
69.668
 30
0.0
 11
150.77
 21
72.7675
 31
0.0
  0
LINE
  8
0
 62
     0
 10
150.77
 20
72.7675
 30
0.0
 11
149.969
 21
72.7675
 31
0.0
  0
LINE
  8
0
 62
     0
 10
149.969
 20
72.7675
 30
0.0
 11
149.969
 21
73.7676
 31
0.0
  0
LINE
  8
0
 62
     0
 10
149.969
 20
73.7676
 30
0.0
 11
135.97
 21
73.7676
 31
0.0
  0
LINE
  8
0
 62
     0
 10
155.02
 20
73.7676
 30
0.0
 11
155.02
 21
72.7675
 31
0.0
  0
LINE
  8
0
 62
     0
 10
155.02
 20
72.7675
 30
0.0
 11
154.22
 21
72.7675
 31
0.0
  0
LINE
  8
0
 62
     0
 10
154.22
 20
72.7675
 30
0.0
 11
154.22
 21
69.668
 31
0.0
  0
LINE
  8
0
 62
     0
 10
154.22
 20
69.668
 30
0.0
 11
155.02
 21
69.668
 31
0.0
  0
LINE
  8
0
 62
     0
 10
155.02
 20
69.668
 30
0.0
 11
155.02
 21
63.8679
 31
0.0
  0
LINE
  8
0
 62
     0
 10
155.02
 20
63.8679
 30
0.0
 11
154.22
 21
63.8679
 31
0.0
  0
LINE
  8
0
 62
     0
 10
154.22
 20
63.8679
 30
0.0
 11
154.22
 21
60.7674
 31
0.0
  0
LINE
  8
0
 62
     0
 10
154.22
 20
60.7674
 30
0.0
 11
155.02
 21
60.7674
 31
0.0
  0
LINE
  8
0
 62
     0
 10
155.02
 20
60.7674
 30
0.0
 11
155.02
 21
59.7683
 31
0.0
  0
LINE
  8
0
 62
     0
 10
155.02
 20
59.7683
 30
0.0
 11
169.019
 21
59.7683
 31
0.0
  0
LINE
  8
0
 62
     0
 10
169.019
 20
59.7683
 30
0.0
 11
169.019
 21
60.7674
 31
0.0
  0
LINE
  8
0
 62
     0
 10
169.019
 20
60.7674
 30
0.0
 11
169.82
 21
60.7674
 31
0.0
  0
LINE
  8
0
 62
     0
 10
169.82
 20
60.7674
 30
0.0
 11
169.82
 21
63.8679
 31
0.0
  0
LINE
  8
0
 62
     0
 10
169.82
 20
63.8679
 30
0.0
 11
169.019
 21
63.8679
 31
0.0
  0
LINE
  8
0
 62
     0
 10
169.019
 20
63.8679
 30
0.0
 11
169.019
 21
69.668
 31
0.0
  0
LINE
  8
0
 62
     0
 10
169.019
 20
69.668
 30
0.0
 11
169.82
 21
69.668
 31
0.0
  0
LINE
  8
0
 62
     0
 10
169.82
 20
69.668
 30
0.0
 11
169.82
 21
72.7675
 31
0.0
  0
LINE
  8
0
 62
     0
 10
169.82
 20
72.7675
 30
0.0
 11
169.019
 21
72.7675
 31
0.0
  0
LINE
  8
0
 62
     0
 10
169.019
 20
72.7675
 30
0.0
 11
169.019
 21
73.7676
 31
0.0
  0
LINE
  8
0
 62
     0
 10
169.019
 20
73.7676
 30
0.0
 11
155.02
 21
73.7676
 31
0.0
  0
LINE
  8
0
 62
     0
 10
174.07
 20
73.7676
 30
0.0
 11
174.07
 21
72.7675
 31
0.0
  0
LINE
  8
0
 62
     0
 10
174.07
 20
72.7675
 30
0.0
 11
173.27
 21
72.7675
 31
0.0
  0
LINE
  8
0
 62
     0
 10
173.27
 20
72.7675
 30
0.0
 11
173.27
 21
69.668
 31
0.0
  0
LINE
  8
0
 62
     0
 10
173.27
 20
69.668
 30
0.0
 11
174.07
 21
69.668
 31
0.0
  0
LINE
  8
0
 62
     0
 10
174.07
 20
69.668
 30
0.0
 11
174.07
 21
63.8679
 31
0.0
  0
LINE
  8
0
 62
     0
 10
174.07
 20
63.8679
 30
0.0
 11
173.27
 21
63.8679
 31
0.0
  0
LINE
  8
0
 62
     0
 10
173.27
 20
63.8679
 30
0.0
 11
173.27
 21
60.7674
 31
0.0
  0
LINE
  8
0
 62
     0
 10
173.27
 20
60.7674
 30
0.0
 11
174.07
 21
60.7674
 31
0.0
  0
LINE
  8
0
 62
     0
 10
174.07
 20
60.7674
 30
0.0
 11
174.07
 21
59.7683
 31
0.0
  0
LINE
  8
0
 62
     0
 10
174.07
 20
59.7683
 30
0.0
 11
188.069
 21
59.7683
 31
0.0
  0
LINE
  8
0
 62
     0
 10
188.069
 20
59.7683
 30
0.0
 11
188.069
 21
60.7674
 31
0.0
  0
LINE
  8
0
 62
     0
 10
188.069
 20
60.7674
 30
0.0
 11
188.87
 21
60.7674
 31
0.0
  0
LINE
  8
0
 62
     0
 10
188.87
 20
60.7674
 30
0.0
 11
188.87
 21
63.8679
 31
0.0
  0
LINE
  8
0
 62
     0
 10
188.87
 20
63.8679
 30
0.0
 11
188.069
 21
63.8679
 31
0.0
  0
LINE
  8
0
 62
     0
 10
188.069
 20
63.8679
 30
0.0
 11
188.069
 21
69.668
 31
0.0
  0
LINE
  8
0
 62
     0
 10
188.069
 20
69.668
 30
0.0
 11
188.87
 21
69.668
 31
0.0
  0
LINE
  8
0
 62
     0
 10
188.87
 20
69.668
 30
0.0
 11
188.87
 21
72.7675
 31
0.0
  0
LINE
  8
0
 62
     0
 10
188.87
 20
72.7675
 30
0.0
 11
188.069
 21
72.7675
 31
0.0
  0
LINE
  8
0
 62
     0
 10
188.069
 20
72.7675
 30
0.0
 11
188.069
 21
73.7676
 31
0.0
  0
LINE
  8
0
 62
     0
 10
188.069
 20
73.7676
 30
0.0
 11
174.07
 21
73.7676
 31
0.0
  0
LINE
  8
0
 62
     0
 10
193.12
 20
73.7676
 30
0.0
 11
193.12
 21
72.7675
 31
0.0
  0
LINE
  8
0
 62
     0
 10
193.12
 20
72.7675
 30
0.0
 11
192.32
 21
72.7675
 31
0.0
  0
LINE
  8
0
 62
     0
 10
192.32
 20
72.7675
 30
0.0
 11
192.32
 21
69.668
 31
0.0
  0
LINE
  8
0
 62
     0
 10
192.32
 20
69.668
 30
0.0
 11
193.12
 21
69.668
 31
0.0
  0
LINE
  8
0
 62
     0
 10
193.12
 20
69.668
 30
0.0
 11
193.12
 21
63.8679
 31
0.0
  0
LINE
  8
0
 62
     0
 10
193.12
 20
63.8679
 30
0.0
 11
192.32
 21
63.8679
 31
0.0
  0
LINE
  8
0
 62
     0
 10
192.32
 20
63.8679
 30
0.0
 11
192.32
 21
60.7674
 31
0.0
  0
LINE
  8
0
 62
     0
 10
192.32
 20
60.7674
 30
0.0
 11
193.12
 21
60.7674
 31
0.0
  0
LINE
  8
0
 62
     0
 10
193.12
 20
60.7674
 30
0.0
 11
193.12
 21
59.7683
 31
0.0
  0
LINE
  8
0
 62
     0
 10
193.12
 20
59.7683
 30
0.0
 11
207.119
 21
59.7683
 31
0.0
  0
LINE
  8
0
 62
     0
 10
207.119
 20
59.7683
 30
0.0
 11
207.119
 21
60.7674
 31
0.0
  0
LINE
  8
0
 62
     0
 10
207.119
 20
60.7674
 30
0.0
 11
207.92
 21
60.7674
 31
0.0
  0
LINE
  8
0
 62
     0
 10
207.92
 20
60.7674
 30
0.0
 11
207.92
 21
63.8679
 31
0.0
  0
LINE
  8
0
 62
     0
 10
207.92
 20
63.8679
 30
0.0
 11
207.119
 21
63.8679
 31
0.0
  0
LINE
  8
0
 62
     0
 10
207.119
 20
63.8679
 30
0.0
 11
207.119
 21
69.668
 31
0.0
  0
LINE
  8
0
 62
     0
 10
207.119
 20
69.668
 30
0.0
 11
207.92
 21
69.668
 31
0.0
  0
LINE
  8
0
 62
     0
 10
207.92
 20
69.668
 30
0.0
 11
207.92
 21
72.7675
 31
0.0
  0
LINE
  8
0
 62
     0
 10
207.92
 20
72.7675
 30
0.0
 11
207.119
 21
72.7675
 31
0.0
  0
LINE
  8
0
 62
     0
 10
207.119
 20
72.7675
 30
0.0
 11
207.119
 21
73.7676
 31
0.0
  0
LINE
  8
0
 62
     0
 10
207.119
 20
73.7676
 30
0.0
 11
193.12
 21
73.7676
 31
0.0
  0
LINE
  8
0
 62
     0
 10
212.17
 20
73.7676
 30
0.0
 11
212.17
 21
72.7675
 31
0.0
  0
LINE
  8
0
 62
     0
 10
212.17
 20
72.7675
 30
0.0
 11
211.37
 21
72.7675
 31
0.0
  0
LINE
  8
0
 62
     0
 10
211.37
 20
72.7675
 30
0.0
 11
211.37
 21
69.668
 31
0.0
  0
LINE
  8
0
 62
     0
 10
211.37
 20
69.668
 30
0.0
 11
212.17
 21
69.668
 31
0.0
  0
LINE
  8
0
 62
     0
 10
212.17
 20
69.668
 30
0.0
 11
212.17
 21
63.8679
 31
0.0
  0
LINE
  8
0
 62
     0
 10
212.17
 20
63.8679
 30
0.0
 11
211.37
 21
63.8679
 31
0.0
  0
LINE
  8
0
 62
     0
 10
211.37
 20
63.8679
 30
0.0
 11
211.37
 21
60.7674
 31
0.0
  0
LINE
  8
0
 62
     0
 10
211.37
 20
60.7674
 30
0.0
 11
212.17
 21
60.7674
 31
0.0
  0
LINE
  8
0
 62
     0
 10
212.17
 20
60.7674
 30
0.0
 11
212.17
 21
59.7683
 31
0.0
  0
LINE
  8
0
 62
     0
 10
212.17
 20
59.7683
 30
0.0
 11
226.169
 21
59.7683
 31
0.0
  0
LINE
  8
0
 62
     0
 10
226.169
 20
59.7683
 30
0.0
 11
226.169
 21
60.7674
 31
0.0
  0
LINE
  8
0
 62
     0
 10
226.169
 20
60.7674
 30
0.0
 11
226.97
 21
60.7674
 31
0.0
  0
LINE
  8
0
 62
     0
 10
226.97
 20
60.7674
 30
0.0
 11
226.97
 21
63.8679
 31
0.0
  0
LINE
  8
0
 62
     0
 10
226.97
 20
63.8679
 30
0.0
 11
226.169
 21
63.8679
 31
0.0
  0
LINE
  8
0
 62
     0
 10
226.169
 20
63.8679
 30
0.0
 11
226.169
 21
69.668
 31
0.0
  0
LINE
  8
0
 62
     0
 10
226.169
 20
69.668
 30
0.0
 11
226.97
 21
69.668
 31
0.0
  0
LINE
  8
0
 62
     0
 10
226.97
 20
69.668
 30
0.0
 11
226.97
 21
72.7675
 31
0.0
  0
LINE
  8
0
 62
     0
 10
226.97
 20
72.7675
 30
0.0
 11
226.169
 21
72.7675
 31
0.0
  0
LINE
  8
0
 62
     0
 10
226.169
 20
72.7675
 30
0.0
 11
226.169
 21
73.7676
 31
0.0
  0
LINE
  8
0
 62
     0
 10
226.169
 20
73.7676
 30
0.0
 11
212.17
 21
73.7676
 31
0.0
  0
LINE
  8
0
 62
     0
 10
231.22
 20
73.7676
 30
0.0
 11
231.22
 21
72.7675
 31
0.0
  0
LINE
  8
0
 62
     0
 10
231.22
 20
72.7675
 30
0.0
 11
230.42
 21
72.7675
 31
0.0
  0
LINE
  8
0
 62
     0
 10
230.42
 20
72.7675
 30
0.0
 11
230.42
 21
69.668
 31
0.0
  0
LINE
  8
0
 62
     0
 10
230.42
 20
69.668
 30
0.0
 11
231.22
 21
69.668
 31
0.0
  0
LINE
  8
0
 62
     0
 10
231.22
 20
69.668
 30
0.0
 11
231.22
 21
63.8679
 31
0.0
  0
LINE
  8
0
 62
     0
 10
231.22
 20
63.8679
 30
0.0
 11
230.42
 21
63.8679
 31
0.0
  0
LINE
  8
0
 62
     0
 10
230.42
 20
63.8679
 30
0.0
 11
230.42
 21
60.7674
 31
0.0
  0
LINE
  8
0
 62
     0
 10
230.42
 20
60.7674
 30
0.0
 11
231.22
 21
60.7674
 31
0.0
  0
LINE
  8
0
 62
     0
 10
231.22
 20
60.7674
 30
0.0
 11
231.22
 21
59.7683
 31
0.0
  0
LINE
  8
0
 62
     0
 10
231.22
 20
59.7683
 30
0.0
 11
245.219
 21
59.7683
 31
0.0
  0
LINE
  8
0
 62
     0
 10
245.219
 20
59.7683
 30
0.0
 11
245.219
 21
60.7674
 31
0.0
  0
LINE
  8
0
 62
     0
 10
245.219
 20
60.7674
 30
0.0
 11
246.02
 21
60.7674
 31
0.0
  0
LINE
  8
0
 62
     0
 10
246.02
 20
60.7674
 30
0.0
 11
246.02
 21
63.8679
 31
0.0
  0
LINE
  8
0
 62
     0
 10
246.02
 20
63.8679
 30
0.0
 11
245.219
 21
63.8679
 31
0.0
  0
LINE
  8
0
 62
     0
 10
245.219
 20
63.8679
 30
0.0
 11
245.219
 21
69.668
 31
0.0
  0
LINE
  8
0
 62
     0
 10
245.219
 20
69.668
 30
0.0
 11
246.02
 21
69.668
 31
0.0
  0
LINE
  8
0
 62
     0
 10
246.02
 20
69.668
 30
0.0
 11
246.02
 21
72.7675
 31
0.0
  0
LINE
  8
0
 62
     0
 10
246.02
 20
72.7675
 30
0.0
 11
245.219
 21
72.7675
 31
0.0
  0
LINE
  8
0
 62
     0
 10
245.219
 20
72.7675
 30
0.0
 11
245.219
 21
73.7676
 31
0.0
  0
LINE
  8
0
 62
     0
 10
245.219
 20
73.7676
 30
0.0
 11
231.22
 21
73.7676
 31
0.0
  0
LINE
  8
0
 62
     0
 10
250.27
 20
73.7676
 30
0.0
 11
250.27
 21
72.7675
 31
0.0
  0
LINE
  8
0
 62
     0
 10
250.27
 20
72.7675
 30
0.0
 11
249.47
 21
72.7675
 31
0.0
  0
LINE
  8
0
 62
     0
 10
249.47
 20
72.7675
 30
0.0
 11
249.47
 21
69.668
 31
0.0
  0
LINE
  8
0
 62
     0
 10
249.47
 20
69.668
 30
0.0
 11
250.27
 21
69.668
 31
0.0
  0
LINE
  8
0
 62
     0
 10
250.27
 20
69.668
 30
0.0
 11
250.27
 21
63.8679
 31
0.0
  0
LINE
  8
0
 62
     0
 10
250.27
 20
63.8679
 30
0.0
 11
249.47
 21
63.8679
 31
0.0
  0
LINE
  8
0
 62
     0
 10
249.47
 20
63.8679
 30
0.0
 11
249.47
 21
60.7674
 31
0.0
  0
LINE
  8
0
 62
     0
 10
249.47
 20
60.7674
 30
0.0
 11
250.27
 21
60.7674
 31
0.0
  0
LINE
  8
0
 62
     0
 10
250.27
 20
60.7674
 30
0.0
 11
250.27
 21
59.7683
 31
0.0
  0
LINE
  8
0
 62
     0
 10
250.27
 20
59.7683
 30
0.0
 11
264.269
 21
59.7683
 31
0.0
  0
LINE
  8
0
 62
     0
 10
264.269
 20
59.7683
 30
0.0
 11
264.269
 21
60.7674
 31
0.0
  0
LINE
  8
0
 62
     0
 10
264.269
 20
60.7674
 30
0.0
 11
265.07
 21
60.7674
 31
0.0
  0
LINE
  8
0
 62
     0
 10
265.07
 20
60.7674
 30
0.0
 11
265.07
 21
63.8679
 31
0.0
  0
LINE
  8
0
 62
     0
 10
265.07
 20
63.8679
 30
0.0
 11
264.269
 21
63.8679
 31
0.0
  0
LINE
  8
0
 62
     0
 10
264.269
 20
63.8679
 30
0.0
 11
264.269
 21
69.668
 31
0.0
  0
LINE
  8
0
 62
     0
 10
264.269
 20
69.668
 30
0.0
 11
265.07
 21
69.668
 31
0.0
  0
LINE
  8
0
 62
     0
 10
265.07
 20
69.668
 30
0.0
 11
265.07
 21
72.7675
 31
0.0
  0
LINE
  8
0
 62
     0
 10
265.07
 20
72.7675
 30
0.0
 11
264.269
 21
72.7675
 31
0.0
  0
LINE
  8
0
 62
     0
 10
264.269
 20
72.7675
 30
0.0
 11
264.269
 21
73.7676
 31
0.0
  0
LINE
  8
0
 62
     0
 10
264.269
 20
73.7676
 30
0.0
 11
250.27
 21
73.7676
 31
0.0
  0
LINE
  8
0
 62
     0
 10
12.1447
 20
92.8176
 30
0.0
 11
12.1447
 21
91.8175
 31
0.0
  0
LINE
  8
0
 62
     0
 10
12.1447
 20
91.8175
 30
0.0
 11
11.3454
 21
91.8175
 31
0.0
  0
LINE
  8
0
 62
     0
 10
11.3454
 20
91.8175
 30
0.0
 11
11.3454
 21
88.718
 31
0.0
  0
LINE
  8
0
 62
     0
 10
11.3454
 20
88.718
 30
0.0
 11
12.1447
 21
88.718
 31
0.0
  0
LINE
  8
0
 62
     0
 10
12.1447
 20
88.718
 30
0.0
 11
12.1447
 21
82.9179
 31
0.0
  0
LINE
  8
0
 62
     0
 10
12.1447
 20
82.9179
 30
0.0
 11
11.3454
 21
82.9179
 31
0.0
  0
LINE
  8
0
 62
     0
 10
11.3454
 20
82.9179
 30
0.0
 11
11.3454
 21
79.8174
 31
0.0
  0
LINE
  8
0
 62
     0
 10
11.3454
 20
79.8174
 30
0.0
 11
12.1447
 21
79.8174
 31
0.0
  0
LINE
  8
0
 62
     0
 10
12.1447
 20
79.8174
 30
0.0
 11
12.1447
 21
78.8183
 31
0.0
  0
LINE
  8
0
 62
     0
 10
12.1447
 20
78.8183
 30
0.0
 11
26.1441
 21
78.8183
 31
0.0
  0
LINE
  8
0
 62
     0
 10
26.1441
 20
78.8183
 30
0.0
 11
26.1441
 21
79.8174
 31
0.0
  0
LINE
  8
0
 62
     0
 10
26.1441
 20
79.8174
 30
0.0
 11
26.9448
 21
79.8174
 31
0.0
  0
LINE
  8
0
 62
     0
 10
26.9448
 20
79.8174
 30
0.0
 11
26.9448
 21
82.9179
 31
0.0
  0
LINE
  8
0
 62
     0
 10
26.9448
 20
82.9179
 30
0.0
 11
26.1441
 21
82.9179
 31
0.0
  0
LINE
  8
0
 62
     0
 10
26.1441
 20
82.9179
 30
0.0
 11
26.1441
 21
88.718
 31
0.0
  0
LINE
  8
0
 62
     0
 10
26.1441
 20
88.718
 30
0.0
 11
26.9448
 21
88.718
 31
0.0
  0
LINE
  8
0
 62
     0
 10
26.9448
 20
88.718
 30
0.0
 11
26.9448
 21
91.8175
 31
0.0
  0
LINE
  8
0
 62
     0
 10
26.9448
 20
91.8175
 30
0.0
 11
26.1441
 21
91.8175
 31
0.0
  0
LINE
  8
0
 62
     0
 10
26.1441
 20
91.8175
 30
0.0
 11
26.1441
 21
92.8176
 31
0.0
  0
LINE
  8
0
 62
     0
 10
26.1441
 20
92.8176
 30
0.0
 11
12.1447
 21
92.8176
 31
0.0
  0
LINE
  8
0
 62
     0
 10
31.1947
 20
92.8176
 30
0.0
 11
31.1947
 21
91.8175
 31
0.0
  0
LINE
  8
0
 62
     0
 10
31.1947
 20
91.8175
 30
0.0
 11
30.3954
 21
91.8175
 31
0.0
  0
LINE
  8
0
 62
     0
 10
30.3954
 20
91.8175
 30
0.0
 11
30.3954
 21
88.718
 31
0.0
  0
LINE
  8
0
 62
     0
 10
30.3954
 20
88.718
 30
0.0
 11
31.1947
 21
88.718
 31
0.0
  0
LINE
  8
0
 62
     0
 10
31.1947
 20
88.718
 30
0.0
 11
31.1947
 21
82.9179
 31
0.0
  0
LINE
  8
0
 62
     0
 10
31.1947
 20
82.9179
 30
0.0
 11
30.3954
 21
82.9179
 31
0.0
  0
LINE
  8
0
 62
     0
 10
30.3954
 20
82.9179
 30
0.0
 11
30.3954
 21
79.8174
 31
0.0
  0
LINE
  8
0
 62
     0
 10
30.3954
 20
79.8174
 30
0.0
 11
31.1947
 21
79.8174
 31
0.0
  0
LINE
  8
0
 62
     0
 10
31.1947
 20
79.8174
 30
0.0
 11
31.1947
 21
78.8183
 31
0.0
  0
LINE
  8
0
 62
     0
 10
31.1947
 20
78.8183
 30
0.0
 11
45.194
 21
78.8183
 31
0.0
  0
LINE
  8
0
 62
     0
 10
45.194
 20
78.8183
 30
0.0
 11
45.194
 21
79.8174
 31
0.0
  0
LINE
  8
0
 62
     0
 10
45.194
 20
79.8174
 30
0.0
 11
45.9948
 21
79.8174
 31
0.0
  0
LINE
  8
0
 62
     0
 10
45.9948
 20
79.8174
 30
0.0
 11
45.9948
 21
82.9179
 31
0.0
  0
LINE
  8
0
 62
     0
 10
45.9948
 20
82.9179
 30
0.0
 11
45.194
 21
82.9179
 31
0.0
  0
LINE
  8
0
 62
     0
 10
45.194
 20
82.9179
 30
0.0
 11
45.194
 21
88.718
 31
0.0
  0
LINE
  8
0
 62
     0
 10
45.194
 20
88.718
 30
0.0
 11
45.9948
 21
88.718
 31
0.0
  0
LINE
  8
0
 62
     0
 10
45.9948
 20
88.718
 30
0.0
 11
45.9948
 21
91.8175
 31
0.0
  0
LINE
  8
0
 62
     0
 10
45.9948
 20
91.8175
 30
0.0
 11
45.194
 21
91.8175
 31
0.0
  0
LINE
  8
0
 62
     0
 10
45.194
 20
91.8175
 30
0.0
 11
45.194
 21
92.8176
 31
0.0
  0
LINE
  8
0
 62
     0
 10
45.194
 20
92.8176
 30
0.0
 11
31.1947
 21
92.8176
 31
0.0
  0
LINE
  8
0
 62
     0
 10
50.2447
 20
92.8176
 30
0.0
 11
50.2447
 21
91.8175
 31
0.0
  0
LINE
  8
0
 62
     0
 10
50.2447
 20
91.8175
 30
0.0
 11
49.4453
 21
91.8175
 31
0.0
  0
LINE
  8
0
 62
     0
 10
49.4453
 20
91.8175
 30
0.0
 11
49.4453
 21
88.718
 31
0.0
  0
LINE
  8
0
 62
     0
 10
49.4453
 20
88.718
 30
0.0
 11
50.2447
 21
88.718
 31
0.0
  0
LINE
  8
0
 62
     0
 10
50.2447
 20
88.718
 30
0.0
 11
50.2447
 21
82.9179
 31
0.0
  0
LINE
  8
0
 62
     0
 10
50.2447
 20
82.9179
 30
0.0
 11
49.4453
 21
82.9179
 31
0.0
  0
LINE
  8
0
 62
     0
 10
49.4453
 20
82.9179
 30
0.0
 11
49.4453
 21
79.8174
 31
0.0
  0
LINE
  8
0
 62
     0
 10
49.4453
 20
79.8174
 30
0.0
 11
50.2447
 21
79.8174
 31
0.0
  0
LINE
  8
0
 62
     0
 10
50.2447
 20
79.8174
 30
0.0
 11
50.2447
 21
78.8183
 31
0.0
  0
LINE
  8
0
 62
     0
 10
50.2447
 20
78.8183
 30
0.0
 11
64.244
 21
78.8183
 31
0.0
  0
LINE
  8
0
 62
     0
 10
64.244
 20
78.8183
 30
0.0
 11
64.244
 21
79.8174
 31
0.0
  0
LINE
  8
0
 62
     0
 10
64.244
 20
79.8174
 30
0.0
 11
65.0448
 21
79.8174
 31
0.0
  0
LINE
  8
0
 62
     0
 10
65.0448
 20
79.8174
 30
0.0
 11
65.0448
 21
82.9179
 31
0.0
  0
LINE
  8
0
 62
     0
 10
65.0448
 20
82.9179
 30
0.0
 11
64.244
 21
82.9179
 31
0.0
  0
LINE
  8
0
 62
     0
 10
64.244
 20
82.9179
 30
0.0
 11
64.244
 21
88.718
 31
0.0
  0
LINE
  8
0
 62
     0
 10
64.244
 20
88.718
 30
0.0
 11
65.0448
 21
88.718
 31
0.0
  0
LINE
  8
0
 62
     0
 10
65.0448
 20
88.718
 30
0.0
 11
65.0448
 21
91.8175
 31
0.0
  0
LINE
  8
0
 62
     0
 10
65.0448
 20
91.8175
 30
0.0
 11
64.244
 21
91.8175
 31
0.0
  0
LINE
  8
0
 62
     0
 10
64.244
 20
91.8175
 30
0.0
 11
64.244
 21
92.8176
 31
0.0
  0
LINE
  8
0
 62
     0
 10
64.244
 20
92.8176
 30
0.0
 11
50.2447
 21
92.8176
 31
0.0
  0
LINE
  8
0
 62
     0
 10
69.2947
 20
92.8176
 30
0.0
 11
69.2947
 21
91.8175
 31
0.0
  0
LINE
  8
0
 62
     0
 10
69.2947
 20
91.8175
 30
0.0
 11
68.4953
 21
91.8175
 31
0.0
  0
LINE
  8
0
 62
     0
 10
68.4953
 20
91.8175
 30
0.0
 11
68.4953
 21
88.718
 31
0.0
  0
LINE
  8
0
 62
     0
 10
68.4953
 20
88.718
 30
0.0
 11
69.2947
 21
88.718
 31
0.0
  0
LINE
  8
0
 62
     0
 10
69.2947
 20
88.718
 30
0.0
 11
69.2947
 21
82.9179
 31
0.0
  0
LINE
  8
0
 62
     0
 10
69.2947
 20
82.9179
 30
0.0
 11
68.4953
 21
82.9179
 31
0.0
  0
LINE
  8
0
 62
     0
 10
68.4953
 20
82.9179
 30
0.0
 11
68.4953
 21
79.8174
 31
0.0
  0
LINE
  8
0
 62
     0
 10
68.4953
 20
79.8174
 30
0.0
 11
69.2947
 21
79.8174
 31
0.0
  0
LINE
  8
0
 62
     0
 10
69.2947
 20
79.8174
 30
0.0
 11
69.2947
 21
78.8183
 31
0.0
  0
LINE
  8
0
 62
     0
 10
69.2947
 20
78.8183
 30
0.0
 11
83.294
 21
78.8183
 31
0.0
  0
LINE
  8
0
 62
     0
 10
83.294
 20
78.8183
 30
0.0
 11
83.294
 21
79.8174
 31
0.0
  0
LINE
  8
0
 62
     0
 10
83.294
 20
79.8174
 30
0.0
 11
84.0948
 21
79.8174
 31
0.0
  0
LINE
  8
0
 62
     0
 10
84.0948
 20
79.8174
 30
0.0
 11
84.0948
 21
82.9179
 31
0.0
  0
LINE
  8
0
 62
     0
 10
84.0948
 20
82.9179
 30
0.0
 11
83.294
 21
82.9179
 31
0.0
  0
LINE
  8
0
 62
     0
 10
83.294
 20
82.9179
 30
0.0
 11
83.294
 21
88.718
 31
0.0
  0
LINE
  8
0
 62
     0
 10
83.294
 20
88.718
 30
0.0
 11
84.0948
 21
88.718
 31
0.0
  0
LINE
  8
0
 62
     0
 10
84.0948
 20
88.718
 30
0.0
 11
84.0948
 21
91.8175
 31
0.0
  0
LINE
  8
0
 62
     0
 10
84.0948
 20
91.8175
 30
0.0
 11
83.294
 21
91.8175
 31
0.0
  0
LINE
  8
0
 62
     0
 10
83.294
 20
91.8175
 30
0.0
 11
83.294
 21
92.8176
 31
0.0
  0
LINE
  8
0
 62
     0
 10
83.294
 20
92.8176
 30
0.0
 11
69.2947
 21
92.8176
 31
0.0
  0
LINE
  8
0
 62
     0
 10
88.3447
 20
92.8176
 30
0.0
 11
88.3447
 21
91.8175
 31
0.0
  0
LINE
  8
0
 62
     0
 10
88.3447
 20
91.8175
 30
0.0
 11
87.5453
 21
91.8175
 31
0.0
  0
LINE
  8
0
 62
     0
 10
87.5453
 20
91.8175
 30
0.0
 11
87.5453
 21
88.718
 31
0.0
  0
LINE
  8
0
 62
     0
 10
87.5453
 20
88.718
 30
0.0
 11
88.3447
 21
88.718
 31
0.0
  0
LINE
  8
0
 62
     0
 10
88.3447
 20
88.718
 30
0.0
 11
88.3447
 21
82.9179
 31
0.0
  0
LINE
  8
0
 62
     0
 10
88.3447
 20
82.9179
 30
0.0
 11
87.5453
 21
82.9179
 31
0.0
  0
LINE
  8
0
 62
     0
 10
87.5453
 20
82.9179
 30
0.0
 11
87.5453
 21
79.8174
 31
0.0
  0
LINE
  8
0
 62
     0
 10
87.5453
 20
79.8174
 30
0.0
 11
88.3447
 21
79.8174
 31
0.0
  0
LINE
  8
0
 62
     0
 10
88.3447
 20
79.8174
 30
0.0
 11
88.3447
 21
78.8183
 31
0.0
  0
LINE
  8
0
 62
     0
 10
88.3447
 20
78.8183
 30
0.0
 11
102.344
 21
78.8183
 31
0.0
  0
LINE
  8
0
 62
     0
 10
102.344
 20
78.8183
 30
0.0
 11
102.344
 21
79.8174
 31
0.0
  0
LINE
  8
0
 62
     0
 10
102.344
 20
79.8174
 30
0.0
 11
103.145
 21
79.8174
 31
0.0
  0
LINE
  8
0
 62
     0
 10
103.145
 20
79.8174
 30
0.0
 11
103.145
 21
82.9179
 31
0.0
  0
LINE
  8
0
 62
     0
 10
103.145
 20
82.9179
 30
0.0
 11
102.344
 21
82.9179
 31
0.0
  0
LINE
  8
0
 62
     0
 10
102.344
 20
82.9179
 30
0.0
 11
102.344
 21
88.718
 31
0.0
  0
LINE
  8
0
 62
     0
 10
102.344
 20
88.718
 30
0.0
 11
103.145
 21
88.718
 31
0.0
  0
LINE
  8
0
 62
     0
 10
103.145
 20
88.718
 30
0.0
 11
103.145
 21
91.8175
 31
0.0
  0
LINE
  8
0
 62
     0
 10
103.145
 20
91.8175
 30
0.0
 11
102.344
 21
91.8175
 31
0.0
  0
LINE
  8
0
 62
     0
 10
102.344
 20
91.8175
 30
0.0
 11
102.344
 21
92.8176
 31
0.0
  0
LINE
  8
0
 62
     0
 10
102.344
 20
92.8176
 30
0.0
 11
88.3447
 21
92.8176
 31
0.0
  0
LINE
  8
0
 62
     0
 10
107.395
 20
92.8176
 30
0.0
 11
107.395
 21
91.8175
 31
0.0
  0
LINE
  8
0
 62
     0
 10
107.395
 20
91.8175
 30
0.0
 11
106.595
 21
91.8175
 31
0.0
  0
LINE
  8
0
 62
     0
 10
106.595
 20
91.8175
 30
0.0
 11
106.595
 21
88.718
 31
0.0
  0
LINE
  8
0
 62
     0
 10
106.595
 20
88.718
 30
0.0
 11
107.395
 21
88.718
 31
0.0
  0
LINE
  8
0
 62
     0
 10
107.395
 20
88.718
 30
0.0
 11
107.395
 21
82.9179
 31
0.0
  0
LINE
  8
0
 62
     0
 10
107.395
 20
82.9179
 30
0.0
 11
106.595
 21
82.9179
 31
0.0
  0
LINE
  8
0
 62
     0
 10
106.595
 20
82.9179
 30
0.0
 11
106.595
 21
79.8174
 31
0.0
  0
LINE
  8
0
 62
     0
 10
106.595
 20
79.8174
 30
0.0
 11
107.395
 21
79.8174
 31
0.0
  0
LINE
  8
0
 62
     0
 10
107.395
 20
79.8174
 30
0.0
 11
107.395
 21
78.8183
 31
0.0
  0
LINE
  8
0
 62
     0
 10
107.395
 20
78.8183
 30
0.0
 11
121.394
 21
78.8183
 31
0.0
  0
LINE
  8
0
 62
     0
 10
121.394
 20
78.8183
 30
0.0
 11
121.394
 21
79.8174
 31
0.0
  0
LINE
  8
0
 62
     0
 10
121.394
 20
79.8174
 30
0.0
 11
122.195
 21
79.8174
 31
0.0
  0
LINE
  8
0
 62
     0
 10
122.195
 20
79.8174
 30
0.0
 11
122.195
 21
82.9179
 31
0.0
  0
LINE
  8
0
 62
     0
 10
122.195
 20
82.9179
 30
0.0
 11
121.394
 21
82.9179
 31
0.0
  0
LINE
  8
0
 62
     0
 10
121.394
 20
82.9179
 30
0.0
 11
121.394
 21
88.718
 31
0.0
  0
LINE
  8
0
 62
     0
 10
121.394
 20
88.718
 30
0.0
 11
122.195
 21
88.718
 31
0.0
  0
LINE
  8
0
 62
     0
 10
122.195
 20
88.718
 30
0.0
 11
122.195
 21
91.8175
 31
0.0
  0
LINE
  8
0
 62
     0
 10
122.195
 20
91.8175
 30
0.0
 11
121.394
 21
91.8175
 31
0.0
  0
LINE
  8
0
 62
     0
 10
121.394
 20
91.8175
 30
0.0
 11
121.394
 21
92.8176
 31
0.0
  0
LINE
  8
0
 62
     0
 10
121.394
 20
92.8176
 30
0.0
 11
107.395
 21
92.8176
 31
0.0
  0
LINE
  8
0
 62
     0
 10
126.445
 20
92.8176
 30
0.0
 11
126.445
 21
91.8175
 31
0.0
  0
LINE
  8
0
 62
     0
 10
126.445
 20
91.8175
 30
0.0
 11
125.644
 21
91.8175
 31
0.0
  0
LINE
  8
0
 62
     0
 10
125.644
 20
91.8175
 30
0.0
 11
125.644
 21
88.718
 31
0.0
  0
LINE
  8
0
 62
     0
 10
125.644
 20
88.718
 30
0.0
 11
126.445
 21
88.718
 31
0.0
  0
LINE
  8
0
 62
     0
 10
126.445
 20
88.718
 30
0.0
 11
126.445
 21
82.9179
 31
0.0
  0
LINE
  8
0
 62
     0
 10
126.445
 20
82.9179
 30
0.0
 11
125.644
 21
82.9179
 31
0.0
  0
LINE
  8
0
 62
     0
 10
125.644
 20
82.9179
 30
0.0
 11
125.644
 21
79.8174
 31
0.0
  0
LINE
  8
0
 62
     0
 10
125.644
 20
79.8174
 30
0.0
 11
126.445
 21
79.8174
 31
0.0
  0
LINE
  8
0
 62
     0
 10
126.445
 20
79.8174
 30
0.0
 11
126.445
 21
78.8183
 31
0.0
  0
LINE
  8
0
 62
     0
 10
126.445
 20
78.8183
 30
0.0
 11
140.444
 21
78.8183
 31
0.0
  0
LINE
  8
0
 62
     0
 10
140.444
 20
78.8183
 30
0.0
 11
140.444
 21
79.8174
 31
0.0
  0
LINE
  8
0
 62
     0
 10
140.444
 20
79.8174
 30
0.0
 11
141.245
 21
79.8174
 31
0.0
  0
LINE
  8
0
 62
     0
 10
141.245
 20
79.8174
 30
0.0
 11
141.245
 21
82.9179
 31
0.0
  0
LINE
  8
0
 62
     0
 10
141.245
 20
82.9179
 30
0.0
 11
140.444
 21
82.9179
 31
0.0
  0
LINE
  8
0
 62
     0
 10
140.444
 20
82.9179
 30
0.0
 11
140.444
 21
88.718
 31
0.0
  0
LINE
  8
0
 62
     0
 10
140.444
 20
88.718
 30
0.0
 11
141.245
 21
88.718
 31
0.0
  0
LINE
  8
0
 62
     0
 10
141.245
 20
88.718
 30
0.0
 11
141.245
 21
91.8175
 31
0.0
  0
LINE
  8
0
 62
     0
 10
141.245
 20
91.8175
 30
0.0
 11
140.444
 21
91.8175
 31
0.0
  0
LINE
  8
0
 62
     0
 10
140.444
 20
91.8175
 30
0.0
 11
140.444
 21
92.8176
 31
0.0
  0
LINE
  8
0
 62
     0
 10
140.444
 20
92.8176
 30
0.0
 11
126.445
 21
92.8176
 31
0.0
  0
LINE
  8
0
 62
     0
 10
145.495
 20
92.8176
 30
0.0
 11
145.495
 21
91.8175
 31
0.0
  0
LINE
  8
0
 62
     0
 10
145.495
 20
91.8175
 30
0.0
 11
144.695
 21
91.8175
 31
0.0
  0
LINE
  8
0
 62
     0
 10
144.695
 20
91.8175
 30
0.0
 11
144.695
 21
88.718
 31
0.0
  0
LINE
  8
0
 62
     0
 10
144.695
 20
88.718
 30
0.0
 11
145.495
 21
88.718
 31
0.0
  0
LINE
  8
0
 62
     0
 10
145.495
 20
88.718
 30
0.0
 11
145.495
 21
82.9179
 31
0.0
  0
LINE
  8
0
 62
     0
 10
145.495
 20
82.9179
 30
0.0
 11
144.695
 21
82.9179
 31
0.0
  0
LINE
  8
0
 62
     0
 10
144.695
 20
82.9179
 30
0.0
 11
144.695
 21
79.8174
 31
0.0
  0
LINE
  8
0
 62
     0
 10
144.695
 20
79.8174
 30
0.0
 11
145.495
 21
79.8174
 31
0.0
  0
LINE
  8
0
 62
     0
 10
145.495
 20
79.8174
 30
0.0
 11
145.495
 21
78.8183
 31
0.0
  0
LINE
  8
0
 62
     0
 10
145.495
 20
78.8183
 30
0.0
 11
159.494
 21
78.8183
 31
0.0
  0
LINE
  8
0
 62
     0
 10
159.494
 20
78.8183
 30
0.0
 11
159.494
 21
79.8174
 31
0.0
  0
LINE
  8
0
 62
     0
 10
159.494
 20
79.8174
 30
0.0
 11
160.295
 21
79.8174
 31
0.0
  0
LINE
  8
0
 62
     0
 10
160.295
 20
79.8174
 30
0.0
 11
160.295
 21
82.9179
 31
0.0
  0
LINE
  8
0
 62
     0
 10
160.295
 20
82.9179
 30
0.0
 11
159.494
 21
82.9179
 31
0.0
  0
LINE
  8
0
 62
     0
 10
159.494
 20
82.9179
 30
0.0
 11
159.494
 21
88.718
 31
0.0
  0
LINE
  8
0
 62
     0
 10
159.494
 20
88.718
 30
0.0
 11
160.295
 21
88.718
 31
0.0
  0
LINE
  8
0
 62
     0
 10
160.295
 20
88.718
 30
0.0
 11
160.295
 21
91.8175
 31
0.0
  0
LINE
  8
0
 62
     0
 10
160.295
 20
91.8175
 30
0.0
 11
159.494
 21
91.8175
 31
0.0
  0
LINE
  8
0
 62
     0
 10
159.494
 20
91.8175
 30
0.0
 11
159.494
 21
92.8176
 31
0.0
  0
LINE
  8
0
 62
     0
 10
159.494
 20
92.8176
 30
0.0
 11
145.495
 21
92.8176
 31
0.0
  0
LINE
  8
0
 62
     0
 10
164.545
 20
92.8176
 30
0.0
 11
164.545
 21
91.8175
 31
0.0
  0
LINE
  8
0
 62
     0
 10
164.545
 20
91.8175
 30
0.0
 11
163.745
 21
91.8175
 31
0.0
  0
LINE
  8
0
 62
     0
 10
163.745
 20
91.8175
 30
0.0
 11
163.745
 21
88.718
 31
0.0
  0
LINE
  8
0
 62
     0
 10
163.745
 20
88.718
 30
0.0
 11
164.545
 21
88.718
 31
0.0
  0
LINE
  8
0
 62
     0
 10
164.545
 20
88.718
 30
0.0
 11
164.545
 21
82.9179
 31
0.0
  0
LINE
  8
0
 62
     0
 10
164.545
 20
82.9179
 30
0.0
 11
163.745
 21
82.9179
 31
0.0
  0
LINE
  8
0
 62
     0
 10
163.745
 20
82.9179
 30
0.0
 11
163.745
 21
79.8174
 31
0.0
  0
LINE
  8
0
 62
     0
 10
163.745
 20
79.8174
 30
0.0
 11
164.545
 21
79.8174
 31
0.0
  0
LINE
  8
0
 62
     0
 10
164.545
 20
79.8174
 30
0.0
 11
164.545
 21
78.8183
 31
0.0
  0
LINE
  8
0
 62
     0
 10
164.545
 20
78.8183
 30
0.0
 11
178.544
 21
78.8183
 31
0.0
  0
LINE
  8
0
 62
     0
 10
178.544
 20
78.8183
 30
0.0
 11
178.544
 21
79.8174
 31
0.0
  0
LINE
  8
0
 62
     0
 10
178.544
 20
79.8174
 30
0.0
 11
179.345
 21
79.8174
 31
0.0
  0
LINE
  8
0
 62
     0
 10
179.345
 20
79.8174
 30
0.0
 11
179.345
 21
82.9179
 31
0.0
  0
LINE
  8
0
 62
     0
 10
179.345
 20
82.9179
 30
0.0
 11
178.544
 21
82.9179
 31
0.0
  0
LINE
  8
0
 62
     0
 10
178.544
 20
82.9179
 30
0.0
 11
178.544
 21
88.718
 31
0.0
  0
LINE
  8
0
 62
     0
 10
178.544
 20
88.718
 30
0.0
 11
179.345
 21
88.718
 31
0.0
  0
LINE
  8
0
 62
     0
 10
179.345
 20
88.718
 30
0.0
 11
179.345
 21
91.8175
 31
0.0
  0
LINE
  8
0
 62
     0
 10
179.345
 20
91.8175
 30
0.0
 11
178.544
 21
91.8175
 31
0.0
  0
LINE
  8
0
 62
     0
 10
178.544
 20
91.8175
 30
0.0
 11
178.544
 21
92.8176
 31
0.0
  0
LINE
  8
0
 62
     0
 10
178.544
 20
92.8176
 30
0.0
 11
164.545
 21
92.8176
 31
0.0
  0
LINE
  8
0
 62
     0
 10
183.595
 20
92.8176
 30
0.0
 11
183.595
 21
91.8175
 31
0.0
  0
LINE
  8
0
 62
     0
 10
183.595
 20
91.8175
 30
0.0
 11
182.795
 21
91.8175
 31
0.0
  0
LINE
  8
0
 62
     0
 10
182.795
 20
91.8175
 30
0.0
 11
182.795
 21
88.718
 31
0.0
  0
LINE
  8
0
 62
     0
 10
182.795
 20
88.718
 30
0.0
 11
183.595
 21
88.718
 31
0.0
  0
LINE
  8
0
 62
     0
 10
183.595
 20
88.718
 30
0.0
 11
183.595
 21
82.9179
 31
0.0
  0
LINE
  8
0
 62
     0
 10
183.595
 20
82.9179
 30
0.0
 11
182.795
 21
82.9179
 31
0.0
  0
LINE
  8
0
 62
     0
 10
182.795
 20
82.9179
 30
0.0
 11
182.795
 21
79.8174
 31
0.0
  0
LINE
  8
0
 62
     0
 10
182.795
 20
79.8174
 30
0.0
 11
183.595
 21
79.8174
 31
0.0
  0
LINE
  8
0
 62
     0
 10
183.595
 20
79.8174
 30
0.0
 11
183.595
 21
78.8183
 31
0.0
  0
LINE
  8
0
 62
     0
 10
183.595
 20
78.8183
 30
0.0
 11
197.594
 21
78.8183
 31
0.0
  0
LINE
  8
0
 62
     0
 10
197.594
 20
78.8183
 30
0.0
 11
197.594
 21
79.8174
 31
0.0
  0
LINE
  8
0
 62
     0
 10
197.594
 20
79.8174
 30
0.0
 11
198.395
 21
79.8174
 31
0.0
  0
LINE
  8
0
 62
     0
 10
198.395
 20
79.8174
 30
0.0
 11
198.395
 21
82.9179
 31
0.0
  0
LINE
  8
0
 62
     0
 10
198.395
 20
82.9179
 30
0.0
 11
197.594
 21
82.9179
 31
0.0
  0
LINE
  8
0
 62
     0
 10
197.594
 20
82.9179
 30
0.0
 11
197.594
 21
88.718
 31
0.0
  0
LINE
  8
0
 62
     0
 10
197.594
 20
88.718
 30
0.0
 11
198.395
 21
88.718
 31
0.0
  0
LINE
  8
0
 62
     0
 10
198.395
 20
88.718
 30
0.0
 11
198.395
 21
91.8175
 31
0.0
  0
LINE
  8
0
 62
     0
 10
198.395
 20
91.8175
 30
0.0
 11
197.594
 21
91.8175
 31
0.0
  0
LINE
  8
0
 62
     0
 10
197.594
 20
91.8175
 30
0.0
 11
197.594
 21
92.8176
 31
0.0
  0
LINE
  8
0
 62
     0
 10
197.594
 20
92.8176
 30
0.0
 11
183.595
 21
92.8176
 31
0.0
  0
LINE
  8
0
 62
     0
 10
202.645
 20
92.8176
 30
0.0
 11
202.645
 21
91.8175
 31
0.0
  0
LINE
  8
0
 62
     0
 10
202.645
 20
91.8175
 30
0.0
 11
201.845
 21
91.8175
 31
0.0
  0
LINE
  8
0
 62
     0
 10
201.845
 20
91.8175
 30
0.0
 11
201.845
 21
88.718
 31
0.0
  0
LINE
  8
0
 62
     0
 10
201.845
 20
88.718
 30
0.0
 11
202.645
 21
88.718
 31
0.0
  0
LINE
  8
0
 62
     0
 10
202.645
 20
88.718
 30
0.0
 11
202.645
 21
82.9179
 31
0.0
  0
LINE
  8
0
 62
     0
 10
202.645
 20
82.9179
 30
0.0
 11
201.845
 21
82.9179
 31
0.0
  0
LINE
  8
0
 62
     0
 10
201.845
 20
82.9179
 30
0.0
 11
201.845
 21
79.8174
 31
0.0
  0
LINE
  8
0
 62
     0
 10
201.845
 20
79.8174
 30
0.0
 11
202.645
 21
79.8174
 31
0.0
  0
LINE
  8
0
 62
     0
 10
202.645
 20
79.8174
 30
0.0
 11
202.645
 21
78.8183
 31
0.0
  0
LINE
  8
0
 62
     0
 10
202.645
 20
78.8183
 30
0.0
 11
216.644
 21
78.8183
 31
0.0
  0
LINE
  8
0
 62
     0
 10
216.644
 20
78.8183
 30
0.0
 11
216.644
 21
79.8174
 31
0.0
  0
LINE
  8
0
 62
     0
 10
216.644
 20
79.8174
 30
0.0
 11
217.445
 21
79.8174
 31
0.0
  0
LINE
  8
0
 62
     0
 10
217.445
 20
79.8174
 30
0.0
 11
217.445
 21
82.9179
 31
0.0
  0
LINE
  8
0
 62
     0
 10
217.445
 20
82.9179
 30
0.0
 11
216.644
 21
82.9179
 31
0.0
  0
LINE
  8
0
 62
     0
 10
216.644
 20
82.9179
 30
0.0
 11
216.644
 21
88.718
 31
0.0
  0
LINE
  8
0
 62
     0
 10
216.644
 20
88.718
 30
0.0
 11
217.445
 21
88.718
 31
0.0
  0
LINE
  8
0
 62
     0
 10
217.445
 20
88.718
 30
0.0
 11
217.445
 21
91.8175
 31
0.0
  0
LINE
  8
0
 62
     0
 10
217.445
 20
91.8175
 30
0.0
 11
216.644
 21
91.8175
 31
0.0
  0
LINE
  8
0
 62
     0
 10
216.644
 20
91.8175
 30
0.0
 11
216.644
 21
92.8176
 31
0.0
  0
LINE
  8
0
 62
     0
 10
216.644
 20
92.8176
 30
0.0
 11
202.645
 21
92.8176
 31
0.0
  0
LINE
  8
0
 62
     0
 10
221.695
 20
92.8176
 30
0.0
 11
221.695
 21
91.8175
 31
0.0
  0
LINE
  8
0
 62
     0
 10
221.695
 20
91.8175
 30
0.0
 11
220.895
 21
91.8175
 31
0.0
  0
LINE
  8
0
 62
     0
 10
220.895
 20
91.8175
 30
0.0
 11
220.895
 21
88.718
 31
0.0
  0
LINE
  8
0
 62
     0
 10
220.895
 20
88.718
 30
0.0
 11
221.695
 21
88.718
 31
0.0
  0
LINE
  8
0
 62
     0
 10
221.695
 20
88.718
 30
0.0
 11
221.695
 21
82.9179
 31
0.0
  0
LINE
  8
0
 62
     0
 10
221.695
 20
82.9179
 30
0.0
 11
220.895
 21
82.9179
 31
0.0
  0
LINE
  8
0
 62
     0
 10
220.895
 20
82.9179
 30
0.0
 11
220.895
 21
79.8174
 31
0.0
  0
LINE
  8
0
 62
     0
 10
220.895
 20
79.8174
 30
0.0
 11
221.695
 21
79.8174
 31
0.0
  0
LINE
  8
0
 62
     0
 10
221.695
 20
79.8174
 30
0.0
 11
221.695
 21
78.8183
 31
0.0
  0
LINE
  8
0
 62
     0
 10
221.695
 20
78.8183
 30
0.0
 11
235.694
 21
78.8183
 31
0.0
  0
LINE
  8
0
 62
     0
 10
235.694
 20
78.8183
 30
0.0
 11
235.694
 21
79.8174
 31
0.0
  0
LINE
  8
0
 62
     0
 10
235.694
 20
79.8174
 30
0.0
 11
236.495
 21
79.8174
 31
0.0
  0
LINE
  8
0
 62
     0
 10
236.495
 20
79.8174
 30
0.0
 11
236.495
 21
82.9179
 31
0.0
  0
LINE
  8
0
 62
     0
 10
236.495
 20
82.9179
 30
0.0
 11
235.694
 21
82.9179
 31
0.0
  0
LINE
  8
0
 62
     0
 10
235.694
 20
82.9179
 30
0.0
 11
235.694
 21
88.718
 31
0.0
  0
LINE
  8
0
 62
     0
 10
235.694
 20
88.718
 30
0.0
 11
236.495
 21
88.718
 31
0.0
  0
LINE
  8
0
 62
     0
 10
236.495
 20
88.718
 30
0.0
 11
236.495
 21
91.8175
 31
0.0
  0
LINE
  8
0
 62
     0
 10
236.495
 20
91.8175
 30
0.0
 11
235.694
 21
91.8175
 31
0.0
  0
LINE
  8
0
 62
     0
 10
235.694
 20
91.8175
 30
0.0
 11
235.694
 21
92.8176
 31
0.0
  0
LINE
  8
0
 62
     0
 10
235.694
 20
92.8176
 30
0.0
 11
221.695
 21
92.8176
 31
0.0
  0
LINE
  8
0
 62
     0
 10
240.745
 20
92.8176
 30
0.0
 11
240.745
 21
91.8175
 31
0.0
  0
LINE
  8
0
 62
     0
 10
240.745
 20
91.8175
 30
0.0
 11
239.945
 21
91.8175
 31
0.0
  0
LINE
  8
0
 62
     0
 10
239.945
 20
91.8175
 30
0.0
 11
239.945
 21
88.718
 31
0.0
  0
LINE
  8
0
 62
     0
 10
239.945
 20
88.718
 30
0.0
 11
240.745
 21
88.718
 31
0.0
  0
LINE
  8
0
 62
     0
 10
240.745
 20
88.718
 30
0.0
 11
240.745
 21
82.9179
 31
0.0
  0
LINE
  8
0
 62
     0
 10
240.745
 20
82.9179
 30
0.0
 11
239.945
 21
82.9179
 31
0.0
  0
LINE
  8
0
 62
     0
 10
239.945
 20
82.9179
 30
0.0
 11
239.945
 21
79.8174
 31
0.0
  0
LINE
  8
0
 62
     0
 10
239.945
 20
79.8174
 30
0.0
 11
240.745
 21
79.8174
 31
0.0
  0
LINE
  8
0
 62
     0
 10
240.745
 20
79.8174
 30
0.0
 11
240.745
 21
78.8183
 31
0.0
  0
LINE
  8
0
 62
     0
 10
240.745
 20
78.8183
 30
0.0
 11
254.744
 21
78.8183
 31
0.0
  0
LINE
  8
0
 62
     0
 10
254.744
 20
78.8183
 30
0.0
 11
254.744
 21
79.8174
 31
0.0
  0
LINE
  8
0
 62
     0
 10
254.744
 20
79.8174
 30
0.0
 11
255.545
 21
79.8174
 31
0.0
  0
LINE
  8
0
 62
     0
 10
255.545
 20
79.8174
 30
0.0
 11
255.545
 21
82.9179
 31
0.0
  0
LINE
  8
0
 62
     0
 10
255.545
 20
82.9179
 30
0.0
 11
254.744
 21
82.9179
 31
0.0
  0
LINE
  8
0
 62
     0
 10
254.744
 20
82.9179
 30
0.0
 11
254.744
 21
88.718
 31
0.0
  0
LINE
  8
0
 62
     0
 10
254.744
 20
88.718
 30
0.0
 11
255.545
 21
88.718
 31
0.0
  0
LINE
  8
0
 62
     0
 10
255.545
 20
88.718
 30
0.0
 11
255.545
 21
91.8175
 31
0.0
  0
LINE
  8
0
 62
     0
 10
255.545
 20
91.8175
 30
0.0
 11
254.744
 21
91.8175
 31
0.0
  0
LINE
  8
0
 62
     0
 10
254.744
 20
91.8175
 30
0.0
 11
254.744
 21
92.8176
 31
0.0
  0
LINE
  8
0
 62
     0
 10
254.744
 20
92.8176
 30
0.0
 11
240.745
 21
92.8176
 31
0.0
  0
ENDSEC
  0
EOF
