  0
SECTION
  2
BLOCKS
  0
ENDSEC
  0
SECTION
  2
ENTITIES
  0
LINE
  8
0
 10
33
 20
15
 11
0
 21
15
  0
LINE
  8
0
 10
0
 20
15
 11
0
 21
0
  0
LINE
  8
0
 10
0
 20
0
 11
33
 21
0
  0
LINE
  8
0
 10
33
 20
0
 11
33
 21
15
  0
LINE
  8
0
 10
15.2
 20
12
 11
15.2
 21
13.4
  0
LINE
  8
0
 10
15.2
 20
13.4
 11
16.6
 21
13.4
  0
LINE
  8
0
 10
16.6
 20
13.4
 11
16.6
 21
12
  0
LINE
  8
0
 10
16.6
 20
12
 11
15.2
 21
12
  0
LINE
  8
0
 10
13
 20
12
 11
13
 21
13.4
  0
LINE
  8
0
 10
13
 20
13.4
 11
14.4
 21
13.4
  0
LINE
  8
0
 10
14.4
 20
13.4
 11
14.4
 21
12
  0
LINE
  8
0
 10
14.4
 20
12
 11
13
 21
12
  0
LINE
  8
0
 10
21.8
 20
12
 11
21.8
 21
13.4
  0
LINE
  8
0
 10
21.8
 20
13.4
 11
23.2
 21
13.4
  0
LINE
  8
0
 10
23.2
 20
13.4
 11
23.2
 21
12
  0
LINE
  8
0
 10
23.2
 20
12
 11
21.8
 21
12
  0
LINE
  8
0
 10
19.6
 20
12
 11
19.6
 21
13.4
  0
LINE
  8
0
 10
19.6
 20
13.4
 11
21
 21
13.4
  0
LINE
  8
0
 10
21
 20
13.4
 11
21
 21
12
  0
LINE
  8
0
 10
21
 20
12
 11
19.6
 21
12
  0
LINE
  8
0
 10
26.2
 20
12
 11
26.2
 21
13.4
  0
LINE
  8
0
 10
26.2
 20
13.4
 11
27.6
 21
13.4
  0
LINE
  8
0
 10
27.6
 20
13.4
 11
27.6
 21
12
  0
LINE
  8
0
 10
27.6
 20
12
 11
26.2
 21
12
  0
LINE
  8
0
 10
10.8
 20
12
 11
10.8
 21
13.4
  0
LINE
  8
0
 10
10.8
 20
13.4
 11
12.2
 21
13.4
  0
LINE
  8
0
 10
12.2
 20
13.4
 11
12.2
 21
12
  0
LINE
  8
0
 10
12.2
 20
12
 11
10.8
 21
12
  0
LINE
  8
0
 10
8.59999
 20
12
 11
8.59999
 21
13.4
  0
LINE
  8
0
 10
8.59999
 20
13.4
 11
10
 21
13.4
  0
LINE
  8
0
 10
10
 20
13.4
 11
10
 21
12
  0
LINE
  8
0
 10
10
 20
12
 11
8.59999
 21
12
  0
LINE
  8
0
 10
28.4
 20
12
 11
28.4
 21
13.4
  0
LINE
  8
0
 10
28.4
 20
13.4
 11
29.8
 21
13.4
  0
LINE
  8
0
 10
29.8
 20
13.4
 11
29.8
 21
12
  0
LINE
  8
0
 10
29.8
 20
12
 11
28.4
 21
12
  0
LINE
  8
0
 10
24
 20
12
 11
24
 21
13.4
  0
LINE
  8
0
 10
24
 20
13.4
 11
25.4
 21
13.4
  0
LINE
  8
0
 10
25.4
 20
13.4
 11
25.4
 21
12
  0
LINE
  8
0
 10
25.4
 20
12
 11
24
 21
12
  0
LINE
  8
0
 10
2
 20
12
 11
2
 21
13.4
  0
LINE
  8
0
 10
2
 20
13.4
 11
3.39999
 21
13.4
  0
LINE
  8
0
 10
3.39999
 20
13.4
 11
3.39999
 21
12
  0
LINE
  8
0
 10
3.39999
 20
12
 11
2
 21
12
  0
LINE
  8
0
 10
6.39999
 20
12
 11
6.39999
 21
13.4
  0
LINE
  8
0
 10
6.39999
 20
13.4
 11
7.79999
 21
13.4
  0
LINE
  8
0
 10
7.79999
 20
13.4
 11
7.79999
 21
12
  0
LINE
  8
0
 10
7.79999
 20
12
 11
6.39999
 21
12
  0
LINE
  8
0
 10
17.4
 20
12
 11
17.4
 21
13.4
  0
LINE
  8
0
 10
17.4
 20
13.4
 11
18.8
 21
13.4
  0
LINE
  8
0
 10
18.8
 20
13.4
 11
18.8
 21
12
  0
LINE
  8
0
 10
18.8
 20
12
 11
17.4
 21
12
  0
LINE
  8
0
 10
5.59999
 20
12
 11
4.2
 21
12
  0
LINE
  8
0
 10
4.2
 20
12
 11
4.2
 21
13.4
  0
LINE
  8
0
 10
4.2
 20
13.4
 11
5.59999
 21
13.4
  0
LINE
  8
0
 10
5.59999
 20
13.4
 11
5.59999
 21
12
  0
LINE
  8
0
 10
1.29999
 20
9.89999
 11
1.29999
 21
11.3
  0
LINE
  8
0
 10
1.29999
 20
11.3
 11
2.7
 21
11.3
  0
LINE
  8
0
 10
2.7
 20
11.3
 11
2.7
 21
9.89999
  0
LINE
  8
0
 10
2.7
 20
9.89999
 11
1.29999
 21
9.89999
  0
LINE
  8
0
 10
14.5
 20
9.89999
 11
14.5
 21
11.3
  0
LINE
  8
0
 10
14.5
 20
11.3
 11
15.9
 21
11.3
  0
LINE
  8
0
 10
15.9
 20
11.3
 11
15.9
 21
9.89999
  0
LINE
  8
0
 10
15.9
 20
9.89999
 11
14.5
 21
9.89999
  0
LINE
  8
0
 10
16.7
 20
9.89999
 11
16.7
 21
11.3
  0
LINE
  8
0
 10
16.7
 20
11.3
 11
18.1
 21
11.3
  0
LINE
  8
0
 10
18.1
 20
11.3
 11
18.1
 21
9.89999
  0
LINE
  8
0
 10
18.1
 20
9.89999
 11
16.7
 21
9.89999
  0
LINE
  8
0
 10
21.1
 20
9.89999
 11
21.1
 21
11.3
  0
LINE
  8
0
 10
21.1
 20
11.3
 11
22.5
 21
11.3
  0
LINE
  8
0
 10
22.5
 20
11.3
 11
22.5
 21
9.89999
  0
LINE
  8
0
 10
22.5
 20
9.89999
 11
21.1
 21
9.89999
  0
LINE
  8
0
 10
23.3
 20
9.89999
 11
23.3
 21
11.3
  0
LINE
  8
0
 10
23.3
 20
11.3
 11
24.7
 21
11.3
  0
LINE
  8
0
 10
24.7
 20
11.3
 11
24.7
 21
9.89999
  0
LINE
  8
0
 10
24.7
 20
9.89999
 11
23.3
 21
9.89999
  0
LINE
  8
0
 10
3.49998
 20
9.89999
 11
3.49998
 21
11.3
  0
LINE
  8
0
 10
3.49998
 20
11.3
 11
4.89999
 21
11.3
  0
LINE
  8
0
 10
4.89999
 20
11.3
 11
4.89999
 21
9.89999
  0
LINE
  8
0
 10
4.89999
 20
9.89999
 11
3.49998
 21
9.89999
  0
LINE
  8
0
 10
25.5
 20
9.89999
 11
25.5
 21
11.3
  0
LINE
  8
0
 10
25.5
 20
11.3
 11
26.9
 21
11.3
  0
LINE
  8
0
 10
26.9
 20
11.3
 11
26.9
 21
9.89999
  0
LINE
  8
0
 10
26.9
 20
9.89999
 11
25.5
 21
9.89999
  0
LINE
  8
0
 10
29.9
 20
9.89999
 11
29.9
 21
11.3
  0
LINE
  8
0
 10
29.9
 20
11.3
 11
31.3
 21
11.3
  0
LINE
  8
0
 10
31.3
 20
11.3
 11
31.3
 21
9.89999
  0
LINE
  8
0
 10
31.3
 20
9.89999
 11
29.9
 21
9.89999
  0
LINE
  8
0
 10
27.7
 20
9.89999
 11
27.7
 21
11.3
  0
LINE
  8
0
 10
27.7
 20
11.3
 11
29.1
 21
11.3
  0
LINE
  8
0
 10
29.1
 20
11.3
 11
29.1
 21
9.89999
  0
LINE
  8
0
 10
29.1
 20
9.89999
 11
27.7
 21
9.89999
  0
LINE
  8
0
 10
7.89999
 20
9.89999
 11
7.89999
 21
11.3
  0
LINE
  8
0
 10
7.89999
 20
11.3
 11
9.29999
 21
11.3
  0
LINE
  8
0
 10
9.29999
 20
11.3
 11
9.29999
 21
9.89999
  0
LINE
  8
0
 10
9.29999
 20
9.89999
 11
7.89999
 21
9.89999
  0
LINE
  8
0
 10
12.3
 20
9.89999
 11
12.3
 21
11.3
  0
LINE
  8
0
 10
12.3
 20
11.3
 11
13.7
 21
11.3
  0
LINE
  8
0
 10
13.7
 20
11.3
 11
13.7
 21
9.89999
  0
LINE
  8
0
 10
13.7
 20
9.89999
 11
12.3
 21
9.89999
  0
LINE
  8
0
 10
10.1
 20
9.89999
 11
10.1
 21
11.3
  0
LINE
  8
0
 10
10.1
 20
11.3
 11
11.5
 21
11.3
  0
LINE
  8
0
 10
11.5
 20
11.3
 11
11.5
 21
9.89999
  0
LINE
  8
0
 10
11.5
 20
9.89999
 11
10.1
 21
9.89999
  0
LINE
  8
0
 10
5.7
 20
9.89999
 11
5.7
 21
11.3
  0
LINE
  8
0
 10
5.7
 20
11.3
 11
7.09999
 21
11.3
  0
LINE
  8
0
 10
7.09999
 20
11.3
 11
7.09999
 21
9.89999
  0
LINE
  8
0
 10
7.09999
 20
9.89999
 11
5.7
 21
9.89999
  0
LINE
  8
0
 10
18.9
 20
9.89999
 11
18.9
 21
11.3
  0
LINE
  8
0
 10
18.9
 20
11.3
 11
20.3
 21
11.3
  0
LINE
  8
0
 10
20.3
 20
11.3
 11
20.3
 21
9.89999
  0
LINE
  8
0
 10
20.3
 20
9.89999
 11
18.9
 21
9.89999
  0
LINE
  8
0
 10
6.39999
 20
7.79999
 11
6.39999
 21
9.2
  0
LINE
  8
0
 10
6.39999
 20
9.2
 11
7.79999
 21
9.2
  0
LINE
  8
0
 10
7.79999
 20
9.2
 11
7.79999
 21
7.79999
  0
LINE
  8
0
 10
7.79999
 20
7.79999
 11
6.39999
 21
7.79999
  0
LINE
  8
0
 10
4.2
 20
7.79999
 11
4.2
 21
9.2
  0
LINE
  8
0
 10
4.2
 20
9.2
 11
5.59999
 21
9.2
  0
LINE
  8
0
 10
5.59999
 20
9.2
 11
5.59999
 21
7.79999
  0
LINE
  8
0
 10
5.59999
 20
7.79999
 11
4.2
 21
7.79999
  0
LINE
  8
0
 10
19.6
 20
7.79999
 11
19.6
 21
9.2
  0
LINE
  8
0
 10
19.6
 20
9.2
 11
21
 21
9.2
  0
LINE
  8
0
 10
21
 20
9.2
 11
21
 21
7.79999
  0
LINE
  8
0
 10
21
 20
7.79999
 11
19.6
 21
7.79999
  0
LINE
  8
0
 10
8.59999
 20
7.79999
 11
8.59999
 21
9.2
  0
LINE
  8
0
 10
8.59999
 20
9.2
 11
10
 21
9.2
  0
LINE
  8
0
 10
10
 20
9.2
 11
10
 21
7.79999
  0
LINE
  8
0
 10
10
 20
7.79999
 11
8.59999
 21
7.79999
  0
LINE
  8
0
 10
15.2
 20
7.79999
 11
15.2
 21
9.2
  0
LINE
  8
0
 10
15.2
 20
9.2
 11
16.6
 21
9.2
  0
LINE
  8
0
 10
16.6
 20
9.2
 11
16.6
 21
7.79999
  0
LINE
  8
0
 10
16.6
 20
7.79999
 11
15.2
 21
7.79999
  0
LINE
  8
0
 10
17.4
 20
7.79999
 11
17.4
 21
9.2
  0
LINE
  8
0
 10
17.4
 20
9.2
 11
18.8
 21
9.2
  0
LINE
  8
0
 10
18.8
 20
9.2
 11
18.8
 21
7.79999
  0
LINE
  8
0
 10
18.8
 20
7.79999
 11
17.4
 21
7.79999
  0
LINE
  8
0
 10
28.4
 20
7.79999
 11
28.4
 21
9.2
  0
LINE
  8
0
 10
28.4
 20
9.2
 11
29.8
 21
9.2
  0
LINE
  8
0
 10
29.8
 20
9.2
 11
29.8
 21
7.79999
  0
LINE
  8
0
 10
29.8
 20
7.79999
 11
28.4
 21
7.79999
  0
LINE
  8
0
 10
26.2
 20
7.79999
 11
26.2
 21
9.2
  0
LINE
  8
0
 10
26.2
 20
9.2
 11
27.6
 21
9.2
  0
LINE
  8
0
 10
27.6
 20
9.2
 11
27.6
 21
7.79999
  0
LINE
  8
0
 10
27.6
 20
7.79999
 11
26.2
 21
7.79999
  0
LINE
  8
0
 10
13
 20
7.79999
 11
13
 21
9.2
  0
LINE
  8
0
 10
13
 20
9.2
 11
14.4
 21
9.2
  0
LINE
  8
0
 10
14.4
 20
9.2
 11
14.4
 21
7.79999
  0
LINE
  8
0
 10
14.4
 20
7.79999
 11
13
 21
7.79999
  0
LINE
  8
0
 10
21.8
 20
7.79999
 11
21.8
 21
9.2
  0
LINE
  8
0
 10
21.8
 20
9.2
 11
23.2
 21
9.2
  0
LINE
  8
0
 10
23.2
 20
9.2
 11
23.2
 21
7.79999
  0
LINE
  8
0
 10
23.2
 20
7.79999
 11
21.8
 21
7.79999
  0
LINE
  8
0
 10
2
 20
7.79999
 11
2
 21
9.2
  0
LINE
  8
0
 10
2
 20
9.2
 11
3.39999
 21
9.2
  0
LINE
  8
0
 10
3.39999
 20
9.2
 11
3.39999
 21
7.79999
  0
LINE
  8
0
 10
3.39999
 20
7.79999
 11
2
 21
7.79999
  0
LINE
  8
0
 10
10.8
 20
7.79999
 11
10.8
 21
9.2
  0
LINE
  8
0
 10
10.8
 20
9.2
 11
12.2
 21
9.2
  0
LINE
  8
0
 10
12.2
 20
9.2
 11
12.2
 21
7.79999
  0
LINE
  8
0
 10
12.2
 20
7.79999
 11
10.8
 21
7.79999
  0
LINE
  8
0
 10
24
 20
7.79999
 11
24
 21
9.2
  0
LINE
  8
0
 10
24
 20
9.2
 11
25.4
 21
9.2
  0
LINE
  8
0
 10
25.4
 20
9.2
 11
25.4
 21
7.79999
  0
LINE
  8
0
 10
25.4
 20
7.79999
 11
24
 21
7.79999
  0
LINE
  8
0
 10
26.9
 20
5.7
 11
26.9
 21
7.09999
  0
LINE
  8
0
 10
26.9
 20
7.09999
 11
28.3
 21
7.09999
  0
LINE
  8
0
 10
28.3
 20
7.09999
 11
28.3
 21
5.7
  0
LINE
  8
0
 10
28.3
 20
5.7
 11
26.9
 21
5.7
  0
LINE
  8
0
 10
15.9
 20
5.7
 11
15.9
 21
7.09999
  0
LINE
  8
0
 10
15.9
 20
7.09999
 11
17.3
 21
7.09999
  0
LINE
  8
0
 10
17.3
 20
7.09999
 11
17.3
 21
5.7
  0
LINE
  8
0
 10
17.3
 20
5.7
 11
15.9
 21
5.7
  0
LINE
  8
0
 10
7.09999
 20
5.7
 11
7.09999
 21
7.09999
  0
LINE
  8
0
 10
7.09999
 20
7.09999
 11
8.49998
 21
7.09999
  0
LINE
  8
0
 10
8.49998
 20
7.09999
 11
8.49998
 21
5.7
  0
LINE
  8
0
 10
8.49998
 20
5.7
 11
7.09999
 21
5.7
  0
LINE
  8
0
 10
2.7
 20
5.7
 11
2.7
 21
7.09999
  0
LINE
  8
0
 10
2.7
 20
7.09999
 11
4.09999
 21
7.09999
  0
LINE
  8
0
 10
4.09999
 20
7.09999
 11
4.09999
 21
5.7
  0
LINE
  8
0
 10
4.09999
 20
5.7
 11
2.7
 21
5.7
  0
LINE
  8
0
 10
13.7
 20
5.7
 11
13.7
 21
7.09999
  0
LINE
  8
0
 10
13.7
 20
7.09999
 11
15.1
 21
7.09999
  0
LINE
  8
0
 10
15.1
 20
7.09999
 11
15.1
 21
5.7
  0
LINE
  8
0
 10
15.1
 20
5.7
 11
13.7
 21
5.7
  0
LINE
  8
0
 10
4.89999
 20
5.7
 11
4.89999
 21
7.09999
  0
LINE
  8
0
 10
4.89999
 20
7.09999
 11
6.29999
 21
7.09999
  0
LINE
  8
0
 10
6.29999
 20
7.09999
 11
6.29999
 21
5.7
  0
LINE
  8
0
 10
6.29999
 20
5.7
 11
4.89999
 21
5.7
  0
LINE
  8
0
 10
20.3
 20
5.7
 11
20.3
 21
7.09999
  0
LINE
  8
0
 10
20.3
 20
7.09999
 11
21.7
 21
7.09999
  0
LINE
  8
0
 10
21.7
 20
7.09999
 11
21.7
 21
5.7
  0
LINE
  8
0
 10
21.7
 20
5.7
 11
20.3
 21
5.7
  0
LINE
  8
0
 10
18.1
 20
5.7
 11
18.1
 21
7.09999
  0
LINE
  8
0
 10
18.1
 20
7.09999
 11
19.5
 21
7.09999
  0
LINE
  8
0
 10
19.5
 20
7.09999
 11
19.5
 21
5.7
  0
LINE
  8
0
 10
19.5
 20
5.7
 11
18.1
 21
5.7
  0
LINE
  8
0
 10
22.5
 20
5.7
 11
22.5
 21
7.09999
  0
LINE
  8
0
 10
22.5
 20
7.09999
 11
23.9
 21
7.09999
  0
LINE
  8
0
 10
23.9
 20
7.09999
 11
23.9
 21
5.7
  0
LINE
  8
0
 10
23.9
 20
5.7
 11
22.5
 21
5.7
  0
LINE
  8
0
 10
9.29999
 20
5.7
 11
9.29999
 21
7.09999
  0
LINE
  8
0
 10
9.29999
 20
7.09999
 11
10.7
 21
7.09999
  0
LINE
  8
0
 10
10.7
 20
7.09999
 11
10.7
 21
5.7
  0
LINE
  8
0
 10
10.7
 20
5.7
 11
9.29999
 21
5.7
  0
LINE
  8
0
 10
11.5
 20
5.7
 11
11.5
 21
7.09999
  0
LINE
  8
0
 10
11.5
 20
7.09999
 11
12.9
 21
7.09999
  0
LINE
  8
0
 10
12.9
 20
7.09999
 11
12.9
 21
5.7
  0
LINE
  8
0
 10
12.9
 20
5.7
 11
11.5
 21
5.7
  0
LINE
  8
0
 10
24.7
 20
5.7
 11
24.7
 21
7.09999
  0
LINE
  8
0
 10
24.7
 20
7.09999
 11
26.1
 21
7.09999
  0
LINE
  8
0
 10
26.1
 20
7.09999
 11
26.1
 21
5.7
  0
LINE
  8
0
 10
26.1
 20
5.7
 11
24.7
 21
5.7
  0
LINE
  8
0
 10
15.275
 20
3.59999
 11
15.275
 21
5
  0
LINE
  8
0
 10
15.275
 20
5
 11
17.725
 21
5
  0
LINE
  8
0
 10
17.725
 20
5
 11
17.725
 21
3.59999
  0
LINE
  8
0
 10
17.725
 20
3.59999
 11
15.275
 21
3.59999
  0
ENDSEC
  0
SECTION
  2
OBJECTS
  0
DICTIONARY
  0
ENDSEC
  0
EOF
